<svg xmlns="http://www.w3.org/2000/svg" xmlns:xlink="http://www.w3.org/1999/xlink" width="526" zoomAndPan="magnify" viewBox="0 0 394.5 374.999991" height="500" preserveAspectRatio="xMidYMid meet" version="1.0"><defs><clipPath id="7269015369"><path d="M 118.199219 128.761719 L 275.5 128.761719 L 275.5 246.53125 L 118.199219 246.53125 Z M 118.199219 128.761719 " clip-rule="nonzero"/></clipPath></defs><g clip-path="url(#7269015369)"><path fill="#040606" d="M 133.171875 165.574219 L 171.882812 165.574219 L 171.882812 186.898438 C 171.882812 195.050781 178.417969 201.648438 186.574219 201.691406 L 218.804688 201.691406 L 218.804688 220.167969 C 218.804688 226.375 213.777344 231.402344 207.574219 231.402344 L 153.839844 231.402344 C 152.722656 231.417969 151.605469 231.796875 150.710938 232.480469 L 138.476562 242.121094 L 138.476562 231.402344 L 133.113281 231.402344 C 126.96875 231.417969 121.941406 226.375 121.941406 220.167969 L 121.941406 176.824219 C 121.941406 170.617188 126.96875 165.589844 133.113281 165.574219 Z M 186.40625 132.316406 L 260.808594 132.316406 C 266.953125 132.289062 271.980469 137.292969 272.039062 143.496094 C 272.039062 143.523438 272.039062 143.539062 272.039062 143.554688 L 272.039062 186.898438 C 272.039062 193.101562 267.011719 198.144531 260.867188 198.144531 L 258.574219 198.144531 C 256.84375 198.117188 255.503906 199.492188 255.503906 201.1875 C 255.503906 201.199219 255.503906 201.199219 255.503906 201.214844 L 255.503906 208.847656 L 243.214844 199.210938 C 242.375 198.523438 241.257812 198.144531 240.140625 198.144531 L 186.40625 198.144531 C 180.203125 198.144531 175.175781 193.101562 175.175781 186.898438 L 175.175781 143.554688 C 175.175781 137.417969 180.09375 132.417969 186.238281 132.316406 Z M 186.40625 128.773438 C 178.25 128.800781 171.714844 135.414062 171.714844 143.554688 L 171.714844 162.046875 L 133.003906 162.046875 C 124.902344 162.003906 118.257812 168.601562 118.199219 176.769531 C 118.199219 176.78125 118.199219 176.796875 118.199219 176.824219 L 118.199219 220.167969 C 118.199219 228.335938 124.847656 234.949219 132.945312 234.949219 L 134.847656 234.949219 L 134.847656 243.746094 C 134.847656 245.273438 136.074219 246.519531 137.527344 246.53125 C 138.199219 246.546875 138.8125 246.324219 139.316406 245.917969 L 152.777344 235.269531 C 153.054688 235.058594 153.390625 234.949219 153.726562 234.949219 L 207.464844 234.949219 C 215.5625 234.917969 222.15625 228.308594 222.15625 220.167969 L 222.15625 201.691406 L 240.199219 201.691406 C 240.53125 201.675781 240.867188 201.789062 241.148438 202 L 254.609375 212.644531 C 255.78125 213.613281 257.457031 213.429688 258.464844 212.253906 C 258.855469 211.761719 259.078125 211.132812 259.078125 210.488281 L 259.078125 201.691406 L 260.867188 201.691406 C 268.964844 201.71875 275.558594 195.121094 275.613281 186.953125 C 275.613281 186.9375 275.613281 186.925781 275.613281 186.898438 L 275.613281 143.554688 C 275.613281 135.398438 269.019531 128.773438 260.921875 128.773438 L 186.40625 128.773438 " fill-opacity="1" fill-rule="nonzero"/></g></svg>