<svg xmlns="http://www.w3.org/2000/svg" xmlns:xlink="http://www.w3.org/1999/xlink" width="526" zoomAndPan="magnify" viewBox="0 0 394.5 374.999991" height="500" preserveAspectRatio="xMidYMid meet" version="1.0"><defs><clipPath id="3b6625fc08"><path d="M 67.519531 40.574219 L 326.691406 40.574219 L 326.691406 334.199219 L 67.519531 334.199219 Z M 67.519531 40.574219 " clip-rule="nonzero"/></clipPath></defs><g clip-path="url(#3b6625fc08)"><path fill="#000000" d="M 244.171875 267.75 L 244.117188 276.777344 C 244.09375 281 240.640625 284.433594 236.421875 284.421875 L 228.027344 284.382812 C 226.78125 288.476562 225.019531 292.34375 222.78125 295.890625 L 228.960938 302.128906 C 231.941406 305.128906 231.925781 310.007812 228.933594 312.984375 L 222.515625 319.34375 C 219.496094 322.308594 214.609375 322.289062 211.632812 319.289062 L 204.972656 312.585938 C 201.457031 314.5 197.761719 315.945312 193.878906 316.925781 L 193.828125 326.5625 C 193.8125 330.773438 190.34375 334.21875 186.105469 334.195312 L 177.070312 334.160156 C 172.851562 334.148438 169.402344 330.671875 169.425781 326.453125 L 169.457031 316.730469 C 165.625 315.691406 161.972656 314.199219 158.503906 312.261719 L 151.667969 319.03125 C 148.683594 322.003906 143.792969 321.988281 140.8125 318.984375 L 134.445312 312.5625 C 131.464844 309.578125 131.484375 304.699219 134.480469 301.726562 L 140.957031 295.335938 C 138.777344 291.773438 137.09375 287.992188 135.902344 283.992188 L 127.207031 283.953125 C 122.976562 283.933594 119.523438 280.457031 119.546875 276.242188 L 119.59375 267.222656 C 119.617188 262.992188 123.078125 259.546875 127.296875 259.570312 L 135.179688 259.605469 C 136.183594 255.214844 137.78125 251.058594 139.980469 247.128906 L 134.75 241.867188 C 131.769531 238.878906 131.792969 233.980469 134.789062 231.003906 L 141.207031 224.664062 C 144.222656 221.691406 149.101562 221.707031 152.082031 224.707031 L 156.847656 229.507812 C 160.835938 227.039062 165.222656 225.167969 169.855469 223.949219 L 169.890625 217.421875 C 169.90625 213.207031 173.386719 209.773438 177.605469 209.792969 L 186.648438 209.832031 C 190.871094 209.84375 194.316406 213.316406 194.300781 217.535156 L 194.277344 223.960938 C 198.949219 225.179688 203.351562 227.113281 207.359375 229.59375 L 212.050781 224.953125 C 215.042969 222 219.925781 222.015625 222.90625 225.007812 L 229.265625 231.417969 C 232.246094 234.410156 232.230469 239.308594 229.238281 242.273438 L 224.167969 247.269531 C 226.351562 251.207031 227.988281 255.496094 228.980469 260.015625 L 236.507812 260.050781 C 240.742188 260.074219 244.191406 263.523438 244.171875 267.75 Z M 151.339844 90.488281 C 169.402344 91.050781 183.59375 106.125 183.019531 124.183594 C 182.46875 142.214844 167.359375 156.386719 149.28125 155.835938 C 131.21875 155.261719 117.023438 140.175781 117.589844 122.128906 C 118.152344 104.097656 133.25 89.917969 151.339844 90.488281 Z M 206.613281 272.109375 C 206.554688 285.746094 195.414062 296.78125 181.753906 296.699219 C 168.070312 296.640625 157.035156 285.539062 157.105469 271.898438 C 157.15625 258.234375 168.304688 247.230469 181.960938 247.289062 C 195.644531 247.339844 206.675781 258.453125 206.613281 272.109375 Z M 271.382812 171.6875 C 282.414062 169.652344 292.996094 176.921875 295.039062 187.9375 C 297.089844 198.941406 289.785156 209.515625 278.765625 211.574219 C 267.730469 213.601562 257.144531 206.328125 255.105469 195.320312 C 253.074219 184.304688 260.359375 173.71875 271.382812 171.6875 Z M 146.914062 40.75 L 158.867188 41.136719 C 164.441406 41.3125 168.878906 46.011719 168.695312 51.59375 L 168.355469 62.632812 C 173.730469 64.433594 178.78125 66.921875 183.402344 70 L 191.894531 62.042969 C 195.96875 58.21875 202.433594 58.421875 206.25 62.492188 L 214.445312 71.191406 C 218.285156 75.253906 218.066406 81.726562 213.996094 85.542969 L 204.886719 94.082031 C 207.246094 98.726562 209.070312 103.695312 210.242188 108.898438 L 222.992188 109.300781 C 228.589844 109.472656 233.011719 114.179688 232.847656 119.765625 L 232.464844 131.699219 C 232.285156 137.265625 227.578125 141.695312 221.980469 141.511719 L 209.097656 141.121094 C 207.589844 146.175781 205.460938 150.96875 202.808594 155.40625 L 211.523438 164.671875 C 215.34375 168.742188 215.148438 175.195312 211.074219 179.007812 L 202.359375 187.1875 C 198.285156 191.003906 191.808594 190.804688 187.980469 186.738281 L 179.753906 177.988281 C 175.027344 180.6875 169.929688 182.8125 164.550781 184.234375 L 164.1875 195.722656 C 164.011719 201.308594 159.304688 205.722656 153.707031 205.5625 L 141.769531 205.179688 C 136.171875 205 131.742188 200.300781 131.914062 194.710938 L 132.246094 184.335938 C 126.472656 182.84375 121.015625 180.582031 115.878906 177.550781 L 108.722656 184.269531 C 104.664062 188.085938 98.1875 187.890625 94.359375 183.820312 L 86.175781 175.121094 C 82.351562 171.050781 82.546875 164.605469 86.625 160.765625 L 93.152344 154.644531 C 89.980469 149.203125 87.683594 143.414062 86.261719 137.28125 L 77.617188 137.011719 C 72.03125 136.835938 67.609375 132.136719 67.773438 126.546875 L 68.15625 114.609375 C 68.335938 109.042969 73.042969 104.617188 78.632812 104.789062 L 87.148438 105.066406 C 88.933594 98.925781 91.625 93.175781 95.0625 87.972656 L 89.097656 81.632812 C 85.269531 77.582031 85.46875 71.117188 89.546875 67.292969 L 98.261719 59.125 C 102.332031 55.308594 108.796875 55.503906 112.636719 59.574219 L 119.070312 66.417969 C 124.375 63.683594 130.101562 61.675781 136.121094 60.523438 L 136.433594 50.582031 C 136.605469 45.003906 141.316406 40.589844 146.914062 40.75 Z M 262.117188 142.125 L 269.429688 140.777344 C 272.839844 140.148438 276.136719 142.417969 276.765625 145.820312 L 278.011719 152.574219 C 281.507812 152.953125 284.902344 153.792969 288.117188 155.042969 L 292.203125 149.09375 C 294.171875 146.25 298.105469 145.53125 300.96875 147.488281 L 307.089844 151.683594 C 309.9375 153.652344 310.660156 157.578125 308.714844 160.4375 L 304.3125 166.816406 C 306.367188 169.320312 308.121094 172.09375 309.507812 175.082031 L 317.296875 173.644531 C 320.707031 173.011719 324.011719 175.300781 324.644531 178.703125 L 326 185.976562 C 326.625 189.382812 324.359375 192.675781 320.949219 193.308594 L 313.078125 194.769531 C 312.835938 198.011719 312.191406 201.175781 311.148438 204.253906 L 317.664062 208.726562 C 320.511719 210.691406 321.253906 214.636719 319.28125 217.476562 L 315.082031 223.585938 C 313.117188 226.429688 309.160156 227.164062 306.316406 225.210938 L 300.160156 220.984375 C 297.65625 223.242188 294.839844 225.179688 291.773438 226.773438 L 293.078125 233.777344 C 293.703125 237.183594 291.429688 240.5 288.023438 241.121094 L 280.714844 242.472656 C 277.328125 243.105469 274.003906 240.832031 273.375 237.414062 L 272.207031 231.089844 C 268.511719 230.949219 264.910156 230.292969 261.398438 229.128906 L 257.941406 234.132812 C 255.984375 237 252.039062 237.714844 249.171875 235.761719 L 243.054688 231.566406 C 240.203125 229.59375 239.460938 225.675781 241.433594 222.808594 L 244.582031 218.238281 C 241.945312 215.355469 239.785156 212.152344 238.109375 208.621094 L 232.847656 209.589844 C 229.4375 210.222656 226.132812 207.953125 225.5 204.546875 L 224.144531 197.273438 C 223.519531 193.871094 225.789062 190.554688 229.199219 189.925781 L 234.394531 188.96875 C 234.664062 185.027344 235.546875 181.191406 236.9375 177.585938 L 232.480469 174.527344 C 229.628906 172.566406 228.894531 168.617188 230.863281 165.773438 L 235.066406 159.675781 C 237.027344 156.804688 240.984375 156.085938 243.832031 158.046875 L 248.640625 161.34375 C 251.496094 159 254.703125 157.015625 258.1875 155.523438 L 257.0625 149.472656 C 256.433594 146.050781 258.707031 142.761719 262.117188 142.125 Z M 262.117188 142.125 " fill-opacity="1" fill-rule="evenodd"/></g></svg>