<svg xmlns="http://www.w3.org/2000/svg" xmlns:xlink="http://www.w3.org/1999/xlink" width="526" zoomAndPan="magnify" viewBox="0 0 394.5 374.999991" height="500" preserveAspectRatio="xMidYMid meet" version="1.0"><defs><clipPath id="adba26dd63"><path d="M 118.199219 137.066406 L 223 137.066406 L 223 227 L 118.199219 227 Z M 118.199219 137.066406 " clip-rule="nonzero"/></clipPath><clipPath id="838d0beea0"><path d="M 189 166 L 275.5 166 L 275.5 238 L 189 238 Z M 189 166 " clip-rule="nonzero"/></clipPath></defs><g clip-path="url(#adba26dd63)"><path fill="#000000" d="M 182.050781 202.390625 L 182.050781 173.84375 C 182.050781 166.464844 187.742188 160.480469 194.761719 160.480469 L 222.5625 160.480469 L 222.5625 153.675781 C 222.5625 144.546875 215.519531 137.144531 206.839844 137.144531 L 133.925781 137.144531 C 125.242188 137.144531 118.199219 144.546875 118.199219 153.675781 L 118.199219 189 C 118.199219 198.128906 125.242188 205.53125 133.925781 205.53125 L 145.957031 205.53125 L 145.957031 225.050781 C 145.957031 226.128906 147.429688 226.886719 148.191406 225.980469 C 153.925781 219.164062 159.65625 212.351562 165.390625 205.535156 L 182.417969 205.535156 C 182.183594 204.523438 182.050781 203.476562 182.050781 202.390625 Z M 182.050781 202.390625 " fill-opacity="1" fill-rule="nonzero"/></g><g clip-path="url(#838d0beea0)"><path fill="#000000" d="M 189.265625 178.550781 L 189.265625 210.417969 C 189.265625 217.074219 194.398438 222.472656 200.730469 222.472656 L 230.949219 222.472656 C 235.128906 227.441406 239.304688 232.410156 243.484375 237.378906 C 244.042969 238.042969 245.113281 237.484375 245.113281 236.703125 L 245.113281 222.472656 L 264.035156 222.472656 C 270.367188 222.472656 275.5 217.074219 275.5 210.417969 L 275.5 178.550781 C 275.5 171.894531 270.367188 166.496094 264.035156 166.496094 L 200.730469 166.496094 C 194.398438 166.496094 189.265625 171.894531 189.265625 178.550781 Z M 189.265625 178.550781 " fill-opacity="1" fill-rule="nonzero"/></g></svg>