<svg xmlns="http://www.w3.org/2000/svg" xmlns:xlink="http://www.w3.org/1999/xlink" width="526" zoomAndPan="magnify" viewBox="0 0 394.5 374.999991" height="500" preserveAspectRatio="xMidYMid meet" version="1.0"><defs><clipPath id="0f6e25dc43"><path d="M 79.6875 80.15625 L 314.140625 80.15625 L 314.140625 295.136719 L 79.6875 295.136719 Z M 79.6875 80.15625 " clip-rule="nonzero"/></clipPath><clipPath id="a2e54a5ca7"><path d="M 79.6875 81.34375 L 311.277344 81.34375 L 311.277344 294.1875 L 79.6875 294.1875 Z M 79.6875 81.34375 " clip-rule="nonzero"/></clipPath><clipPath id="3fdacc6480"><path d="M 209.15625 84.574219 L 307.878906 84.574219 L 307.878906 201 L 209.15625 201 Z M 209.15625 84.574219 " clip-rule="nonzero"/></clipPath><clipPath id="1eabefe785"><path d="M 226.386719 84.574219 L 290.652344 84.574219 C 300.167969 84.574219 307.878906 92.289062 307.878906 101.804688 L 307.878906 183.527344 C 307.878906 193.042969 300.167969 200.757812 290.652344 200.757812 L 226.386719 200.757812 C 216.871094 200.757812 209.15625 193.042969 209.15625 183.527344 L 209.15625 101.804688 C 209.15625 92.289062 216.871094 84.574219 226.386719 84.574219 Z M 226.386719 84.574219 " clip-rule="nonzero"/></clipPath><clipPath id="9bc5465fea"><path d="M 85.191406 173.027344 L 183.914062 173.027344 L 183.914062 289.488281 L 85.191406 289.488281 Z M 85.191406 173.027344 " clip-rule="nonzero"/></clipPath><clipPath id="b136f44191"><path d="M 102.417969 173.027344 L 166.683594 173.027344 C 176.199219 173.027344 183.914062 180.738281 183.914062 190.253906 L 183.914062 271.980469 C 183.914062 281.496094 176.199219 289.207031 166.683594 289.207031 L 102.417969 289.207031 C 92.902344 289.207031 85.191406 281.496094 85.191406 271.980469 L 85.191406 190.253906 C 85.191406 180.738281 92.902344 173.027344 102.417969 173.027344 Z M 102.417969 173.027344 " clip-rule="nonzero"/></clipPath><clipPath id="3bed2921bd"><path d="M 85.191406 81.34375 L 183.929688 81.34375 L 183.929688 147.691406 L 85.191406 147.691406 Z M 85.191406 81.34375 " clip-rule="nonzero"/></clipPath><clipPath id="982c700026"><path d="M 102.417969 81.34375 L 166.683594 81.34375 C 176.199219 81.34375 183.914062 89.058594 183.914062 98.574219 L 183.914062 130.460938 C 183.914062 139.976562 176.199219 147.691406 166.683594 147.691406 L 102.417969 147.691406 C 92.902344 147.691406 85.191406 139.976562 85.191406 130.460938 L 85.191406 98.574219 C 85.191406 89.058594 92.902344 81.34375 102.417969 81.34375 Z M 102.417969 81.34375 " clip-rule="nonzero"/></clipPath><clipPath id="3a939961b0"><path d="M 209.15625 227.308594 L 307.894531 227.308594 L 307.894531 293.65625 L 209.15625 293.65625 Z M 209.15625 227.308594 " clip-rule="nonzero"/></clipPath><clipPath id="18daf661b0"><path d="M 226.386719 227.308594 L 290.652344 227.308594 C 300.167969 227.308594 307.878906 235.023438 307.878906 244.539062 L 307.878906 276.425781 C 307.878906 285.941406 300.167969 293.65625 290.652344 293.65625 L 226.386719 293.65625 C 216.871094 293.65625 209.15625 285.941406 209.15625 276.425781 L 209.15625 244.539062 C 209.15625 235.023438 216.871094 227.308594 226.386719 227.308594 Z M 226.386719 227.308594 " clip-rule="nonzero"/></clipPath></defs><g clip-path="url(#0f6e25dc43)"><path fill="#000000" d="M 232.488281 80.136719 L 287.65625 80.136719 C 294.945312 80.136719 301.558594 83.109375 306.351562 87.921875 C 311.140625 92.722656 314.121094 99.363281 314.121094 106.65625 L 314.121094 178.386719 C 314.121094 185.6875 311.152344 192.316406 306.351562 197.117188 C 301.558594 201.921875 294.933594 204.90625 287.65625 204.90625 L 232.488281 204.90625 C 225.203125 204.90625 218.585938 201.921875 213.792969 197.117188 C 209.003906 192.316406 206.023438 185.6875 206.023438 178.386719 L 206.023438 106.65625 C 206.023438 99.355469 209.003906 92.722656 213.792969 87.921875 C 218.585938 83.121094 225.203125 80.136719 232.488281 80.136719 Z M 106.203125 141.128906 L 161.371094 141.128906 C 165.625 141.128906 169.492188 139.375 172.296875 136.566406 C 175.097656 133.75 176.84375 129.882812 176.84375 125.621094 L 176.84375 106.65625 C 176.84375 102.394531 175.097656 98.515625 172.296875 95.707031 C 169.484375 92.890625 165.613281 91.148438 161.371094 91.148438 L 106.203125 91.148438 C 101.949219 91.148438 98.082031 92.902344 95.277344 95.707031 C 92.464844 98.527344 90.730469 102.394531 90.730469 106.65625 L 90.730469 125.621094 C 90.730469 129.882812 92.476562 133.757812 95.277344 136.566406 C 98.082031 139.375 101.949219 141.128906 106.203125 141.128906 Z M 161.371094 152.140625 L 106.203125 152.140625 C 98.917969 152.140625 92.300781 149.15625 87.507812 144.355469 C 82.71875 139.550781 79.738281 132.910156 79.738281 125.621094 L 79.738281 106.65625 C 79.738281 99.355469 82.707031 92.722656 87.507812 87.921875 C 92.300781 83.121094 98.925781 80.136719 106.203125 80.136719 L 161.371094 80.136719 C 168.65625 80.136719 175.273438 83.121094 180.066406 87.921875 C 184.855469 92.722656 187.835938 99.363281 187.835938 106.65625 L 187.835938 125.621094 C 187.835938 132.921875 184.855469 139.550781 180.066406 144.355469 C 175.273438 149.15625 168.648438 152.140625 161.371094 152.140625 Z M 106.203125 284.078125 L 161.371094 284.078125 C 165.625 284.078125 169.492188 282.328125 172.296875 279.519531 C 175.109375 276.710938 176.84375 272.835938 176.84375 268.570312 L 176.84375 196.84375 C 176.84375 192.582031 175.109375 188.703125 172.296875 185.894531 C 169.484375 183.078125 165.625 181.335938 161.371094 181.335938 L 106.203125 181.335938 C 101.949219 181.335938 98.082031 183.085938 95.277344 185.894531 C 92.464844 188.714844 90.730469 192.582031 90.730469 196.84375 L 90.730469 268.570312 C 90.730469 272.835938 92.476562 276.710938 95.277344 279.519531 C 98.082031 282.339844 101.949219 284.078125 106.203125 284.078125 Z M 161.371094 295.089844 L 106.203125 295.089844 C 98.917969 295.089844 92.300781 292.105469 87.507812 287.304688 C 82.71875 282.503906 79.738281 275.863281 79.738281 268.570312 L 79.738281 196.84375 C 79.738281 189.542969 82.707031 182.910156 87.507812 178.109375 C 92.300781 173.308594 98.925781 170.324219 106.203125 170.324219 L 161.371094 170.324219 C 168.65625 170.324219 175.273438 173.308594 180.066406 178.109375 C 184.855469 182.910156 187.835938 189.542969 187.835938 196.84375 L 187.835938 268.570312 C 187.835938 275.875 184.855469 282.503906 180.066406 287.304688 C 175.273438 292.105469 168.65625 295.089844 161.371094 295.089844 Z M 232.5 223.085938 L 287.667969 223.085938 C 294.953125 223.085938 301.570312 226.070312 306.363281 230.875 C 311.152344 235.675781 314.132812 242.316406 314.132812 249.605469 L 314.132812 268.570312 C 314.132812 275.875 311.152344 282.503906 306.363281 287.304688 C 301.570312 292.105469 294.945312 295.089844 287.667969 295.089844 L 232.5 295.089844 C 225.210938 295.089844 218.597656 292.105469 213.804688 287.304688 C 209.011719 282.492188 206.035156 275.863281 206.035156 268.570312 L 206.035156 249.605469 C 206.035156 242.304688 209.011719 235.675781 213.804688 230.875 C 218.597656 226.070312 225.210938 223.085938 232.5 223.085938 Z M 287.667969 234.101562 L 232.5 234.101562 C 228.246094 234.101562 224.378906 235.851562 221.574219 238.660156 C 218.761719 241.480469 217.023438 245.34375 217.023438 249.605469 L 217.023438 268.570312 C 217.023438 272.835938 218.773438 276.710938 221.574219 279.519531 C 224.386719 282.339844 228.246094 284.078125 232.5 284.078125 L 287.667969 284.078125 C 291.921875 284.078125 295.789062 282.328125 298.59375 279.519531 C 301.40625 276.699219 303.140625 272.835938 303.140625 268.570312 L 303.140625 249.605469 C 303.140625 245.34375 301.394531 241.46875 298.59375 238.660156 C 295.777344 235.851562 291.921875 234.101562 287.667969 234.101562 Z M 287.667969 91.148438 L 232.5 91.148438 C 228.246094 91.148438 224.378906 92.902344 221.574219 95.707031 C 218.761719 98.515625 217.023438 102.394531 217.023438 106.65625 L 217.023438 178.386719 C 217.023438 182.648438 218.773438 186.523438 221.574219 189.332031 C 224.386719 192.152344 228.246094 193.890625 232.5 193.890625 L 287.667969 193.890625 C 291.921875 193.890625 295.789062 192.140625 298.59375 189.332031 C 301.40625 186.511719 303.140625 182.648438 303.140625 178.386719 L 303.140625 106.65625 C 303.140625 102.394531 301.394531 98.515625 298.59375 95.707031 C 295.777344 92.890625 291.921875 91.148438 287.667969 91.148438 Z M 287.667969 91.148438 " fill-opacity="1" fill-rule="nonzero"/></g><g clip-path="url(#a2e54a5ca7)"><path fill="#000000" d="M 230.625 81.324219 L 285.121094 81.324219 C 292.320312 81.324219 298.855469 84.269531 303.589844 89.03125 C 308.320312 93.785156 311.265625 100.363281 311.265625 107.582031 L 311.265625 178.597656 C 311.265625 185.824219 308.332031 192.390625 303.589844 197.144531 C 298.855469 201.898438 292.308594 204.851562 285.121094 204.851562 L 230.625 204.851562 C 223.425781 204.851562 216.890625 201.898438 212.15625 197.144531 C 207.425781 192.390625 204.480469 185.824219 204.480469 178.597656 L 204.480469 107.582031 C 204.480469 100.351562 207.425781 93.785156 212.15625 89.03125 C 216.890625 84.277344 223.425781 81.324219 230.625 81.324219 Z M 105.875 141.710938 L 160.371094 141.710938 C 164.574219 141.710938 168.394531 139.976562 171.164062 137.195312 C 173.933594 134.402344 175.660156 130.578125 175.660156 126.355469 L 175.660156 107.582031 C 175.660156 103.359375 173.933594 99.523438 171.164062 96.742188 C 168.386719 93.949219 164.5625 92.226562 160.371094 92.226562 L 105.875 92.226562 C 101.671875 92.226562 97.851562 93.960938 95.082031 96.742188 C 92.304688 99.53125 90.589844 103.359375 90.589844 107.582031 L 90.589844 126.355469 C 90.589844 130.578125 92.316406 134.414062 95.082031 137.195312 C 97.851562 139.976562 101.671875 141.710938 105.875 141.710938 Z M 160.371094 152.613281 L 105.875 152.613281 C 98.675781 152.613281 92.140625 149.65625 87.40625 144.902344 C 82.675781 140.148438 79.734375 133.574219 79.734375 126.355469 L 79.734375 107.582031 C 79.734375 100.351562 82.664062 93.785156 87.40625 89.03125 C 92.140625 84.277344 98.6875 81.324219 105.875 81.324219 L 160.371094 81.324219 C 167.570312 81.324219 174.105469 84.277344 178.839844 89.03125 C 183.574219 93.785156 186.515625 100.363281 186.515625 107.582031 L 186.515625 126.355469 C 186.515625 133.585938 183.574219 140.148438 178.839844 144.902344 C 174.105469 149.65625 167.558594 152.613281 160.371094 152.613281 Z M 105.875 283.242188 L 160.371094 283.242188 C 164.574219 283.242188 168.394531 281.507812 171.164062 278.726562 C 173.941406 275.945312 175.660156 272.109375 175.660156 267.886719 L 175.660156 196.871094 C 175.660156 192.652344 173.941406 188.8125 171.164062 186.03125 C 168.386719 183.242188 164.574219 181.519531 160.371094 181.519531 L 105.875 181.519531 C 101.671875 181.519531 97.851562 183.253906 95.082031 186.03125 C 92.304688 188.824219 90.589844 192.652344 90.589844 196.871094 L 90.589844 267.886719 C 90.589844 272.109375 92.316406 275.945312 95.082031 278.726562 C 97.851562 281.519531 101.671875 283.242188 105.875 283.242188 Z M 160.371094 294.144531 L 105.875 294.144531 C 98.675781 294.144531 92.140625 291.191406 87.40625 286.433594 C 82.675781 281.679688 79.734375 275.105469 79.734375 267.886719 L 79.734375 196.871094 C 79.734375 189.640625 82.664062 183.078125 87.40625 178.324219 C 92.140625 173.570312 98.6875 170.613281 105.875 170.613281 L 160.371094 170.613281 C 167.570312 170.613281 174.105469 173.570312 178.839844 178.324219 C 183.574219 183.078125 186.515625 189.640625 186.515625 196.871094 L 186.515625 267.886719 C 186.515625 275.117188 183.574219 281.679688 178.839844 286.433594 C 174.105469 291.191406 167.570312 294.144531 160.371094 294.144531 Z M 230.632812 222.855469 L 285.132812 222.855469 C 292.332031 222.855469 298.867188 225.808594 303.597656 230.5625 C 308.332031 235.320312 311.273438 241.894531 311.273438 249.113281 L 311.273438 267.886719 C 311.273438 275.117188 308.332031 281.679688 303.597656 286.433594 C 298.867188 291.191406 292.320312 294.144531 285.132812 294.144531 L 230.632812 294.144531 C 223.4375 294.144531 216.902344 291.191406 212.167969 286.433594 C 207.433594 281.671875 204.492188 275.105469 204.492188 267.886719 L 204.492188 249.113281 C 204.492188 241.882812 207.433594 235.320312 212.167969 230.5625 C 216.902344 225.808594 223.4375 222.855469 230.632812 222.855469 Z M 285.132812 233.757812 L 230.632812 233.757812 C 226.433594 233.757812 222.613281 235.492188 219.84375 238.273438 C 217.0625 241.066406 215.347656 244.890625 215.347656 249.113281 L 215.347656 267.886719 C 215.347656 272.109375 217.074219 275.945312 219.84375 278.726562 C 222.621094 281.519531 226.433594 283.242188 230.632812 283.242188 L 285.132812 283.242188 C 289.335938 283.242188 293.15625 281.507812 295.925781 278.726562 C 298.703125 275.933594 300.417969 272.109375 300.417969 267.886719 L 300.417969 249.113281 C 300.417969 244.890625 298.691406 241.054688 295.925781 238.273438 C 293.144531 235.492188 289.335938 233.757812 285.132812 233.757812 Z M 285.132812 92.226562 L 230.632812 92.226562 C 226.433594 92.226562 222.613281 93.960938 219.84375 96.742188 C 217.0625 99.523438 215.347656 103.359375 215.347656 107.582031 L 215.347656 178.597656 C 215.347656 182.816406 217.074219 186.65625 219.84375 189.433594 C 222.621094 192.226562 226.433594 193.949219 230.632812 193.949219 L 285.132812 193.949219 C 289.335938 193.949219 293.15625 192.214844 295.925781 189.433594 C 298.703125 186.644531 300.417969 182.816406 300.417969 178.597656 L 300.417969 107.582031 C 300.417969 103.359375 298.691406 99.523438 295.925781 96.742188 C 293.144531 93.949219 289.335938 92.226562 285.132812 92.226562 Z M 285.132812 92.226562 " fill-opacity="1" fill-rule="nonzero"/></g><g clip-path="url(#3fdacc6480)"><g clip-path="url(#1eabefe785)"><path fill="#000000" d="M 209.15625 84.574219 L 307.878906 84.574219 L 307.878906 200.652344 L 209.15625 200.652344 Z M 209.15625 84.574219 " fill-opacity="1" fill-rule="nonzero"/></g></g><g clip-path="url(#9bc5465fea)"><g clip-path="url(#b136f44191)"><path fill="#000000" d="M 85.191406 173.027344 L 183.914062 173.027344 L 183.914062 289.101562 L 85.191406 289.101562 Z M 85.191406 173.027344 " fill-opacity="1" fill-rule="nonzero"/></g></g><g clip-path="url(#3bed2921bd)"><g clip-path="url(#982c700026)"><path fill="#000000" d="M 85.191406 81.34375 L 183.929688 81.34375 L 183.929688 147.691406 L 85.191406 147.691406 Z M 85.191406 81.34375 " fill-opacity="1" fill-rule="nonzero"/></g></g><g clip-path="url(#3a939961b0)"><g clip-path="url(#18daf661b0)"><path fill="#000000" d="M 209.15625 227.308594 L 307.894531 227.308594 L 307.894531 293.65625 L 209.15625 293.65625 Z M 209.15625 227.308594 " fill-opacity="1" fill-rule="nonzero"/></g></g></svg>