<svg xmlns="http://www.w3.org/2000/svg" xmlns:xlink="http://www.w3.org/1999/xlink" width="526" zoomAndPan="magnify" viewBox="0 0 394.5 374.999991" height="500" preserveAspectRatio="xMidYMid meet" version="1.0"><defs><clipPath id="828120ea54"><path d="M 79.6875 80.15625 L 314.140625 80.15625 L 314.140625 295.136719 L 79.6875 295.136719 Z M 79.6875 80.15625 " clip-rule="nonzero"/></clipPath></defs><g clip-path="url(#828120ea54)"><path fill="#000000" d="M 232.488281 80.136719 L 287.65625 80.136719 C 294.945312 80.136719 301.558594 83.109375 306.351562 87.921875 C 311.140625 92.722656 314.121094 99.363281 314.121094 106.65625 L 314.121094 178.386719 C 314.121094 185.6875 311.152344 192.316406 306.351562 197.117188 C 301.558594 201.921875 294.933594 204.90625 287.65625 204.90625 L 232.488281 204.90625 C 225.203125 204.90625 218.585938 201.921875 213.792969 197.117188 C 209.003906 192.316406 206.023438 185.6875 206.023438 178.386719 L 206.023438 106.65625 C 206.023438 99.355469 209.003906 92.722656 213.792969 87.921875 C 218.585938 83.121094 225.203125 80.136719 232.488281 80.136719 Z M 106.203125 141.128906 L 161.371094 141.128906 C 165.625 141.128906 169.492188 139.375 172.296875 136.566406 C 175.097656 133.75 176.84375 129.882812 176.84375 125.621094 L 176.84375 106.65625 C 176.84375 102.394531 175.097656 98.515625 172.296875 95.707031 C 169.484375 92.890625 165.613281 91.148438 161.371094 91.148438 L 106.203125 91.148438 C 101.949219 91.148438 98.082031 92.902344 95.277344 95.707031 C 92.464844 98.527344 90.730469 102.394531 90.730469 106.65625 L 90.730469 125.621094 C 90.730469 129.882812 92.476562 133.757812 95.277344 136.566406 C 98.082031 139.375 101.949219 141.128906 106.203125 141.128906 Z M 161.371094 152.140625 L 106.203125 152.140625 C 98.917969 152.140625 92.300781 149.15625 87.507812 144.355469 C 82.71875 139.550781 79.738281 132.910156 79.738281 125.621094 L 79.738281 106.65625 C 79.738281 99.355469 82.707031 92.722656 87.507812 87.921875 C 92.300781 83.121094 98.925781 80.136719 106.203125 80.136719 L 161.371094 80.136719 C 168.65625 80.136719 175.273438 83.121094 180.066406 87.921875 C 184.855469 92.722656 187.835938 99.363281 187.835938 106.65625 L 187.835938 125.621094 C 187.835938 132.921875 184.855469 139.550781 180.066406 144.355469 C 175.273438 149.15625 168.648438 152.140625 161.371094 152.140625 Z M 106.203125 284.078125 L 161.371094 284.078125 C 165.625 284.078125 169.492188 282.328125 172.296875 279.519531 C 175.109375 276.710938 176.84375 272.835938 176.84375 268.570312 L 176.84375 196.84375 C 176.84375 192.582031 175.109375 188.703125 172.296875 185.894531 C 169.484375 183.078125 165.625 181.335938 161.371094 181.335938 L 106.203125 181.335938 C 101.949219 181.335938 98.082031 183.085938 95.277344 185.894531 C 92.464844 188.714844 90.730469 192.582031 90.730469 196.84375 L 90.730469 268.570312 C 90.730469 272.835938 92.476562 276.710938 95.277344 279.519531 C 98.082031 282.339844 101.949219 284.078125 106.203125 284.078125 Z M 161.371094 295.089844 L 106.203125 295.089844 C 98.917969 295.089844 92.300781 292.105469 87.507812 287.304688 C 82.71875 282.503906 79.738281 275.863281 79.738281 268.570312 L 79.738281 196.84375 C 79.738281 189.542969 82.707031 182.910156 87.507812 178.109375 C 92.300781 173.308594 98.925781 170.324219 106.203125 170.324219 L 161.371094 170.324219 C 168.65625 170.324219 175.273438 173.308594 180.066406 178.109375 C 184.855469 182.910156 187.835938 189.542969 187.835938 196.84375 L 187.835938 268.570312 C 187.835938 275.875 184.855469 282.503906 180.066406 287.304688 C 175.273438 292.105469 168.65625 295.089844 161.371094 295.089844 Z M 232.5 223.085938 L 287.667969 223.085938 C 294.953125 223.085938 301.570312 226.070312 306.363281 230.875 C 311.152344 235.675781 314.132812 242.316406 314.132812 249.605469 L 314.132812 268.570312 C 314.132812 275.875 311.152344 282.503906 306.363281 287.304688 C 301.570312 292.105469 294.945312 295.089844 287.667969 295.089844 L 232.5 295.089844 C 225.210938 295.089844 218.597656 292.105469 213.804688 287.304688 C 209.011719 282.492188 206.035156 275.863281 206.035156 268.570312 L 206.035156 249.605469 C 206.035156 242.304688 209.011719 235.675781 213.804688 230.875 C 218.597656 226.070312 225.210938 223.085938 232.5 223.085938 Z M 287.667969 234.101562 L 232.5 234.101562 C 228.246094 234.101562 224.378906 235.851562 221.574219 238.660156 C 218.761719 241.480469 217.023438 245.34375 217.023438 249.605469 L 217.023438 268.570312 C 217.023438 272.835938 218.773438 276.710938 221.574219 279.519531 C 224.386719 282.339844 228.246094 284.078125 232.5 284.078125 L 287.667969 284.078125 C 291.921875 284.078125 295.789062 282.328125 298.59375 279.519531 C 301.40625 276.699219 303.140625 272.835938 303.140625 268.570312 L 303.140625 249.605469 C 303.140625 245.34375 301.394531 241.46875 298.59375 238.660156 C 295.777344 235.851562 291.921875 234.101562 287.667969 234.101562 Z M 287.667969 91.148438 L 232.5 91.148438 C 228.246094 91.148438 224.378906 92.902344 221.574219 95.707031 C 218.761719 98.515625 217.023438 102.394531 217.023438 106.65625 L 217.023438 178.386719 C 217.023438 182.648438 218.773438 186.523438 221.574219 189.332031 C 224.386719 192.152344 228.246094 193.890625 232.5 193.890625 L 287.667969 193.890625 C 291.921875 193.890625 295.789062 192.140625 298.59375 189.332031 C 301.40625 186.511719 303.140625 182.648438 303.140625 178.386719 L 303.140625 106.65625 C 303.140625 102.394531 301.394531 98.515625 298.59375 95.707031 C 295.777344 92.890625 291.921875 91.148438 287.667969 91.148438 Z M 287.667969 91.148438 " fill-opacity="1" fill-rule="nonzero"/></g></svg>