<svg xmlns="http://www.w3.org/2000/svg" xmlns:xlink="http://www.w3.org/1999/xlink" width="526" zoomAndPan="magnify" viewBox="0 0 394.5 374.999991" height="500" preserveAspectRatio="xMidYMid meet" version="1.0"><defs><clipPath id="7d067e5de0"><path d="M 99.117188 109.195312 L 294.621094 109.195312 L 294.621094 162 L 99.117188 162 Z M 99.117188 109.195312 " clip-rule="nonzero"/></clipPath><clipPath id="ec10ee47e5"><path d="M 99.117188 213 L 294.621094 213 L 294.621094 265.746094 L 99.117188 265.746094 Z M 99.117188 213 " clip-rule="nonzero"/></clipPath><clipPath id="dec44b3ab2"><path d="M 99.117188 161 L 294.621094 161 L 294.621094 214 L 99.117188 214 Z M 99.117188 161 " clip-rule="nonzero"/></clipPath></defs><g clip-path="url(#7d067e5de0)"><path fill="#ffffff" d="M 288.351562 128.769531 L 169.96875 128.769531 C 169.617188 127.382812 169.148438 126.03125 168.574219 124.71875 C 167.996094 123.40625 167.3125 122.148438 166.527344 120.949219 C 165.742188 119.75 164.867188 118.625 163.894531 117.570312 C 162.921875 116.515625 161.871094 115.546875 160.738281 114.667969 C 159.605469 113.789062 158.410156 113.007812 157.148438 112.328125 C 155.886719 111.644531 154.578125 111.070312 153.222656 110.605469 C 151.867188 110.140625 150.480469 109.789062 149.066406 109.554688 C 147.652344 109.320312 146.226562 109.199219 144.792969 109.199219 C 143.359375 109.199219 141.9375 109.320312 140.523438 109.554688 C 139.109375 109.789062 137.722656 110.140625 136.367188 110.605469 C 135.011719 111.070312 133.703125 111.644531 132.441406 112.328125 C 131.179688 113.007812 129.984375 113.789062 128.851562 114.667969 C 127.71875 115.546875 126.667969 116.515625 125.695312 117.570312 C 124.722656 118.625 123.84375 119.75 123.058594 120.949219 C 122.273438 122.148438 121.59375 123.40625 121.015625 124.71875 C 120.4375 126.03125 119.972656 127.382812 119.621094 128.769531 L 105.644531 128.769531 C 105.214844 128.769531 104.789062 128.8125 104.371094 128.894531 C 103.949219 128.980469 103.542969 129.101562 103.144531 129.265625 C 102.75 129.429688 102.375 129.632812 102.015625 129.871094 C 101.660156 130.109375 101.332031 130.378906 101.027344 130.683594 C 100.726562 130.984375 100.457031 131.316406 100.21875 131.671875 C 99.980469 132.027344 99.777344 132.402344 99.613281 132.800781 C 99.449219 133.195312 99.328125 133.601562 99.242188 134.023438 C 99.160156 134.441406 99.117188 134.867188 99.117188 135.296875 C 99.117188 135.722656 99.160156 136.148438 99.242188 136.570312 C 99.328125 136.988281 99.449219 137.398438 99.613281 137.792969 C 99.777344 138.1875 99.980469 138.566406 100.21875 138.921875 C 100.457031 139.277344 100.726562 139.605469 101.027344 139.910156 C 101.332031 140.214844 101.660156 140.484375 102.015625 140.722656 C 102.375 140.960938 102.75 141.160156 103.144531 141.324219 C 103.542969 141.488281 103.949219 141.613281 104.371094 141.695312 C 104.789062 141.78125 105.214844 141.820312 105.644531 141.820312 L 119.621094 141.820312 C 119.972656 143.210938 120.4375 144.5625 121.015625 145.875 C 121.59375 147.1875 122.273438 148.441406 123.058594 149.640625 C 123.84375 150.839844 124.722656 151.96875 125.695312 153.023438 C 126.667969 154.078125 127.71875 155.042969 128.851562 155.921875 C 129.984375 156.804688 131.179688 157.585938 132.441406 158.265625 C 133.703125 158.949219 135.011719 159.519531 136.367188 159.984375 C 137.722656 160.453125 139.109375 160.800781 140.523438 161.039062 C 141.9375 161.273438 143.359375 161.390625 144.792969 161.390625 C 146.226562 161.390625 147.652344 161.273438 149.066406 161.039062 C 150.480469 160.800781 151.867188 160.453125 153.222656 159.984375 C 154.578125 159.519531 155.886719 158.949219 157.148438 158.265625 C 158.410156 157.585938 159.605469 156.804688 160.738281 155.921875 C 161.871094 155.042969 162.921875 154.078125 163.894531 153.023438 C 164.867188 151.96875 165.742188 150.839844 166.527344 149.640625 C 167.3125 148.441406 167.996094 147.1875 168.574219 145.875 C 169.148438 144.5625 169.617188 143.210938 169.96875 141.820312 L 288.351562 141.820312 C 288.78125 141.820312 289.203125 141.78125 289.625 141.695312 C 290.046875 141.613281 290.453125 141.488281 290.847656 141.324219 C 291.246094 141.160156 291.621094 140.960938 291.976562 140.722656 C 292.332031 140.484375 292.664062 140.214844 292.964844 139.910156 C 293.269531 139.605469 293.539062 139.277344 293.777344 138.921875 C 294.015625 138.566406 294.214844 138.1875 294.378906 137.792969 C 294.542969 137.398438 294.667969 136.988281 294.75 136.570312 C 294.835938 136.148438 294.878906 135.722656 294.878906 135.296875 C 294.878906 134.867188 294.835938 134.441406 294.75 134.023438 C 294.667969 133.601562 294.542969 133.195312 294.378906 132.800781 C 294.214844 132.402344 294.015625 132.027344 293.777344 131.671875 C 293.539062 131.316406 293.269531 130.984375 292.964844 130.683594 C 292.664062 130.378906 292.332031 130.109375 291.976562 129.871094 C 291.621094 129.632812 291.246094 129.429688 290.847656 129.265625 C 290.453125 129.101562 290.046875 128.980469 289.625 128.894531 C 289.203125 128.8125 288.78125 128.769531 288.351562 128.769531 Z M 144.792969 148.347656 C 143.9375 148.347656 143.089844 148.261719 142.25 148.097656 C 141.40625 147.929688 140.59375 147.679688 139.800781 147.351562 C 139.007812 147.023438 138.257812 146.625 137.542969 146.148438 C 136.832031 145.671875 136.171875 145.128906 135.566406 144.523438 C 134.960938 143.917969 134.417969 143.257812 133.945312 142.546875 C 133.46875 141.835938 133.066406 141.082031 132.738281 140.289062 C 132.410156 139.5 132.160156 138.683594 131.996094 137.84375 C 131.828125 137 131.742188 136.152344 131.742188 135.296875 C 131.742188 134.4375 131.828125 133.589844 131.996094 132.75 C 132.160156 131.910156 132.410156 131.09375 132.738281 130.300781 C 133.066406 129.511719 133.46875 128.757812 133.945312 128.046875 C 134.417969 127.332031 134.960938 126.671875 135.566406 126.066406 C 136.171875 125.460938 136.832031 124.921875 137.542969 124.445312 C 138.257812 123.96875 139.007812 123.566406 139.800781 123.238281 C 140.59375 122.910156 141.40625 122.664062 142.25 122.496094 C 143.089844 122.328125 143.9375 122.246094 144.792969 122.246094 C 145.652344 122.246094 146.5 122.328125 147.339844 122.496094 C 148.179688 122.664062 148.996094 122.910156 149.789062 123.238281 C 150.582031 123.566406 151.332031 123.96875 152.046875 124.445312 C 152.757812 124.921875 153.417969 125.460938 154.023438 126.066406 C 154.628906 126.671875 155.167969 127.332031 155.644531 128.046875 C 156.121094 128.757812 156.523438 129.511719 156.851562 130.300781 C 157.179688 131.09375 157.425781 131.910156 157.59375 132.75 C 157.761719 133.589844 157.84375 134.4375 157.84375 135.296875 C 157.84375 136.152344 157.761719 137 157.59375 137.84375 C 157.425781 138.683594 157.179688 139.5 156.851562 140.289062 C 156.523438 141.082031 156.121094 141.835938 155.644531 142.546875 C 155.167969 143.257812 154.628906 143.917969 154.023438 144.523438 C 153.417969 145.128906 152.757812 145.671875 152.046875 146.148438 C 151.332031 146.625 150.582031 147.023438 149.789062 147.351562 C 148.996094 147.679688 148.179688 147.929688 147.339844 148.097656 C 146.5 148.261719 145.652344 148.347656 144.792969 148.347656 Z M 144.792969 148.347656 " fill-opacity="1" fill-rule="nonzero"/></g><g clip-path="url(#ec10ee47e5)"><path fill="#ffffff" d="M 288.351562 233.175781 L 202.597656 233.175781 C 202.242188 231.785156 201.777344 230.4375 201.199219 229.125 C 200.621094 227.8125 199.941406 226.554688 199.15625 225.355469 C 198.371094 224.15625 197.492188 223.027344 196.519531 221.976562 C 195.546875 220.921875 194.496094 219.953125 193.363281 219.074219 C 192.234375 218.195312 191.035156 217.414062 189.773438 216.730469 C 188.511719 216.050781 187.203125 215.476562 185.847656 215.011719 C 184.492188 214.546875 183.105469 214.195312 181.691406 213.960938 C 180.277344 213.722656 178.855469 213.605469 177.421875 213.605469 C 175.988281 213.605469 174.5625 213.722656 173.148438 213.960938 C 171.734375 214.195312 170.351562 214.546875 168.992188 215.011719 C 167.636719 215.476562 166.328125 216.050781 165.066406 216.730469 C 163.804688 217.414062 162.609375 218.195312 161.476562 219.074219 C 160.347656 219.953125 159.292969 220.921875 158.324219 221.976562 C 157.351562 223.027344 156.472656 224.15625 155.6875 225.355469 C 154.902344 226.554688 154.21875 227.8125 153.644531 229.125 C 153.066406 230.4375 152.601562 231.785156 152.246094 233.175781 L 105.644531 233.175781 C 105.214844 233.175781 104.789062 233.21875 104.371094 233.300781 C 103.949219 233.386719 103.542969 233.507812 103.144531 233.671875 C 102.75 233.835938 102.375 234.039062 102.015625 234.277344 C 101.660156 234.511719 101.332031 234.785156 101.027344 235.085938 C 100.726562 235.390625 100.457031 235.71875 100.21875 236.074219 C 99.980469 236.433594 99.777344 236.808594 99.613281 237.203125 C 99.449219 237.601562 99.328125 238.007812 99.242188 238.429688 C 99.160156 238.847656 99.117188 239.273438 99.117188 239.703125 C 99.117188 240.128906 99.160156 240.554688 99.242188 240.972656 C 99.328125 241.394531 99.449219 241.800781 99.613281 242.199219 C 99.777344 242.59375 99.980469 242.96875 100.21875 243.328125 C 100.457031 243.683594 100.726562 244.011719 101.027344 244.316406 C 101.332031 244.617188 101.660156 244.890625 102.015625 245.125 C 102.375 245.363281 102.75 245.566406 103.144531 245.730469 C 103.542969 245.894531 103.949219 246.019531 104.371094 246.101562 C 104.789062 246.183594 105.214844 246.226562 105.644531 246.226562 L 152.246094 246.226562 C 152.601562 247.617188 153.066406 248.96875 153.644531 250.277344 C 154.21875 251.589844 154.902344 252.847656 155.6875 254.046875 C 156.472656 255.246094 157.351562 256.375 158.324219 257.425781 C 159.292969 258.480469 160.347656 259.449219 161.476562 260.328125 C 162.609375 261.207031 163.804688 261.988281 165.066406 262.671875 C 166.328125 263.351562 167.636719 263.925781 168.992188 264.390625 C 170.351562 264.855469 171.734375 265.207031 173.148438 265.441406 C 174.5625 265.679688 175.988281 265.796875 177.421875 265.796875 C 178.855469 265.796875 180.277344 265.679688 181.691406 265.441406 C 183.105469 265.207031 184.492188 264.855469 185.847656 264.390625 C 187.203125 263.925781 188.511719 263.351562 189.773438 262.671875 C 191.035156 261.988281 192.234375 261.207031 193.363281 260.328125 C 194.496094 259.449219 195.546875 258.480469 196.519531 257.425781 C 197.492188 256.375 198.371094 255.246094 199.15625 254.046875 C 199.941406 252.847656 200.621094 251.589844 201.199219 250.277344 C 201.777344 248.96875 202.242188 247.617188 202.597656 246.226562 L 288.351562 246.226562 C 288.78125 246.226562 289.203125 246.183594 289.625 246.101562 C 290.046875 246.019531 290.453125 245.894531 290.847656 245.730469 C 291.246094 245.566406 291.621094 245.363281 291.976562 245.125 C 292.332031 244.890625 292.664062 244.617188 292.964844 244.316406 C 293.269531 244.011719 293.539062 243.683594 293.777344 243.328125 C 294.015625 242.96875 294.214844 242.59375 294.378906 242.199219 C 294.542969 241.800781 294.667969 241.394531 294.75 240.972656 C 294.835938 240.554688 294.878906 240.128906 294.878906 239.703125 C 294.878906 239.273438 294.835938 238.847656 294.75 238.429688 C 294.667969 238.007812 294.542969 237.601562 294.378906 237.203125 C 294.214844 236.808594 294.015625 236.433594 293.777344 236.074219 C 293.539062 235.71875 293.269531 235.390625 292.964844 235.085938 C 292.664062 234.785156 292.332031 234.511719 291.976562 234.277344 C 291.621094 234.039062 291.246094 233.835938 290.847656 233.671875 C 290.453125 233.507812 290.046875 233.386719 289.625 233.300781 C 289.203125 233.21875 288.78125 233.175781 288.351562 233.175781 Z M 177.421875 252.75 C 176.5625 252.75 175.714844 252.667969 174.875 252.5 C 174.035156 252.332031 173.21875 252.085938 172.425781 251.757812 C 171.636719 251.429688 170.882812 251.027344 170.171875 250.550781 C 169.457031 250.078125 168.800781 249.535156 168.191406 248.929688 C 167.585938 248.324219 167.046875 247.664062 166.570312 246.953125 C 166.09375 246.238281 165.691406 245.488281 165.363281 244.695312 C 165.035156 243.902344 164.789062 243.085938 164.621094 242.246094 C 164.453125 241.40625 164.371094 240.558594 164.371094 239.703125 C 164.371094 238.84375 164.453125 237.996094 164.621094 237.15625 C 164.789062 236.316406 165.035156 235.5 165.363281 234.707031 C 165.691406 233.914062 166.09375 233.164062 166.570312 232.449219 C 167.046875 231.738281 167.585938 231.078125 168.191406 230.472656 C 168.800781 229.867188 169.457031 229.324219 170.171875 228.851562 C 170.882812 228.375 171.636719 227.972656 172.425781 227.644531 C 173.21875 227.316406 174.035156 227.070312 174.875 226.902344 C 175.714844 226.734375 176.5625 226.652344 177.421875 226.652344 C 178.277344 226.652344 179.125 226.734375 179.96875 226.902344 C 180.808594 227.070312 181.625 227.316406 182.414062 227.644531 C 183.207031 227.972656 183.960938 228.375 184.671875 228.851562 C 185.382812 229.324219 186.042969 229.867188 186.648438 230.472656 C 187.253906 231.078125 187.796875 231.738281 188.273438 232.449219 C 188.75 233.164062 189.152344 233.914062 189.476562 234.707031 C 189.804688 235.5 190.054688 236.316406 190.222656 237.15625 C 190.386719 237.996094 190.472656 238.84375 190.472656 239.703125 C 190.472656 240.558594 190.386719 241.40625 190.222656 242.246094 C 190.054688 243.085938 189.804688 243.902344 189.476562 244.695312 C 189.152344 245.488281 188.75 246.238281 188.273438 246.953125 C 187.796875 247.664062 187.253906 248.324219 186.648438 248.929688 C 186.042969 249.535156 185.382812 250.078125 184.671875 250.550781 C 183.960938 251.027344 183.207031 251.429688 182.414062 251.757812 C 181.625 252.085938 180.808594 252.332031 179.96875 252.5 C 179.125 252.667969 178.277344 252.75 177.421875 252.75 Z M 177.421875 252.75 " fill-opacity="1" fill-rule="nonzero"/></g><g clip-path="url(#dec44b3ab2)"><path fill="#ffffff" d="M 288.351562 180.972656 L 280.898438 180.972656 C 280.546875 179.582031 280.082031 178.234375 279.503906 176.921875 C 278.925781 175.609375 278.246094 174.351562 277.460938 173.152344 C 276.675781 171.953125 275.796875 170.828125 274.824219 169.773438 C 273.851562 168.71875 272.800781 167.75 271.667969 166.871094 C 270.535156 165.992188 269.339844 165.210938 268.078125 164.527344 C 266.816406 163.847656 265.507812 163.273438 264.152344 162.808594 C 262.796875 162.34375 261.410156 161.992188 259.996094 161.757812 C 258.582031 161.519531 257.160156 161.402344 255.726562 161.402344 C 254.292969 161.402344 252.867188 161.519531 251.453125 161.757812 C 250.039062 161.992188 248.652344 162.34375 247.296875 162.808594 C 245.941406 163.273438 244.632812 163.847656 243.371094 164.527344 C 242.109375 165.210938 240.914062 165.992188 239.78125 166.871094 C 238.648438 167.75 237.597656 168.71875 236.625 169.773438 C 235.65625 170.828125 234.777344 171.953125 233.992188 173.152344 C 233.207031 174.351562 232.523438 175.609375 231.945312 176.921875 C 231.371094 178.234375 230.902344 179.582031 230.550781 180.972656 L 105.644531 180.972656 C 105.214844 180.972656 104.789062 181.015625 104.371094 181.097656 C 103.949219 181.183594 103.542969 181.304688 103.144531 181.46875 C 102.75 181.632812 102.375 181.835938 102.015625 182.074219 C 101.660156 182.3125 101.332031 182.582031 101.027344 182.882812 C 100.726562 183.1875 100.457031 183.515625 100.21875 183.875 C 99.980469 184.230469 99.777344 184.605469 99.613281 185 C 99.449219 185.398438 99.328125 185.804688 99.242188 186.226562 C 99.160156 186.644531 99.117188 187.070312 99.117188 187.5 C 99.117188 187.925781 99.160156 188.351562 99.242188 188.773438 C 99.328125 189.191406 99.449219 189.601562 99.613281 189.996094 C 99.777344 190.390625 99.980469 190.769531 100.21875 191.125 C 100.457031 191.480469 100.726562 191.808594 101.027344 192.113281 C 101.332031 192.414062 101.660156 192.6875 102.015625 192.925781 C 102.375 193.164062 102.75 193.363281 103.144531 193.527344 C 103.542969 193.691406 103.949219 193.816406 104.371094 193.898438 C 104.789062 193.980469 105.214844 194.023438 105.644531 194.023438 L 230.550781 194.023438 C 230.902344 195.414062 231.371094 196.765625 231.945312 198.078125 C 232.523438 199.390625 233.207031 200.644531 233.992188 201.84375 C 234.777344 203.042969 235.65625 204.171875 236.625 205.226562 C 237.597656 206.277344 238.648438 207.246094 239.78125 208.125 C 240.914062 209.003906 242.109375 209.785156 243.371094 210.46875 C 244.632812 211.148438 245.941406 211.722656 247.296875 212.1875 C 248.652344 212.652344 250.039062 213.003906 251.453125 213.238281 C 252.867188 213.476562 254.292969 213.59375 255.726562 213.59375 C 257.160156 213.59375 258.582031 213.476562 259.996094 213.238281 C 261.410156 213.003906 262.796875 212.652344 264.152344 212.1875 C 265.507812 211.722656 266.816406 211.148438 268.078125 210.46875 C 269.339844 209.785156 270.535156 209.003906 271.667969 208.125 C 272.800781 207.246094 273.851562 206.277344 274.824219 205.226562 C 275.796875 204.171875 276.675781 203.042969 277.460938 201.84375 C 278.246094 200.644531 278.925781 199.390625 279.503906 198.078125 C 280.082031 196.765625 280.546875 195.414062 280.898438 194.023438 L 288.351562 194.023438 C 288.78125 194.023438 289.203125 193.980469 289.625 193.898438 C 290.046875 193.816406 290.453125 193.691406 290.847656 193.527344 C 291.246094 193.363281 291.621094 193.164062 291.976562 192.925781 C 292.332031 192.6875 292.664062 192.414062 292.964844 192.113281 C 293.269531 191.808594 293.539062 191.480469 293.777344 191.125 C 294.015625 190.769531 294.214844 190.390625 294.378906 189.996094 C 294.542969 189.601562 294.667969 189.191406 294.75 188.773438 C 294.835938 188.351562 294.878906 187.925781 294.878906 187.5 C 294.878906 187.070312 294.835938 186.644531 294.75 186.226562 C 294.667969 185.804688 294.542969 185.398438 294.378906 185 C 294.214844 184.605469 294.015625 184.230469 293.777344 183.875 C 293.539062 183.515625 293.269531 183.1875 292.964844 182.882812 C 292.664062 182.582031 292.332031 182.3125 291.976562 182.074219 C 291.621094 181.835938 291.246094 181.632812 290.847656 181.46875 C 290.453125 181.304688 290.046875 181.183594 289.625 181.097656 C 289.203125 181.015625 288.78125 180.972656 288.351562 180.972656 Z M 255.726562 200.550781 C 254.867188 200.550781 254.019531 200.464844 253.179688 200.296875 C 252.339844 200.132812 251.523438 199.882812 250.730469 199.554688 C 249.9375 199.226562 249.1875 198.824219 248.472656 198.351562 C 247.761719 197.875 247.101562 197.332031 246.496094 196.726562 C 245.890625 196.121094 245.351562 195.460938 244.875 194.75 C 244.398438 194.035156 243.996094 193.285156 243.667969 192.492188 C 243.339844 191.703125 243.09375 190.886719 242.925781 190.042969 C 242.757812 189.203125 242.675781 188.355469 242.675781 187.5 C 242.675781 186.640625 242.757812 185.792969 242.925781 184.953125 C 243.09375 184.113281 243.339844 183.296875 243.667969 182.503906 C 243.996094 181.710938 244.398438 180.960938 244.875 180.25 C 245.351562 179.535156 245.890625 178.875 246.496094 178.269531 C 247.101562 177.664062 247.761719 177.125 248.472656 176.648438 C 249.1875 176.171875 249.9375 175.769531 250.730469 175.441406 C 251.523438 175.113281 252.339844 174.867188 253.179688 174.699219 C 254.019531 174.53125 254.867188 174.449219 255.726562 174.449219 C 256.582031 174.449219 257.429688 174.53125 258.269531 174.699219 C 259.113281 174.867188 259.925781 175.113281 260.71875 175.441406 C 261.511719 175.769531 262.261719 176.171875 262.976562 176.648438 C 263.6875 177.125 264.347656 177.664062 264.953125 178.269531 C 265.558594 178.875 266.101562 179.535156 266.578125 180.25 C 267.050781 180.960938 267.453125 181.710938 267.78125 182.503906 C 268.109375 183.296875 268.359375 184.113281 268.523438 184.953125 C 268.691406 185.792969 268.777344 186.640625 268.777344 187.5 C 268.777344 188.355469 268.691406 189.203125 268.523438 190.042969 C 268.359375 190.886719 268.109375 191.703125 267.78125 192.492188 C 267.453125 193.285156 267.050781 194.035156 266.578125 194.75 C 266.101562 195.460938 265.558594 196.121094 264.953125 196.726562 C 264.347656 197.332031 263.6875 197.875 262.976562 198.351562 C 262.261719 198.824219 261.511719 199.226562 260.71875 199.554688 C 259.925781 199.882812 259.113281 200.132812 258.269531 200.296875 C 257.429688 200.464844 256.582031 200.550781 255.726562 200.550781 Z M 255.726562 200.550781 " fill-opacity="1" fill-rule="nonzero"/></g></svg>