<svg xmlns="http://www.w3.org/2000/svg" xmlns:xlink="http://www.w3.org/1999/xlink" width="526" zoomAndPan="magnify" viewBox="0 0 394.5 374.999991" height="500" preserveAspectRatio="xMidYMid meet" version="1.0"><defs><clipPath id="bf4905bd41"><path d="M 66.257812 60 L 327.679688 60 L 327.679688 317 L 66.257812 317 Z M 66.257812 60 " clip-rule="nonzero"/></clipPath></defs><g clip-path="url(#bf4905bd41)"><path fill="#000000" d="M 204.21875 89.066406 C 199.828125 86.136719 194.109375 86.136719 189.71875 89.066406 L 98.222656 150.0625 C 94.585938 152.488281 92.402344 156.570312 92.402344 160.941406 L 92.402344 277.65625 C 92.402344 284.875 98.253906 290.730469 105.472656 290.730469 L 144.683594 290.730469 L 144.683594 238.445312 C 144.683594 216.789062 162.242188 199.230469 183.898438 199.230469 L 210.039062 199.230469 C 231.695312 199.230469 249.253906 216.789062 249.253906 238.445312 L 249.253906 290.730469 L 288.464844 290.730469 C 295.683594 290.730469 301.535156 284.875 301.535156 277.65625 L 301.535156 160.941406 C 301.535156 156.570312 299.351562 152.488281 295.714844 150.0625 Z M 175.21875 67.3125 C 188.390625 58.535156 205.546875 58.535156 218.71875 67.3125 L 310.214844 128.3125 C 321.125 135.585938 327.679688 147.828125 327.679688 160.941406 L 327.679688 277.65625 C 327.679688 299.3125 310.121094 316.871094 288.464844 316.871094 L 236.179688 316.871094 C 228.960938 316.871094 223.109375 311.019531 223.109375 303.800781 L 223.109375 238.445312 C 223.109375 231.226562 217.257812 225.375 210.039062 225.375 L 183.898438 225.375 C 176.679688 225.375 170.828125 231.226562 170.828125 238.445312 L 170.828125 303.800781 C 170.828125 311.019531 164.976562 316.871094 157.757812 316.871094 L 105.472656 316.871094 C 83.816406 316.871094 66.257812 299.3125 66.257812 277.65625 L 66.257812 160.941406 C 66.257812 147.828125 72.8125 135.585938 83.722656 128.3125 Z M 175.21875 67.3125 " fill-opacity="1" fill-rule="evenodd"/></g></svg>