<svg xmlns="http://www.w3.org/2000/svg" xmlns:xlink="http://www.w3.org/1999/xlink" width="526" zoomAndPan="magnify" viewBox="0 0 394.5 374.999991" height="500" preserveAspectRatio="xMidYMid meet" version="1.0"><defs><clipPath id="03b95d7cb7"><path d="M 67 59 L 327 59 L 327 318.175781 L 67 318.175781 Z M 67 59 " clip-rule="nonzero"/></clipPath></defs><g clip-path="url(#03b95d7cb7)"><path fill="#000000" d="M 309.171875 127.859375 L 218.582031 66.140625 C 217.003906 65.042969 215.355469 64.070312 213.632812 63.222656 C 211.90625 62.375 210.128906 61.664062 208.296875 61.085938 C 206.464844 60.511719 204.597656 60.078125 202.699219 59.785156 C 200.800781 59.496094 198.890625 59.347656 196.96875 59.347656 C 195.046875 59.347656 193.136719 59.496094 191.238281 59.785156 C 189.339844 60.078125 187.472656 60.511719 185.640625 61.085938 C 183.808594 61.664062 182.03125 62.375 180.304688 63.222656 C 178.582031 64.070312 176.933594 65.042969 175.355469 66.140625 L 84.765625 127.859375 C 83.441406 128.765625 82.179688 129.75 80.972656 130.8125 C 79.769531 131.875 78.632812 133.003906 77.566406 134.203125 C 76.5 135.402344 75.511719 136.664062 74.597656 137.980469 C 73.683594 139.300781 72.851562 140.671875 72.105469 142.09375 C 71.359375 143.511719 70.699219 144.972656 70.132812 146.472656 C 69.5625 147.976562 69.085938 149.503906 68.703125 151.0625 C 68.316406 152.621094 68.03125 154.199219 67.839844 155.792969 C 67.644531 157.382812 67.550781 158.984375 67.554688 160.589844 L 67.554688 278.71875 C 67.546875 280 67.601562 281.277344 67.71875 282.554688 C 67.835938 283.828125 68.015625 285.097656 68.257812 286.355469 C 68.5 287.613281 68.804688 288.855469 69.167969 290.085938 C 69.53125 291.3125 69.957031 292.519531 70.4375 293.707031 C 70.917969 294.894531 71.457031 296.054688 72.054688 297.1875 C 72.648438 298.324219 73.300781 299.425781 74.003906 300.496094 C 74.707031 301.566406 75.460938 302.601562 76.265625 303.597656 C 77.070312 304.59375 77.921875 305.546875 78.820312 306.460938 C 79.71875 307.375 80.660156 308.242188 81.644531 309.0625 C 82.628906 309.882812 83.648438 310.65625 84.707031 311.375 C 85.765625 312.097656 86.859375 312.765625 87.984375 313.378906 C 89.109375 313.992188 90.257812 314.550781 91.4375 315.050781 C 92.617188 315.554688 93.816406 315.996094 95.039062 316.378906 C 96.261719 316.761719 97.5 317.085938 98.753906 317.347656 C 100.007812 317.609375 101.273438 317.8125 102.546875 317.949219 C 103.820312 318.089844 105.097656 318.164062 106.378906 318.175781 L 158.144531 318.175781 L 158.144531 240.527344 C 158.144531 239.679688 158.226562 238.835938 158.394531 238.003906 C 158.558594 237.171875 158.804688 236.359375 159.128906 235.574219 C 159.453125 234.792969 159.851562 234.046875 160.324219 233.339844 C 160.796875 232.632812 161.332031 231.976562 161.933594 231.378906 C 162.535156 230.777344 163.1875 230.242188 163.894531 229.769531 C 164.601562 229.296875 165.347656 228.898438 166.132812 228.570312 C 166.917969 228.246094 167.726562 228 168.5625 227.835938 C 169.394531 227.671875 170.234375 227.585938 171.085938 227.585938 L 222.851562 227.585938 C 223.703125 227.585938 224.542969 227.671875 225.375 227.835938 C 226.210938 228 227.019531 228.246094 227.804688 228.570312 C 228.589844 228.898438 229.335938 229.296875 230.042969 229.769531 C 230.75 230.238281 231.402344 230.777344 232.003906 231.378906 C 232.605469 231.976562 233.140625 232.632812 233.613281 233.339844 C 234.085938 234.046875 234.484375 234.792969 234.808594 235.574219 C 235.132812 236.359375 235.378906 237.171875 235.542969 238.003906 C 235.710938 238.835938 235.792969 239.679688 235.792969 240.527344 L 235.792969 318.175781 L 287.558594 318.175781 C 288.839844 318.164062 290.117188 318.089844 291.390625 317.949219 C 292.664062 317.8125 293.929688 317.609375 295.183594 317.347656 C 296.4375 317.085938 297.675781 316.761719 298.898438 316.378906 C 300.121094 315.996094 301.320312 315.554688 302.5 315.050781 C 303.679688 314.550781 304.828125 313.992188 305.953125 313.378906 C 307.078125 312.765625 308.171875 312.097656 309.230469 311.375 C 310.289062 310.65625 311.308594 309.882812 312.292969 309.0625 C 313.277344 308.242188 314.21875 307.375 315.117188 306.460938 C 316.015625 305.546875 316.867188 304.59375 317.671875 303.597656 C 318.476562 302.601562 319.230469 301.566406 319.933594 300.496094 C 320.636719 299.425781 321.289062 298.324219 321.882812 297.1875 C 322.480469 296.054688 323.019531 294.894531 323.5 293.707031 C 323.980469 292.519531 324.40625 291.3125 324.769531 290.085938 C 325.132812 288.855469 325.4375 287.613281 325.679688 286.355469 C 325.917969 285.097656 326.101562 283.828125 326.21875 282.554688 C 326.335938 281.277344 326.390625 280 326.382812 278.71875 L 326.382812 160.589844 C 326.386719 158.984375 326.292969 157.382812 326.097656 155.792969 C 325.90625 154.199219 325.621094 152.621094 325.234375 151.0625 C 324.851562 149.503906 324.375 147.976562 323.804688 146.472656 C 323.238281 144.972656 322.578125 143.511719 321.832031 142.09375 C 321.085938 140.671875 320.253906 139.300781 319.339844 137.980469 C 318.425781 136.664062 317.4375 135.402344 316.371094 134.203125 C 315.304688 133.003906 314.167969 131.875 312.964844 130.8125 C 311.757812 129.75 310.496094 128.765625 309.171875 127.859375 Z M 309.171875 127.859375 " fill-opacity="1" fill-rule="nonzero"/></g></svg>