<svg xmlns="http://www.w3.org/2000/svg" xmlns:xlink="http://www.w3.org/1999/xlink" width="526" zoomAndPan="magnify" viewBox="0 0 394.5 374.999991" height="500" preserveAspectRatio="xMidYMid meet" version="1.0"><defs><clipPath id="a350787e4d"><path d="M 124.671875 112.59375 L 269.238281 112.59375 L 269.238281 262.40625 L 124.671875 262.40625 Z M 124.671875 112.59375 " clip-rule="nonzero"/></clipPath></defs><g clip-path="url(#a350787e4d)"><path fill="#000000" d="M 269.199219 180.769531 L 269.199219 240.164062 C 269.199219 252.449219 259.25 262.40625 246.972656 262.40625 L 224.746094 262.40625 C 215.574219 262.40625 208.078125 254.953125 208.078125 245.777344 L 208.078125 234.601562 C 208.078125 231.542969 205.570312 229.097656 202.519531 229.097656 L 191.398438 229.097656 C 188.34375 229.097656 185.839844 231.542969 185.839844 234.601562 L 185.839844 245.777344 C 185.839844 254.953125 178.335938 262.40625 169.171875 262.40625 L 146.933594 262.40625 C 134.65625 262.40625 124.707031 252.449219 124.707031 240.164062 L 124.707031 180.769531 C 124.707031 174.597656 127.320312 168.59375 131.933594 164.417969 L 181.945312 118.546875 C 186.230469 114.59375 191.617188 112.59375 196.957031 112.59375 C 202.296875 112.59375 207.6875 114.59375 211.960938 118.546875 L 261.972656 164.429688 C 266.585938 168.59375 269.199219 174.597656 269.199219 180.769531 Z M 269.199219 180.769531 " fill-opacity="1" fill-rule="nonzero"/></g></svg>