<svg xmlns="http://www.w3.org/2000/svg" xmlns:xlink="http://www.w3.org/1999/xlink" width="526" zoomAndPan="magnify" viewBox="0 0 394.5 374.999991" height="500" preserveAspectRatio="xMidYMid meet" version="1.0"><defs><clipPath id="8106d300bd"><path d="M 122.09375 114 L 271.90625 114 L 271.90625 262 L 122.09375 262 Z M 122.09375 114 " clip-rule="nonzero"/></clipPath></defs><g clip-path="url(#8106d300bd)"><path fill="#000000" d="M 201.15625 131.109375 C 198.640625 129.429688 195.363281 129.429688 192.84375 131.109375 L 140.410156 166.0625 C 138.328125 167.453125 137.078125 169.792969 137.078125 172.296875 L 137.078125 239.183594 C 137.078125 243.320312 140.429688 246.675781 144.566406 246.675781 L 167.039062 246.675781 L 167.039062 216.714844 C 167.039062 204.300781 177.097656 194.242188 189.511719 194.242188 L 204.492188 194.242188 C 216.902344 194.242188 226.960938 204.300781 226.960938 216.714844 L 226.960938 246.675781 L 249.433594 246.675781 C 253.570312 246.675781 256.925781 243.320312 256.925781 239.183594 L 256.925781 172.296875 C 256.925781 169.792969 255.671875 167.453125 253.589844 166.0625 Z M 184.535156 118.644531 C 192.082031 113.613281 201.917969 113.613281 209.464844 118.644531 L 261.898438 153.597656 C 268.148438 157.765625 271.90625 164.785156 271.90625 172.296875 L 271.90625 239.183594 C 271.90625 251.59375 261.84375 261.65625 249.433594 261.65625 L 219.472656 261.65625 C 215.335938 261.65625 211.980469 258.300781 211.980469 254.164062 L 211.980469 216.714844 C 211.980469 212.574219 208.628906 209.222656 204.492188 209.222656 L 189.511719 209.222656 C 185.371094 209.222656 182.019531 212.574219 182.019531 216.714844 L 182.019531 254.164062 C 182.019531 258.300781 178.664062 261.65625 174.527344 261.65625 L 144.566406 261.65625 C 132.15625 261.65625 122.09375 251.59375 122.09375 239.183594 L 122.09375 172.296875 C 122.09375 164.785156 125.851562 157.765625 132.101562 153.597656 Z M 184.535156 118.644531 " fill-opacity="1" fill-rule="evenodd"/></g></svg>