<svg xmlns="http://www.w3.org/2000/svg" xmlns:xlink="http://www.w3.org/1999/xlink" width="200" zoomAndPan="magnify" viewBox="0 0 150 112.499997" height="150" preserveAspectRatio="xMidYMid meet" version="1.0"><defs><clipPath id="b02f5973f1"><path d="M 58 33.601562 L 92 33.601562 L 92 73 L 58 73 Z M 58 33.601562 " clip-rule="nonzero"/></clipPath><clipPath id="98589468ed"><path d="M 52.597656 67 L 97.402344 67 L 97.402344 78.402344 L 52.597656 78.402344 Z M 52.597656 67 " clip-rule="nonzero"/></clipPath></defs><path fill="#000000" d="M 69.890625 48.019531 C 69.890625 47.878906 69.917969 47.746094 69.972656 47.613281 C 70.027344 47.484375 70.101562 47.371094 70.199219 47.273438 C 70.300781 47.171875 70.414062 47.097656 70.542969 47.042969 C 70.671875 46.988281 70.808594 46.960938 70.949219 46.960938 L 74.335938 46.960938 C 74.589844 46.964844 74.808594 47.050781 75 47.214844 C 75.191406 47.050781 75.410156 46.964844 75.664062 46.960938 L 79.050781 46.960938 C 79.191406 46.960938 79.328125 46.988281 79.457031 47.042969 C 79.585938 47.097656 79.699219 47.171875 79.800781 47.273438 C 79.898438 47.371094 79.972656 47.484375 80.027344 47.617188 C 80.082031 47.746094 80.109375 47.878906 80.109375 48.019531 L 80.109375 50.890625 L 82.46875 50.890625 L 82.46875 44.996094 C 82.464844 44.839844 82.4375 44.691406 82.375 44.546875 C 82.316406 44.402344 82.230469 44.273438 82.121094 44.164062 C 82.011719 44.054688 81.882812 43.96875 81.738281 43.910156 C 81.59375 43.847656 81.445312 43.820312 81.289062 43.820312 L 68.710938 43.820312 C 68.554688 43.820312 68.40625 43.847656 68.261719 43.910156 C 68.117188 43.96875 67.988281 44.054688 67.878906 44.164062 C 67.769531 44.273438 67.683594 44.402344 67.625 44.546875 C 67.5625 44.691406 67.535156 44.839844 67.53125 44.996094 L 67.53125 50.890625 L 69.890625 50.890625 Z M 69.890625 48.019531 " fill-opacity="1" fill-rule="nonzero"/><path fill="#000000" d="M 75.664062 47.75 C 75.589844 47.75 75.527344 47.773438 75.472656 47.828125 C 75.417969 47.878906 75.394531 47.945312 75.394531 48.019531 L 75.394531 50.890625 L 79.324219 50.890625 L 79.324219 48.019531 C 79.324219 47.945312 79.296875 47.878906 79.242188 47.828125 C 79.191406 47.773438 79.125 47.75 79.050781 47.75 Z M 75.664062 47.75 " fill-opacity="1" fill-rule="nonzero"/><path fill="#000000" d="M 70.949219 47.75 C 70.875 47.75 70.808594 47.773438 70.757812 47.828125 C 70.703125 47.878906 70.675781 47.945312 70.675781 48.019531 L 70.675781 50.890625 L 74.605469 50.890625 L 74.605469 48.019531 C 74.605469 47.945312 74.582031 47.878906 74.527344 47.828125 C 74.472656 47.773438 74.410156 47.75 74.335938 47.75 Z M 70.949219 47.75 " fill-opacity="1" fill-rule="nonzero"/><path fill="#000000" d="M 66.746094 57.179688 L 69.105469 57.179688 L 69.105469 55.214844 C 69.105469 55.105469 69.144531 55.015625 69.21875 54.9375 C 69.296875 54.859375 69.390625 54.820312 69.5 54.820312 L 80.5 54.820312 C 80.609375 54.820312 80.703125 54.859375 80.78125 54.9375 C 80.855469 55.015625 80.894531 55.105469 80.894531 55.214844 L 80.894531 57.179688 L 83.253906 57.179688 L 83.253906 51.679688 L 66.746094 51.679688 Z M 66.746094 57.179688 " fill-opacity="1" fill-rule="nonzero"/><g clip-path="url(#b02f5973f1)"><path fill="#000000" d="M 82.015625 65.871094 C 82.75 65.535156 83.453125 65.148438 84.132812 64.714844 C 84.808594 64.277344 85.449219 63.792969 86.058594 63.265625 C 86.667969 62.738281 87.234375 62.171875 87.761719 61.5625 C 88.289062 60.953125 88.773438 60.308594 89.207031 59.632812 C 89.644531 58.953125 90.027344 58.25 90.363281 57.515625 C 90.699219 56.785156 90.980469 56.03125 91.207031 55.257812 C 91.433594 54.484375 91.605469 53.699219 91.722656 52.902344 C 91.839844 52.105469 91.898438 51.304688 91.898438 50.5 C 91.898438 41.179688 84.316406 33.601562 75 33.601562 C 65.683594 33.601562 58.101562 41.179688 58.101562 50.5 C 58.101562 51.304688 58.160156 52.105469 58.277344 52.902344 C 58.394531 53.699219 58.566406 54.484375 58.792969 55.257812 C 59.019531 56.03125 59.300781 56.785156 59.636719 57.515625 C 59.972656 58.25 60.359375 58.953125 60.792969 59.632812 C 61.230469 60.308594 61.710938 60.953125 62.238281 61.5625 C 62.765625 62.171875 63.332031 62.738281 63.941406 63.265625 C 64.550781 63.792969 65.191406 64.277344 65.867188 64.714844 C 66.546875 65.148438 67.25 65.535156 67.984375 65.871094 C 68.027344 65.890625 68.0625 65.917969 68.097656 65.953125 L 74.242188 72.109375 C 74.464844 72.296875 74.722656 72.386719 75.011719 72.386719 C 75.304688 72.382812 75.558594 72.285156 75.777344 72.089844 L 81.902344 65.953125 C 81.9375 65.917969 81.972656 65.890625 82.015625 65.871094 Z M 75 65.039062 C 66.980469 65.039062 60.460938 58.515625 60.460938 50.5 C 60.460938 42.480469 66.980469 35.957031 75 35.957031 C 83.019531 35.957031 89.539062 42.480469 89.539062 50.5 C 89.539062 58.515625 83.019531 65.039062 75 65.039062 Z M 75 65.039062 " fill-opacity="1" fill-rule="nonzero"/></g><path fill="#000000" d="M 75 36.746094 C 67.414062 36.746094 61.246094 42.914062 61.246094 50.5 C 61.246094 58.082031 67.414062 64.253906 75 64.253906 C 82.585938 64.253906 88.753906 58.082031 88.753906 50.5 C 88.753906 42.914062 82.585938 36.746094 75 36.746094 Z M 84.039062 57.574219 C 84.039062 57.679688 84 57.773438 83.921875 57.851562 C 83.847656 57.925781 83.753906 57.964844 83.644531 57.964844 L 80.5 57.964844 C 80.394531 57.964844 80.300781 57.925781 80.222656 57.851562 C 80.148438 57.773438 80.109375 57.679688 80.109375 57.574219 L 80.109375 55.609375 L 69.890625 55.609375 L 69.890625 57.574219 C 69.890625 57.679688 69.851562 57.773438 69.777344 57.851562 C 69.699219 57.925781 69.605469 57.964844 69.5 57.964844 L 66.355469 57.964844 C 66.246094 57.964844 66.152344 57.925781 66.078125 57.851562 C 66 57.773438 65.960938 57.679688 65.960938 57.574219 L 65.960938 51.285156 C 65.960938 51.175781 66 51.085938 66.078125 51.007812 C 66.152344 50.929688 66.246094 50.890625 66.355469 50.890625 L 66.746094 50.890625 L 66.746094 44.996094 C 66.746094 44.738281 66.796875 44.488281 66.898438 44.246094 C 66.996094 44.003906 67.140625 43.792969 67.324219 43.609375 C 67.507812 43.425781 67.71875 43.28125 67.960938 43.183594 C 68.199219 43.082031 68.453125 43.03125 68.710938 43.03125 L 81.289062 43.03125 C 81.546875 43.03125 81.800781 43.082031 82.039062 43.183594 C 82.28125 43.28125 82.492188 43.425781 82.675781 43.609375 C 82.859375 43.792969 83.003906 44.003906 83.101562 44.246094 C 83.203125 44.488281 83.253906 44.738281 83.253906 44.996094 L 83.253906 50.890625 L 83.644531 50.890625 C 83.753906 50.890625 83.847656 50.929688 83.921875 51.007812 C 84 51.085938 84.039062 51.175781 84.039062 51.285156 Z M 84.039062 57.574219 " fill-opacity="1" fill-rule="nonzero"/><g clip-path="url(#98589468ed)"><path fill="#000000" d="M 81.394531 67.570312 L 79.117188 69.851562 C 82.429688 70.015625 91.113281 70.660156 91.113281 72.898438 C 91.113281 75.207031 81.476562 76.042969 75 76.042969 C 68.523438 76.042969 58.886719 75.207031 58.886719 72.898438 C 58.886719 70.660156 67.566406 70.015625 70.882812 69.851562 L 68.601562 67.570312 C 58.285156 68.140625 52.597656 70.03125 52.597656 72.898438 C 52.597656 76.34375 60.972656 78.402344 75 78.402344 C 89.027344 78.402344 97.402344 76.34375 97.402344 72.898438 C 97.402344 70.03125 91.714844 68.140625 81.394531 67.570312 Z M 81.394531 67.570312 " fill-opacity="1" fill-rule="nonzero"/></g><path fill="#000000" d="M 73.707031 72.683594 L 71.632812 70.605469 C 63.1875 70.929688 59.671875 72.253906 59.671875 72.898438 C 59.671875 73.722656 64.9375 75.257812 75 75.257812 C 85.0625 75.257812 90.328125 73.722656 90.328125 72.898438 C 90.328125 72.253906 86.8125 70.929688 78.367188 70.605469 L 76.3125 72.664062 C 76.132812 72.824219 75.933594 72.945312 75.707031 73.03125 C 75.484375 73.121094 75.253906 73.164062 75.011719 73.164062 C 74.773438 73.167969 74.539062 73.125 74.316406 73.042969 C 74.089844 72.960938 73.886719 72.839844 73.707031 72.683594 Z M 73.707031 72.683594 " fill-opacity="1" fill-rule="nonzero"/></svg>