<svg xmlns="http://www.w3.org/2000/svg" xmlns:xlink="http://www.w3.org/1999/xlink" width="526" zoomAndPan="magnify" viewBox="0 0 394.5 374.999991" height="500" preserveAspectRatio="xMidYMid meet" version="1.0"><defs><clipPath id="696648c793"><path d="M 198 112.59375 L 271.90625 112.59375 L 271.90625 186 L 198 186 Z M 198 112.59375 " clip-rule="nonzero"/></clipPath><clipPath id="edebba8bba"><path d="M 122.09375 119 L 188 119 L 188 186 L 122.09375 186 Z M 122.09375 119 " clip-rule="nonzero"/></clipPath><clipPath id="3f5a4a9724"><path d="M 198 196 L 264 196 L 264 262.40625 L 198 262.40625 Z M 198 196 " clip-rule="nonzero"/></clipPath><clipPath id="9585018c3a"><path d="M 122.09375 196 L 188 196 L 188 262.40625 L 122.09375 262.40625 Z M 122.09375 196 " clip-rule="nonzero"/></clipPath></defs><g clip-path="url(#696648c793)"><path fill="#000000" d="M 250.394531 185.195312 L 219.664062 185.195312 C 218.972656 185.195312 218.28125 185.160156 217.59375 185.09375 C 216.90625 185.027344 216.222656 184.925781 215.542969 184.789062 C 214.863281 184.652344 214.191406 184.488281 213.53125 184.285156 C 212.867188 184.085938 212.21875 183.851562 211.578125 183.585938 C 210.941406 183.320312 210.316406 183.027344 209.703125 182.699219 C 209.09375 182.375 208.5 182.019531 207.925781 181.632812 C 207.351562 181.25 206.796875 180.839844 206.261719 180.398438 C 205.726562 179.960938 205.214844 179.496094 204.726562 179.007812 C 204.234375 178.519531 203.769531 178.007812 203.332031 177.472656 C 202.894531 176.9375 202.480469 176.382812 202.097656 175.804688 C 201.714844 175.230469 201.359375 174.636719 201.03125 174.027344 C 200.707031 173.417969 200.410156 172.792969 200.144531 172.152344 C 199.878906 171.515625 199.648438 170.863281 199.445312 170.199219 C 199.246094 169.539062 199.078125 168.867188 198.941406 168.191406 C 198.808594 167.511719 198.707031 166.828125 198.636719 166.140625 C 198.570312 165.449219 198.535156 164.761719 198.535156 164.066406 L 198.535156 133.335938 C 198.535156 132.644531 198.570312 131.957031 198.636719 131.265625 C 198.707031 130.578125 198.808594 129.894531 198.941406 129.214844 C 199.078125 128.539062 199.246094 127.867188 199.445312 127.203125 C 199.648438 126.542969 199.878906 125.890625 200.144531 125.253906 C 200.410156 124.613281 200.707031 123.988281 201.03125 123.378906 C 201.359375 122.769531 201.714844 122.175781 202.097656 121.601562 C 202.480469 121.023438 202.894531 120.46875 203.332031 119.933594 C 203.769531 119.398438 204.234375 118.886719 204.726562 118.398438 C 205.214844 117.910156 205.726562 117.445312 206.261719 117.007812 C 206.796875 116.566406 207.351562 116.15625 207.925781 115.769531 C 208.5 115.386719 209.09375 115.03125 209.703125 114.707031 C 210.316406 114.378906 210.941406 114.082031 211.578125 113.820312 C 212.21875 113.554688 212.867188 113.320312 213.53125 113.121094 C 214.191406 112.917969 214.863281 112.75 215.542969 112.617188 C 216.222656 112.480469 216.90625 112.378906 217.59375 112.3125 C 218.28125 112.246094 218.972656 112.210938 219.664062 112.210938 L 250.394531 112.210938 C 251.085938 112.210938 251.777344 112.246094 252.464844 112.3125 C 253.152344 112.378906 253.835938 112.480469 254.515625 112.617188 C 255.195312 112.75 255.863281 112.917969 256.527344 113.121094 C 257.1875 113.320312 257.839844 113.554688 258.480469 113.820312 C 259.117188 114.082031 259.742188 114.378906 260.351562 114.707031 C 260.964844 115.03125 261.554688 115.386719 262.132812 115.769531 C 262.707031 116.15625 263.261719 116.566406 263.796875 117.007812 C 264.332031 117.445312 264.84375 117.910156 265.332031 118.398438 C 265.824219 118.886719 266.285156 119.398438 266.726562 119.933594 C 267.164062 120.46875 267.578125 121.023438 267.960938 121.601562 C 268.34375 122.175781 268.699219 122.769531 269.027344 123.378906 C 269.351562 123.988281 269.648438 124.613281 269.914062 125.253906 C 270.179688 125.890625 270.410156 126.542969 270.613281 127.203125 C 270.8125 127.867188 270.980469 128.539062 271.117188 129.214844 C 271.25 129.894531 271.351562 130.578125 271.417969 131.265625 C 271.488281 131.957031 271.519531 132.644531 271.519531 133.335938 L 271.519531 164.066406 C 271.519531 164.761719 271.488281 165.449219 271.417969 166.140625 C 271.351562 166.828125 271.25 167.511719 271.117188 168.191406 C 270.980469 168.867188 270.8125 169.539062 270.613281 170.199219 C 270.410156 170.863281 270.179688 171.515625 269.914062 172.152344 C 269.648438 172.792969 269.351562 173.417969 269.027344 174.027344 C 268.699219 174.636719 268.34375 175.230469 267.960938 175.804688 C 267.578125 176.382812 267.164062 176.9375 266.726562 177.472656 C 266.285156 178.007812 265.824219 178.519531 265.332031 179.007812 C 264.84375 179.496094 264.332031 179.960938 263.796875 180.398438 C 263.261719 180.839844 262.707031 181.25 262.132812 181.632812 C 261.554688 182.019531 260.964844 182.375 260.351562 182.699219 C 259.742188 183.027344 259.117188 183.320312 258.480469 183.585938 C 257.839844 183.851562 257.1875 184.085938 256.527344 184.285156 C 255.863281 184.488281 255.195312 184.652344 254.515625 184.789062 C 253.835938 184.925781 253.152344 185.027344 252.464844 185.09375 C 251.777344 185.160156 251.085938 185.195312 250.394531 185.195312 Z M 219.664062 123.734375 C 219.035156 123.734375 218.410156 123.796875 217.789062 123.917969 C 217.171875 124.042969 216.570312 124.222656 215.988281 124.464844 C 215.40625 124.707031 214.851562 125.003906 214.328125 125.351562 C 213.804688 125.703125 213.320312 126.101562 212.875 126.546875 C 212.425781 126.992188 212.03125 127.476562 211.679688 128.003906 C 211.328125 128.527344 211.03125 129.082031 210.792969 129.664062 C 210.550781 130.246094 210.367188 130.847656 210.246094 131.464844 C 210.121094 132.082031 210.0625 132.707031 210.0625 133.335938 L 210.0625 164.066406 C 210.0625 164.699219 210.121094 165.324219 210.246094 165.941406 C 210.367188 166.558594 210.550781 167.160156 210.792969 167.742188 C 211.03125 168.324219 211.328125 168.878906 211.679688 169.402344 C 212.03125 169.925781 212.425781 170.414062 212.875 170.859375 C 213.320312 171.304688 213.804688 171.703125 214.328125 172.054688 C 214.851562 172.402344 215.40625 172.699219 215.988281 172.941406 C 216.570312 173.183594 217.171875 173.363281 217.789062 173.488281 C 218.410156 173.609375 219.035156 173.671875 219.664062 173.671875 L 250.394531 173.671875 C 251.023438 173.671875 251.648438 173.609375 252.269531 173.488281 C 252.886719 173.363281 253.488281 173.183594 254.070312 172.941406 C 254.652344 172.699219 255.207031 172.402344 255.730469 172.054688 C 256.253906 171.703125 256.738281 171.304688 257.183594 170.859375 C 257.628906 170.414062 258.027344 169.925781 258.378906 169.402344 C 258.730469 168.878906 259.023438 168.324219 259.265625 167.742188 C 259.507812 167.160156 259.691406 166.558594 259.8125 165.941406 C 259.9375 165.324219 259.996094 164.699219 259.996094 164.066406 L 259.996094 133.335938 C 259.996094 132.707031 259.9375 132.082031 259.8125 131.464844 C 259.691406 130.847656 259.507812 130.246094 259.265625 129.664062 C 259.023438 129.082031 258.730469 128.527344 258.378906 128.003906 C 258.027344 127.476562 257.628906 126.992188 257.183594 126.546875 C 256.738281 126.101562 256.253906 125.703125 255.730469 125.351562 C 255.207031 125.003906 254.652344 124.707031 254.070312 124.464844 C 253.488281 124.222656 252.886719 124.042969 252.269531 123.917969 C 251.648438 123.796875 251.023438 123.734375 250.394531 123.734375 Z M 219.664062 123.734375 " fill-opacity="1" fill-rule="nonzero"/></g><g clip-path="url(#edebba8bba)"><path fill="#000000" d="M 165.886719 185.195312 L 142.839844 185.195312 C 142.144531 185.195312 141.457031 185.160156 140.765625 185.09375 C 140.078125 185.027344 139.394531 184.925781 138.714844 184.789062 C 138.039062 184.652344 137.367188 184.488281 136.707031 184.285156 C 136.042969 184.085938 135.390625 183.851562 134.753906 183.585938 C 134.113281 183.320312 133.488281 183.027344 132.878906 182.699219 C 132.269531 182.375 131.675781 182.019531 131.101562 181.632812 C 130.523438 181.25 129.96875 180.839844 129.433594 180.398438 C 128.902344 179.960938 128.386719 179.496094 127.898438 179.007812 C 127.410156 178.519531 126.945312 178.007812 126.507812 177.472656 C 126.066406 176.9375 125.65625 176.382812 125.273438 175.804688 C 124.886719 175.230469 124.53125 174.636719 124.207031 174.027344 C 123.878906 173.417969 123.585938 172.792969 123.320312 172.152344 C 123.054688 171.515625 122.820312 170.863281 122.621094 170.199219 C 122.421875 169.539062 122.253906 168.867188 122.117188 168.191406 C 121.980469 167.511719 121.878906 166.828125 121.8125 166.140625 C 121.746094 165.449219 121.710938 164.761719 121.710938 164.066406 L 121.710938 141.019531 C 121.710938 140.328125 121.746094 139.636719 121.8125 138.949219 C 121.878906 138.261719 121.980469 137.578125 122.117188 136.898438 C 122.253906 136.21875 122.421875 135.550781 122.621094 134.886719 C 122.820312 134.226562 123.054688 133.574219 123.320312 132.933594 C 123.585938 132.296875 123.878906 131.671875 124.207031 131.0625 C 124.53125 130.449219 124.886719 129.859375 125.273438 129.28125 C 125.65625 128.707031 126.066406 128.152344 126.507812 127.617188 C 126.945312 127.082031 127.410156 126.570312 127.898438 126.082031 C 128.386719 125.59375 128.902344 125.128906 129.433594 124.6875 C 129.96875 124.25 130.523438 123.839844 131.101562 123.453125 C 131.675781 123.070312 132.269531 122.714844 132.878906 122.386719 C 133.488281 122.0625 134.113281 121.765625 134.753906 121.5 C 135.390625 121.238281 136.042969 121.003906 136.707031 120.804688 C 137.367188 120.601562 138.039062 120.433594 138.714844 120.300781 C 139.394531 120.164062 140.078125 120.0625 140.765625 119.996094 C 141.457031 119.925781 142.144531 119.894531 142.839844 119.894531 L 165.886719 119.894531 C 166.578125 119.894531 167.269531 119.925781 167.957031 119.996094 C 168.644531 120.0625 169.328125 120.164062 170.007812 120.300781 C 170.6875 120.433594 171.355469 120.601562 172.019531 120.804688 C 172.679688 121.003906 173.332031 121.238281 173.972656 121.5 C 174.609375 121.765625 175.234375 122.0625 175.84375 122.386719 C 176.457031 122.714844 177.046875 123.070312 177.625 123.453125 C 178.199219 123.839844 178.753906 124.25 179.289062 124.6875 C 179.824219 125.128906 180.335938 125.59375 180.824219 126.082031 C 181.3125 126.570312 181.777344 127.082031 182.21875 127.617188 C 182.65625 128.152344 183.066406 128.707031 183.453125 129.28125 C 183.835938 129.859375 184.191406 130.449219 184.519531 131.0625 C 184.84375 131.671875 185.140625 132.296875 185.40625 132.933594 C 185.667969 133.574219 185.902344 134.226562 186.101562 134.886719 C 186.304688 135.550781 186.472656 136.21875 186.605469 136.898438 C 186.742188 137.578125 186.84375 138.261719 186.910156 138.949219 C 186.980469 139.636719 187.011719 140.328125 187.011719 141.019531 L 187.011719 164.066406 C 187.011719 164.761719 186.980469 165.449219 186.910156 166.140625 C 186.84375 166.828125 186.742188 167.511719 186.605469 168.191406 C 186.472656 168.867188 186.304688 169.539062 186.101562 170.199219 C 185.902344 170.863281 185.667969 171.515625 185.40625 172.152344 C 185.140625 172.792969 184.84375 173.417969 184.519531 174.027344 C 184.191406 174.636719 183.835938 175.230469 183.453125 175.804688 C 183.066406 176.382812 182.65625 176.9375 182.21875 177.472656 C 181.777344 178.007812 181.3125 178.519531 180.824219 179.007812 C 180.335938 179.496094 179.824219 179.960938 179.289062 180.398438 C 178.753906 180.839844 178.199219 181.25 177.625 181.632812 C 177.046875 182.019531 176.457031 182.375 175.84375 182.699219 C 175.234375 183.027344 174.609375 183.320312 173.972656 183.585938 C 173.332031 183.851562 172.679688 184.085938 172.019531 184.285156 C 171.355469 184.488281 170.6875 184.652344 170.007812 184.789062 C 169.328125 184.925781 168.644531 185.027344 167.957031 185.09375 C 167.269531 185.160156 166.578125 185.195312 165.886719 185.195312 Z M 142.839844 131.417969 C 142.207031 131.417969 141.582031 131.480469 140.964844 131.601562 C 140.347656 131.726562 139.746094 131.90625 139.164062 132.148438 C 138.582031 132.390625 138.027344 132.683594 137.503906 133.035156 C 136.980469 133.386719 136.492188 133.785156 136.046875 134.230469 C 135.601562 134.675781 135.203125 135.160156 134.851562 135.683594 C 134.503906 136.210938 134.207031 136.761719 133.964844 137.34375 C 133.726562 137.929688 133.542969 138.527344 133.417969 139.148438 C 133.296875 139.765625 133.234375 140.390625 133.234375 141.019531 L 133.234375 164.066406 C 133.234375 164.699219 133.296875 165.324219 133.417969 165.941406 C 133.542969 166.558594 133.726562 167.160156 133.964844 167.742188 C 134.207031 168.324219 134.503906 168.878906 134.851562 169.402344 C 135.203125 169.925781 135.601562 170.414062 136.046875 170.859375 C 136.492188 171.304688 136.980469 171.703125 137.503906 172.054688 C 138.027344 172.402344 138.582031 172.699219 139.164062 172.941406 C 139.746094 173.183594 140.347656 173.363281 140.964844 173.488281 C 141.582031 173.609375 142.207031 173.671875 142.839844 173.671875 L 165.886719 173.671875 C 166.515625 173.671875 167.140625 173.609375 167.757812 173.488281 C 168.378906 173.363281 168.976562 173.183594 169.5625 172.941406 C 170.144531 172.699219 170.695312 172.402344 171.222656 172.054688 C 171.746094 171.703125 172.230469 171.304688 172.675781 170.859375 C 173.121094 170.414062 173.519531 169.925781 173.871094 169.402344 C 174.222656 168.878906 174.515625 168.324219 174.757812 167.742188 C 175 167.160156 175.179688 166.558594 175.304688 165.941406 C 175.425781 165.324219 175.488281 164.699219 175.488281 164.066406 L 175.488281 141.019531 C 175.488281 140.390625 175.425781 139.765625 175.304688 139.148438 C 175.179688 138.527344 175 137.929688 174.757812 137.34375 C 174.515625 136.761719 174.222656 136.210938 173.871094 135.683594 C 173.519531 135.160156 173.121094 134.675781 172.675781 134.230469 C 172.230469 133.785156 171.746094 133.386719 171.222656 133.035156 C 170.695312 132.683594 170.144531 132.390625 169.5625 132.148438 C 168.976562 131.90625 168.378906 131.726562 167.757812 131.601562 C 167.140625 131.480469 166.515625 131.417969 165.886719 131.417969 Z M 142.839844 131.417969 " fill-opacity="1" fill-rule="nonzero"/></g><g clip-path="url(#3f5a4a9724)"><path fill="#000000" d="M 242.710938 262.019531 L 219.664062 262.019531 C 218.972656 262.019531 218.28125 261.988281 217.59375 261.917969 C 216.90625 261.851562 216.222656 261.75 215.542969 261.613281 C 214.863281 261.480469 214.191406 261.3125 213.53125 261.109375 C 212.867188 260.910156 212.21875 260.675781 211.578125 260.414062 C 210.941406 260.148438 210.316406 259.851562 209.703125 259.527344 C 209.09375 259.199219 208.5 258.84375 207.925781 258.460938 C 207.351562 258.074219 206.796875 257.664062 206.261719 257.226562 C 205.726562 256.785156 205.214844 256.320312 204.726562 255.832031 C 204.234375 255.34375 203.769531 254.832031 203.332031 254.296875 C 202.894531 253.761719 202.480469 253.207031 202.097656 252.632812 C 201.714844 252.054688 201.359375 251.464844 201.03125 250.851562 C 200.707031 250.242188 200.410156 249.617188 200.144531 248.980469 C 199.878906 248.339844 199.648438 247.6875 199.445312 247.027344 C 199.246094 246.363281 199.078125 245.695312 198.941406 245.015625 C 198.808594 244.335938 198.707031 243.652344 198.636719 242.964844 C 198.570312 242.277344 198.535156 241.585938 198.535156 240.894531 L 198.535156 217.847656 C 198.535156 217.152344 198.570312 216.464844 198.636719 215.773438 C 198.707031 215.085938 198.808594 214.402344 198.941406 213.722656 C 199.078125 213.046875 199.246094 212.375 199.445312 211.714844 C 199.648438 211.050781 199.878906 210.402344 200.144531 209.761719 C 200.410156 209.121094 200.707031 208.496094 201.03125 207.886719 C 201.359375 207.277344 201.714844 206.683594 202.097656 206.109375 C 202.480469 205.535156 202.894531 204.976562 203.332031 204.441406 C 203.769531 203.910156 204.234375 203.394531 204.726562 202.90625 C 205.214844 202.417969 205.726562 201.953125 206.261719 201.515625 C 206.796875 201.074219 207.351562 200.664062 207.925781 200.28125 C 208.5 199.894531 209.09375 199.539062 209.703125 199.214844 C 210.316406 198.886719 210.941406 198.59375 211.578125 198.328125 C 212.21875 198.0625 212.867188 197.828125 213.53125 197.628906 C 214.191406 197.429688 214.863281 197.261719 215.542969 197.125 C 216.222656 196.988281 216.90625 196.886719 217.59375 196.820312 C 218.28125 196.753906 218.972656 196.71875 219.664062 196.71875 L 242.710938 196.71875 C 243.402344 196.71875 244.09375 196.753906 244.78125 196.820312 C 245.472656 196.886719 246.15625 196.988281 246.832031 197.125 C 247.511719 197.261719 248.183594 197.429688 248.84375 197.628906 C 249.507812 197.828125 250.15625 198.0625 250.796875 198.328125 C 251.4375 198.59375 252.0625 198.886719 252.671875 199.214844 C 253.28125 199.539062 253.875 199.894531 254.449219 200.28125 C 255.023438 200.664062 255.578125 201.074219 256.113281 201.515625 C 256.648438 201.953125 257.160156 202.417969 257.652344 202.90625 C 258.140625 203.394531 258.605469 203.910156 259.042969 204.441406 C 259.480469 204.976562 259.894531 205.535156 260.277344 206.109375 C 260.664062 206.683594 261.019531 207.277344 261.34375 207.886719 C 261.671875 208.496094 261.964844 209.121094 262.230469 209.761719 C 262.496094 210.402344 262.726562 211.050781 262.929688 211.714844 C 263.128906 212.375 263.296875 213.046875 263.433594 213.722656 C 263.566406 214.402344 263.667969 215.085938 263.738281 215.773438 C 263.804688 216.464844 263.839844 217.152344 263.839844 217.847656 L 263.839844 240.894531 C 263.839844 241.585938 263.804688 242.277344 263.738281 242.964844 C 263.667969 243.652344 263.566406 244.335938 263.433594 245.015625 C 263.296875 245.695312 263.128906 246.363281 262.929688 247.027344 C 262.726562 247.6875 262.496094 248.339844 262.230469 248.980469 C 261.964844 249.617188 261.671875 250.242188 261.34375 250.851562 C 261.019531 251.464844 260.664062 252.054688 260.277344 252.632812 C 259.894531 253.207031 259.480469 253.761719 259.042969 254.296875 C 258.605469 254.832031 258.140625 255.34375 257.652344 255.832031 C 257.160156 256.320312 256.648438 256.785156 256.113281 257.226562 C 255.578125 257.664062 255.023438 258.074219 254.449219 258.460938 C 253.875 258.84375 253.28125 259.199219 252.671875 259.527344 C 252.0625 259.851562 251.4375 260.148438 250.796875 260.414062 C 250.15625 260.675781 249.507812 260.910156 248.84375 261.109375 C 248.183594 261.3125 247.511719 261.480469 246.832031 261.613281 C 246.15625 261.75 245.472656 261.851562 244.78125 261.917969 C 244.09375 261.988281 243.402344 262.019531 242.710938 262.019531 Z M 219.664062 208.242188 C 219.035156 208.242188 218.410156 208.304688 217.789062 208.425781 C 217.171875 208.550781 216.570312 208.734375 215.988281 208.972656 C 215.40625 209.214844 214.851562 209.511719 214.328125 209.863281 C 213.804688 210.210938 213.320312 210.609375 212.875 211.054688 C 212.425781 211.5 212.03125 211.988281 211.679688 212.511719 C 211.328125 213.035156 211.03125 213.589844 210.792969 214.171875 C 210.550781 214.753906 210.367188 215.355469 210.246094 215.972656 C 210.121094 216.589844 210.0625 217.214844 210.0625 217.847656 L 210.0625 240.894531 C 210.0625 241.523438 210.121094 242.148438 210.246094 242.765625 C 210.367188 243.386719 210.550781 243.984375 210.792969 244.570312 C 211.03125 245.152344 211.328125 245.703125 211.679688 246.230469 C 212.03125 246.753906 212.425781 247.238281 212.875 247.683594 C 213.320312 248.128906 213.804688 248.527344 214.328125 248.878906 C 214.851562 249.230469 215.40625 249.523438 215.988281 249.765625 C 216.570312 250.007812 217.171875 250.191406 217.789062 250.3125 C 218.410156 250.4375 219.035156 250.496094 219.664062 250.496094 L 242.710938 250.496094 C 243.34375 250.496094 243.964844 250.4375 244.585938 250.3125 C 245.203125 250.191406 245.804688 250.007812 246.386719 249.765625 C 246.96875 249.523438 247.523438 249.230469 248.046875 248.878906 C 248.570312 248.527344 249.054688 248.128906 249.503906 247.683594 C 249.949219 247.238281 250.347656 246.753906 250.695312 246.230469 C 251.046875 245.703125 251.34375 245.152344 251.582031 244.570312 C 251.824219 243.984375 252.007812 243.386719 252.128906 242.765625 C 252.253906 242.148438 252.316406 241.523438 252.316406 240.894531 L 252.316406 217.847656 C 252.316406 217.214844 252.253906 216.589844 252.128906 215.972656 C 252.007812 215.355469 251.824219 214.753906 251.582031 214.171875 C 251.34375 213.589844 251.046875 213.035156 250.695312 212.511719 C 250.347656 211.988281 249.949219 211.5 249.503906 211.054688 C 249.054688 210.609375 248.570312 210.210938 248.046875 209.863281 C 247.523438 209.511719 246.96875 209.214844 246.386719 208.972656 C 245.804688 208.734375 245.203125 208.550781 244.585938 208.425781 C 243.964844 208.304688 243.34375 208.242188 242.710938 208.242188 Z M 219.664062 208.242188 " fill-opacity="1" fill-rule="nonzero"/></g><g clip-path="url(#9585018c3a)"><path fill="#000000" d="M 165.886719 262.019531 L 142.839844 262.019531 C 142.144531 262.019531 141.457031 261.988281 140.765625 261.917969 C 140.078125 261.851562 139.394531 261.75 138.714844 261.613281 C 138.039062 261.480469 137.367188 261.3125 136.707031 261.109375 C 136.042969 260.910156 135.390625 260.675781 134.753906 260.414062 C 134.113281 260.148438 133.488281 259.851562 132.878906 259.527344 C 132.269531 259.199219 131.675781 258.84375 131.101562 258.460938 C 130.523438 258.074219 129.96875 257.664062 129.433594 257.226562 C 128.902344 256.785156 128.386719 256.320312 127.898438 255.832031 C 127.410156 255.34375 126.945312 254.832031 126.507812 254.296875 C 126.066406 253.761719 125.65625 253.207031 125.273438 252.632812 C 124.886719 252.054688 124.53125 251.464844 124.207031 250.851562 C 123.878906 250.242188 123.585938 249.617188 123.320312 248.980469 C 123.054688 248.339844 122.820312 247.6875 122.621094 247.027344 C 122.421875 246.363281 122.253906 245.695312 122.117188 245.015625 C 121.980469 244.335938 121.878906 243.652344 121.8125 242.964844 C 121.746094 242.277344 121.710938 241.585938 121.710938 240.894531 L 121.710938 217.847656 C 121.710938 217.152344 121.746094 216.464844 121.8125 215.773438 C 121.878906 215.085938 121.980469 214.402344 122.117188 213.722656 C 122.253906 213.046875 122.421875 212.375 122.621094 211.714844 C 122.820312 211.050781 123.054688 210.402344 123.320312 209.761719 C 123.585938 209.121094 123.878906 208.496094 124.207031 207.886719 C 124.53125 207.277344 124.886719 206.683594 125.273438 206.109375 C 125.65625 205.535156 126.066406 204.976562 126.507812 204.441406 C 126.945312 203.910156 127.410156 203.394531 127.898438 202.90625 C 128.386719 202.417969 128.902344 201.953125 129.433594 201.515625 C 129.96875 201.074219 130.523438 200.664062 131.101562 200.28125 C 131.675781 199.894531 132.269531 199.539062 132.878906 199.214844 C 133.488281 198.886719 134.113281 198.59375 134.753906 198.328125 C 135.390625 198.0625 136.042969 197.828125 136.707031 197.628906 C 137.367188 197.429688 138.039062 197.261719 138.714844 197.125 C 139.394531 196.988281 140.078125 196.886719 140.765625 196.820312 C 141.457031 196.753906 142.144531 196.71875 142.839844 196.71875 L 165.886719 196.71875 C 166.578125 196.71875 167.269531 196.753906 167.957031 196.820312 C 168.644531 196.886719 169.328125 196.988281 170.007812 197.125 C 170.6875 197.261719 171.355469 197.429688 172.019531 197.628906 C 172.679688 197.828125 173.332031 198.0625 173.972656 198.328125 C 174.609375 198.59375 175.234375 198.886719 175.84375 199.214844 C 176.457031 199.539062 177.046875 199.894531 177.625 200.28125 C 178.199219 200.664062 178.753906 201.074219 179.289062 201.515625 C 179.824219 201.953125 180.335938 202.417969 180.824219 202.90625 C 181.3125 203.394531 181.777344 203.910156 182.21875 204.441406 C 182.65625 204.976562 183.066406 205.535156 183.453125 206.109375 C 183.835938 206.683594 184.191406 207.277344 184.519531 207.886719 C 184.84375 208.496094 185.140625 209.121094 185.40625 209.761719 C 185.667969 210.402344 185.902344 211.050781 186.101562 211.714844 C 186.304688 212.375 186.472656 213.046875 186.605469 213.722656 C 186.742188 214.402344 186.84375 215.085938 186.910156 215.773438 C 186.980469 216.464844 187.011719 217.152344 187.011719 217.847656 L 187.011719 240.894531 C 187.011719 241.585938 186.980469 242.277344 186.910156 242.964844 C 186.84375 243.652344 186.742188 244.335938 186.605469 245.015625 C 186.472656 245.695312 186.304688 246.363281 186.101562 247.027344 C 185.902344 247.6875 185.667969 248.339844 185.40625 248.980469 C 185.140625 249.617188 184.84375 250.242188 184.519531 250.851562 C 184.191406 251.464844 183.835938 252.054688 183.453125 252.632812 C 183.066406 253.207031 182.65625 253.761719 182.21875 254.296875 C 181.777344 254.832031 181.3125 255.34375 180.824219 255.832031 C 180.335938 256.320312 179.824219 256.785156 179.289062 257.226562 C 178.753906 257.664062 178.199219 258.074219 177.625 258.460938 C 177.046875 258.84375 176.457031 259.199219 175.84375 259.527344 C 175.234375 259.851562 174.609375 260.148438 173.972656 260.414062 C 173.332031 260.675781 172.679688 260.910156 172.019531 261.109375 C 171.355469 261.3125 170.6875 261.480469 170.007812 261.613281 C 169.328125 261.75 168.644531 261.851562 167.957031 261.917969 C 167.269531 261.988281 166.578125 262.019531 165.886719 262.019531 Z M 142.839844 208.242188 C 142.207031 208.242188 141.582031 208.304688 140.964844 208.425781 C 140.347656 208.550781 139.746094 208.734375 139.164062 208.972656 C 138.582031 209.214844 138.027344 209.511719 137.503906 209.863281 C 136.980469 210.210938 136.492188 210.609375 136.046875 211.054688 C 135.601562 211.5 135.203125 211.988281 134.851562 212.511719 C 134.503906 213.035156 134.207031 213.589844 133.964844 214.171875 C 133.726562 214.753906 133.542969 215.355469 133.417969 215.972656 C 133.296875 216.589844 133.234375 217.214844 133.234375 217.847656 L 133.234375 240.894531 C 133.234375 241.523438 133.296875 242.148438 133.417969 242.765625 C 133.542969 243.386719 133.726562 243.984375 133.964844 244.570312 C 134.207031 245.152344 134.503906 245.703125 134.851562 246.230469 C 135.203125 246.753906 135.601562 247.238281 136.046875 247.683594 C 136.492188 248.128906 136.980469 248.527344 137.503906 248.878906 C 138.027344 249.230469 138.582031 249.523438 139.164062 249.765625 C 139.746094 250.007812 140.347656 250.191406 140.964844 250.3125 C 141.582031 250.4375 142.207031 250.496094 142.839844 250.496094 L 165.886719 250.496094 C 166.515625 250.496094 167.140625 250.4375 167.757812 250.3125 C 168.378906 250.191406 168.976562 250.007812 169.5625 249.765625 C 170.144531 249.523438 170.695312 249.230469 171.222656 248.878906 C 171.746094 248.527344 172.230469 248.128906 172.675781 247.683594 C 173.121094 247.238281 173.519531 246.753906 173.871094 246.230469 C 174.222656 245.703125 174.515625 245.152344 174.757812 244.570312 C 175 243.984375 175.179688 243.386719 175.304688 242.765625 C 175.425781 242.148438 175.488281 241.523438 175.488281 240.894531 L 175.488281 217.847656 C 175.488281 217.214844 175.425781 216.589844 175.304688 215.972656 C 175.179688 215.355469 175 214.753906 174.757812 214.171875 C 174.515625 213.589844 174.222656 213.035156 173.871094 212.511719 C 173.519531 211.988281 173.121094 211.5 172.675781 211.054688 C 172.230469 210.609375 171.746094 210.210938 171.222656 209.863281 C 170.695312 209.511719 170.144531 209.214844 169.5625 208.972656 C 168.976562 208.734375 168.378906 208.550781 167.757812 208.425781 C 167.140625 208.304688 166.515625 208.242188 165.886719 208.242188 Z M 142.839844 208.242188 " fill-opacity="1" fill-rule="nonzero"/></g></svg>