<svg xmlns="http://www.w3.org/2000/svg" xmlns:xlink="http://www.w3.org/1999/xlink" width="526" zoomAndPan="magnify" viewBox="0 0 394.5 374.999991" height="500" preserveAspectRatio="xMidYMid meet" version="1.0"><defs><clipPath id="42531b31bd"><path d="M 168 50.433594 L 286 50.433594 L 286 168 L 168 168 Z M 168 50.433594 " clip-rule="nonzero"/></clipPath><clipPath id="427c923f8a"><path d="M 245 167 L 326.644531 167 L 326.644531 249 L 245 249 Z M 245 167 " clip-rule="nonzero"/></clipPath><clipPath id="ef8dd82eea"><path d="M 67.472656 161 L 231 161 L 231 324.585938 L 67.472656 324.585938 Z M 67.472656 161 " clip-rule="nonzero"/></clipPath></defs><g clip-path="url(#42531b31bd)"><path fill="#000000" d="M 226.820312 140.25 C 209.417969 140.136719 195.410156 125.949219 195.519531 108.542969 C 195.632812 91.140625 209.824219 77.132812 227.226562 77.242188 C 244.632812 77.355469 258.640625 91.546875 258.527344 108.949219 C 258.417969 126.355469 244.222656 140.363281 226.820312 140.25 Z M 259.105469 158.914062 L 276.773438 141.46875 L 270.324219 134.9375 C 272.832031 130.800781 274.761719 126.277344 276.003906 121.472656 L 285.179688 121.53125 L 285.339844 96.710938 L 276.164062 96.652344 C 274.984375 91.832031 273.113281 87.285156 270.65625 83.117188 L 277.191406 76.667969 L 259.746094 59 L 253.214844 65.449219 C 249.078125 62.9375 244.554688 61.011719 239.75 59.765625 L 239.808594 50.59375 L 214.988281 50.433594 L 214.929688 59.605469 C 210.109375 60.789062 205.5625 62.660156 201.394531 65.113281 L 194.945312 58.582031 L 177.277344 76.023438 L 183.726562 82.558594 C 181.21875 86.695312 179.289062 91.214844 178.046875 96.019531 L 168.871094 95.960938 L 168.710938 120.78125 L 177.886719 120.839844 C 179.066406 125.660156 180.9375 130.207031 183.390625 134.375 L 176.859375 140.824219 L 194.300781 158.496094 L 200.835938 152.046875 C 204.972656 154.554688 209.492188 156.484375 214.296875 157.726562 L 214.238281 166.902344 L 239.058594 167.0625 L 239.121094 157.886719 C 243.9375 156.707031 248.484375 154.835938 252.65625 152.378906 L 259.105469 158.914062 " fill-opacity="1" fill-rule="nonzero"/></g><g clip-path="url(#427c923f8a)"><path fill="#000000" d="M 285.847656 229.835938 C 273.746094 229.761719 264.007812 219.894531 264.085938 207.792969 C 264.164062 195.695312 274.03125 185.957031 286.128906 186.03125 C 298.230469 186.109375 307.96875 195.976562 307.890625 208.078125 C 307.8125 220.175781 297.945312 229.917969 285.847656 229.835938 Z M 326.417969 216.824219 L 326.53125 199.566406 L 320.152344 199.527344 C 319.332031 196.175781 318.027344 193.015625 316.324219 190.117188 L 320.867188 185.632812 L 308.738281 173.347656 L 304.195312 177.832031 C 301.320312 176.089844 298.175781 174.746094 294.835938 173.882812 L 294.875 167.503906 L 277.621094 167.394531 L 277.578125 173.773438 C 274.230469 174.59375 271.066406 175.894531 268.167969 177.601562 L 263.683594 173.058594 L 251.402344 185.1875 L 255.886719 189.726562 C 254.140625 192.605469 252.800781 195.75 251.9375 199.085938 L 245.554688 199.046875 L 245.445312 216.304688 L 251.824219 216.34375 C 252.644531 219.695312 253.945312 222.855469 255.652344 225.753906 L 251.109375 230.238281 L 263.238281 242.523438 L 267.78125 238.039062 C 270.65625 239.78125 273.800781 241.125 277.140625 241.988281 L 277.097656 248.367188 L 294.355469 248.476562 L 294.394531 242.101562 C 297.746094 241.277344 300.910156 239.976562 303.804688 238.269531 L 308.289062 242.8125 L 320.574219 230.6875 L 316.089844 226.144531 C 317.835938 223.269531 319.175781 220.125 320.042969 216.785156 L 326.417969 216.824219 " fill-opacity="1" fill-rule="nonzero"/></g><g clip-path="url(#ef8dd82eea)"><path fill="#000000" d="M 157.453125 279.636719 L 157.453125 286.296875 C 154.609375 286.855469 151.667969 287.140625 148.65625 287.121094 C 145.992188 287.101562 143.390625 286.835938 140.863281 286.367188 L 140.863281 280.621094 C 135.425781 279.84375 130.25 277.980469 126.648438 275.40625 L 123.609375 273.234375 L 129.554688 256.632812 L 134.816406 260.140625 C 138.335938 262.484375 143.039062 263.886719 147.402344 263.886719 C 150.964844 263.886719 155.125 262.449219 155.125 258.398438 C 155.125 256.242188 154.433594 253.65625 146.183594 250.3125 C 136 246.320312 125.535156 240.449219 125.535156 227.320312 C 125.535156 217.457031 131.839844 209.417969 141.609375 206.296875 L 141.609375 199.75 C 144.082031 199.332031 146.625 199.113281 149.222656 199.128906 C 152.261719 199.148438 155.230469 199.476562 158.09375 200.082031 L 158.09375 205.25 C 162.285156 205.890625 166.042969 207.203125 169.484375 209.21875 L 173.085938 211.328125 L 166.898438 227.671875 L 161.871094 224.800781 C 160.1875 223.835938 156.679688 221.832031 150.914062 221.832031 C 146.886719 221.832031 144.574219 223.367188 144.574219 226.042969 C 144.574219 228.015625 145.304688 229.710938 154.71875 233.609375 C 163.808594 237.316406 174.269531 243.410156 174.269531 257.652344 C 174.269531 267.988281 167.667969 276.410156 157.453125 279.636719 Z M 209.871094 207.332031 L 218.996094 198.324219 L 194.636719 173.652344 L 185.511719 182.660156 C 179.734375 179.15625 173.421875 176.460938 166.710938 174.722656 L 166.796875 161.910156 L 132.132812 161.6875 L 132.046875 174.5 C 125.320312 176.152344 118.96875 178.761719 113.148438 182.191406 L 104.140625 173.066406 L 79.464844 197.429688 L 88.472656 206.550781 C 84.96875 212.328125 82.273438 218.644531 80.539062 225.351562 L 67.726562 225.269531 L 67.503906 259.933594 L 80.316406 260.015625 C 81.964844 266.746094 84.578125 273.097656 88.003906 278.917969 L 78.882812 287.925781 L 103.242188 312.601562 L 112.367188 303.59375 C 118.140625 307.097656 124.457031 309.789062 131.167969 311.527344 L 131.082031 324.339844 L 165.746094 324.5625 L 165.828125 311.75 C 172.558594 310.101562 178.910156 307.488281 184.730469 304.058594 L 193.738281 313.183594 L 218.414062 288.824219 L 209.40625 279.699219 C 212.910156 273.921875 215.605469 267.605469 217.339844 260.898438 L 230.152344 260.980469 L 230.375 226.316406 L 217.5625 226.234375 C 215.914062 219.503906 213.300781 213.15625 209.871094 207.332031 " fill-opacity="1" fill-rule="nonzero"/></g></svg>