<svg xmlns="http://www.w3.org/2000/svg" xmlns:xlink="http://www.w3.org/1999/xlink" width="526" zoomAndPan="magnify" viewBox="0 0 394.5 374.999991" height="500" preserveAspectRatio="xMidYMid meet" version="1.0"><defs><clipPath id="03f924d7c8"><path d="M 206 49.132812 L 335 49.132812 L 335 179 L 206 179 Z M 206 49.132812 " clip-rule="nonzero"/></clipPath><clipPath id="6af22101f1"><path d="M 198 196 L 327 196 L 327 325.867188 L 198 325.867188 Z M 198 196 " clip-rule="nonzero"/></clipPath><clipPath id="30de2a45b8"><path d="M 59 196 L 188 196 L 188 325.867188 L 59 325.867188 Z M 59 196 " clip-rule="nonzero"/></clipPath><clipPath id="7aa431ad2d"><path d="M 213.847656 86.882812 L 303.933594 86.882812 L 303.933594 176.96875 L 213.847656 176.96875 Z M 213.847656 86.882812 " clip-rule="nonzero"/></clipPath><clipPath id="000a06245a"><path d="M 258.890625 86.882812 C 234.015625 86.882812 213.847656 107.050781 213.847656 131.925781 C 213.847656 156.804688 234.015625 176.96875 258.890625 176.96875 C 283.769531 176.96875 303.933594 156.804688 303.933594 131.925781 C 303.933594 107.050781 283.769531 86.882812 258.890625 86.882812 Z M 258.890625 86.882812 " clip-rule="nonzero"/></clipPath><clipPath id="6668ef06d8"><path d="M 89.617188 86.882812 L 186.46875 86.882812 L 186.46875 183.734375 L 89.617188 183.734375 Z M 89.617188 86.882812 " clip-rule="nonzero"/></clipPath><clipPath id="42dcd288d6"><path d="M 138.042969 86.882812 C 111.300781 86.882812 89.617188 108.566406 89.617188 135.308594 C 89.617188 162.054688 111.300781 183.734375 138.042969 183.734375 C 164.789062 183.734375 186.46875 162.054688 186.46875 135.308594 C 186.46875 108.566406 164.789062 86.882812 138.042969 86.882812 Z M 138.042969 86.882812 " clip-rule="nonzero"/></clipPath><clipPath id="71bdb4b4ca"><path d="M 203.367188 210.164062 L 293.453125 210.164062 L 293.453125 300.25 L 203.367188 300.25 Z M 203.367188 210.164062 " clip-rule="nonzero"/></clipPath><clipPath id="983f8f1620"><path d="M 248.410156 210.164062 C 223.535156 210.164062 203.367188 230.328125 203.367188 255.207031 C 203.367188 280.082031 223.535156 300.25 248.410156 300.25 C 273.289062 300.25 293.453125 280.082031 293.453125 255.207031 C 293.453125 230.328125 273.289062 210.164062 248.410156 210.164062 Z M 248.410156 210.164062 " clip-rule="nonzero"/></clipPath><clipPath id="0d5bbb6225"><path d="M 96.382812 210.164062 L 186.46875 210.164062 L 186.46875 300.25 L 96.382812 300.25 Z M 96.382812 210.164062 " clip-rule="nonzero"/></clipPath><clipPath id="96febc5137"><path d="M 141.425781 210.164062 C 116.550781 210.164062 96.382812 230.328125 96.382812 255.207031 C 96.382812 280.082031 116.550781 300.25 141.425781 300.25 C 166.304688 300.25 186.46875 280.082031 186.46875 255.207031 C 186.46875 230.328125 166.304688 210.164062 141.425781 210.164062 Z M 141.425781 210.164062 " clip-rule="nonzero"/></clipPath><clipPath id="e08a823d37"><path d="M 92 117 L 170 117 L 170 165 L 92 165 Z M 92 117 " clip-rule="nonzero"/></clipPath><clipPath id="ff75ce081b"><path d="M 81.589844 146.285156 L 158.46875 99.617188 L 173.546875 124.457031 L 96.664062 171.125 Z M 81.589844 146.285156 " clip-rule="nonzero"/></clipPath><clipPath id="67a199765c"><path d="M 81.589844 146.285156 L 158.46875 99.617188 L 173.546875 124.457031 L 96.664062 171.125 Z M 81.589844 146.285156 " clip-rule="nonzero"/></clipPath><clipPath id="a70b549613"><path d="M 81.589844 146.285156 L 158.46875 99.617188 L 173.546875 124.457031 L 96.664062 171.125 Z M 81.589844 146.285156 " clip-rule="nonzero"/></clipPath><clipPath id="d2681e6d2a"><path d="M 234.6875 99 L 283.113281 99 L 283.113281 165.300781 L 234.6875 165.300781 Z M 234.6875 99 " clip-rule="nonzero"/></clipPath><clipPath id="654f2f5efb"><path d="M 225.164062 224.230469 L 272.210938 224.230469 L 272.210938 276.808594 L 225.164062 276.808594 Z M 225.164062 224.230469 " clip-rule="nonzero"/></clipPath><clipPath id="cc485c9d71"><path d="M 111.671875 243 L 164.25 243 L 164.25 264 L 111.671875 264 Z M 111.671875 243 " clip-rule="nonzero"/></clipPath><clipPath id="31fdbfd20f"><path d="M 117 229.046875 L 159 229.046875 L 159 246 L 117 246 Z M 117 229.046875 " clip-rule="nonzero"/></clipPath><clipPath id="665ceb2612"><path d="M 151 261 L 162 261 L 162 271.941406 L 151 271.941406 Z M 151 261 " clip-rule="nonzero"/></clipPath><clipPath id="abce0517a6"><path d="M 114 261 L 125 261 L 125 271.941406 L 114 271.941406 Z M 114 261 " clip-rule="nonzero"/></clipPath><clipPath id="e861a79f23"><path d="M 206 49.132812 L 335 49.132812 L 335 179 L 206 179 Z M 206 49.132812 " clip-rule="nonzero"/></clipPath><clipPath id="d136c00fc0"><path d="M 198 196 L 327 196 L 327 325.867188 L 198 325.867188 Z M 198 196 " clip-rule="nonzero"/></clipPath><clipPath id="10250752f9"><path d="M 59 196 L 188 196 L 188 325.867188 L 59 325.867188 Z M 59 196 " clip-rule="nonzero"/></clipPath><clipPath id="44e3ebcdba"><path d="M 213.847656 86.882812 L 303.933594 86.882812 L 303.933594 176.96875 L 213.847656 176.96875 Z M 213.847656 86.882812 " clip-rule="nonzero"/></clipPath><clipPath id="460e48cd7f"><path d="M 258.890625 86.882812 C 234.015625 86.882812 213.847656 107.050781 213.847656 131.925781 C 213.847656 156.804688 234.015625 176.96875 258.890625 176.96875 C 283.769531 176.96875 303.933594 156.804688 303.933594 131.925781 C 303.933594 107.050781 283.769531 86.882812 258.890625 86.882812 Z M 258.890625 86.882812 " clip-rule="nonzero"/></clipPath><clipPath id="8d46c30ad1"><path d="M 89.617188 86.882812 L 186.46875 86.882812 L 186.46875 183.734375 L 89.617188 183.734375 Z M 89.617188 86.882812 " clip-rule="nonzero"/></clipPath><clipPath id="b755fca873"><path d="M 138.042969 86.882812 C 111.300781 86.882812 89.617188 108.566406 89.617188 135.308594 C 89.617188 162.054688 111.300781 183.734375 138.042969 183.734375 C 164.789062 183.734375 186.46875 162.054688 186.46875 135.308594 C 186.46875 108.566406 164.789062 86.882812 138.042969 86.882812 Z M 138.042969 86.882812 " clip-rule="nonzero"/></clipPath><clipPath id="5a970658cb"><path d="M 203.367188 210.164062 L 293.453125 210.164062 L 293.453125 300.25 L 203.367188 300.25 Z M 203.367188 210.164062 " clip-rule="nonzero"/></clipPath><clipPath id="a499488994"><path d="M 248.410156 210.164062 C 223.535156 210.164062 203.367188 230.328125 203.367188 255.207031 C 203.367188 280.082031 223.535156 300.25 248.410156 300.25 C 273.289062 300.25 293.453125 280.082031 293.453125 255.207031 C 293.453125 230.328125 273.289062 210.164062 248.410156 210.164062 Z M 248.410156 210.164062 " clip-rule="nonzero"/></clipPath><clipPath id="b2d698f4ad"><path d="M 96.382812 210.164062 L 186.46875 210.164062 L 186.46875 300.25 L 96.382812 300.25 Z M 96.382812 210.164062 " clip-rule="nonzero"/></clipPath><clipPath id="722eafcf48"><path d="M 141.425781 210.164062 C 116.550781 210.164062 96.382812 230.328125 96.382812 255.207031 C 96.382812 280.082031 116.550781 300.25 141.425781 300.25 C 166.304688 300.25 186.46875 280.082031 186.46875 255.207031 C 186.46875 230.328125 166.304688 210.164062 141.425781 210.164062 Z M 141.425781 210.164062 " clip-rule="nonzero"/></clipPath><clipPath id="c6cf20bc98"><path d="M 92 117 L 170 117 L 170 165 L 92 165 Z M 92 117 " clip-rule="nonzero"/></clipPath><clipPath id="e076437bbc"><path d="M 81.589844 146.285156 L 158.46875 99.617188 L 173.546875 124.457031 L 96.664062 171.125 Z M 81.589844 146.285156 " clip-rule="nonzero"/></clipPath><clipPath id="7a4a597f73"><path d="M 81.589844 146.285156 L 158.46875 99.617188 L 173.546875 124.457031 L 96.664062 171.125 Z M 81.589844 146.285156 " clip-rule="nonzero"/></clipPath><clipPath id="cc98183347"><path d="M 234.6875 99 L 283.113281 99 L 283.113281 165 L 234.6875 165 Z M 234.6875 99 " clip-rule="nonzero"/></clipPath><clipPath id="a1f0d01ecc"><path d="M 225.164062 224.230469 L 272 224.230469 L 272 276.808594 L 225.164062 276.808594 Z M 225.164062 224.230469 " clip-rule="nonzero"/></clipPath><clipPath id="2a683b00cf"><path d="M 100.894531 243 L 153.472656 243 L 153.472656 264 L 100.894531 264 Z M 100.894531 243 " clip-rule="nonzero"/></clipPath><clipPath id="607a001369"><path d="M 106 229.046875 L 149 229.046875 L 149 246 L 106 246 Z M 106 229.046875 " clip-rule="nonzero"/></clipPath><clipPath id="db024c7e7b"><path d="M 140 261 L 151 261 L 151 271.941406 L 140 271.941406 Z M 140 261 " clip-rule="nonzero"/></clipPath><clipPath id="a8422eafa5"><path d="M 103 261 L 114 261 L 114 271.941406 L 103 271.941406 Z M 103 261 " clip-rule="nonzero"/></clipPath></defs><g clip-path="url(#03f924d7c8)"><path fill="#d9d9d9" d="M 214.324219 178.175781 L 326.871094 178.175781 C 331.613281 178.175781 335.367188 174.09375 334.871094 169.402344 C 328.304688 106.289062 278.210938 56.195312 215.097656 49.628906 C 210.40625 49.132812 206.324219 52.886719 206.324219 57.628906 L 206.324219 170.175781 C 206.324219 174.589844 209.910156 178.175781 214.324219 178.175781 Z M 214.324219 178.175781 " fill-opacity="1" fill-rule="nonzero"/></g><path fill="#d9d9d9" d="M 187.675781 178.175781 L 187.675781 65.574219 C 187.675781 60.828125 183.59375 57.078125 178.90625 57.574219 C 115.789062 64.195312 65.695312 114.289062 59.128906 177.402344 C 58.632812 182.09375 62.386719 186.175781 67.128906 186.175781 L 179.675781 186.175781 C 184.089844 186.175781 187.675781 182.589844 187.675781 178.175781 Z M 187.675781 178.175781 " fill-opacity="1" fill-rule="nonzero"/><g clip-path="url(#6af22101f1)"><path fill="#d9d9d9" d="M 198.324219 204.824219 L 198.324219 317.371094 C 198.324219 322.113281 202.40625 325.867188 207.097656 325.371094 C 270.210938 318.804688 320.304688 268.710938 326.871094 205.597656 C 327.367188 200.90625 323.617188 196.824219 318.871094 196.824219 L 206.324219 196.824219 C 201.910156 196.824219 198.324219 200.410156 198.324219 204.824219 Z M 198.324219 204.824219 " fill-opacity="1" fill-rule="nonzero"/></g><g clip-path="url(#30de2a45b8)"><path fill="#d9d9d9" d="M 179.675781 196.824219 L 67.128906 196.824219 C 62.386719 196.824219 58.632812 200.90625 59.128906 205.597656 C 65.695312 268.710938 115.789062 318.804688 178.90625 325.371094 C 183.59375 325.867188 187.675781 322.113281 187.675781 317.371094 L 187.675781 204.824219 C 187.675781 200.410156 184.089844 196.824219 179.675781 196.824219 Z M 179.675781 196.824219 " fill-opacity="1" fill-rule="nonzero"/></g><path fill="#d9d9d9" d="M 261.933594 113.957031 C 257.410156 113.957031 253.769531 117.542969 253.550781 122.011719 L 262.542969 119.585938 C 263.257812 119.421875 263.976562 119.585938 264.472656 120.082031 C 264.96875 120.578125 265.191406 121.296875 264.96875 122.011719 L 262.652344 130.730469 C 267.011719 130.398438 270.488281 126.8125 270.488281 122.398438 C 270.375 117.765625 266.625 113.957031 261.933594 113.957031 Z M 261.933594 113.957031 " fill-opacity="1" fill-rule="nonzero"/><path fill="#d9d9d9" d="M 259.507812 134.648438 L 263.039062 121.570312 L 249.910156 125.046875 L 252.613281 127.75 L 237.660156 142.703125 L 233.355469 141.488281 L 222.984375 151.96875 L 229.441406 153.847656 L 230.378906 154.785156 L 232.308594 161.238281 L 242.734375 150.757812 L 241.632812 147.117188 L 256.804688 131.945312 Z M 259.507812 134.648438 " fill-opacity="1" fill-rule="nonzero"/><path fill="#d9d9d9" d="M 261.933594 101.65625 C 250.460938 101.65625 241.191406 110.980469 241.191406 122.453125 C 241.191406 126.425781 242.351562 130.125 244.335938 133.324219 L 248.695312 128.964844 C 247.703125 126.980469 247.148438 124.773438 247.148438 122.453125 C 247.148438 114.289062 253.824219 107.613281 261.992188 107.613281 C 270.15625 107.613281 276.832031 114.289062 276.832031 122.453125 C 276.832031 130.621094 270.15625 137.296875 261.992188 137.296875 C 259.730469 137.296875 257.632812 136.742188 255.757812 135.859375 L 251.398438 140.21875 C 254.488281 142.09375 258.128906 143.199219 261.992188 143.199219 C 273.464844 143.199219 282.734375 133.875 282.734375 122.453125 C 282.679688 110.980469 273.355469 101.65625 261.933594 101.65625 Z M 261.933594 101.65625 " fill-opacity="1" fill-rule="nonzero"/><path fill="#d9d9d9" d="M 261.933594 90.457031 C 244.28125 90.457031 229.9375 104.800781 229.9375 122.453125 C 229.9375 129.570312 232.308594 136.027344 236.28125 141.378906 L 240.472656 137.183594 C 237.605469 132.992188 235.894531 127.917969 235.894531 122.453125 C 235.894531 108.054688 247.589844 96.359375 261.992188 96.359375 C 276.390625 96.359375 288.085938 108.054688 288.085938 122.453125 C 288.085938 136.855469 276.390625 148.550781 261.992188 148.550781 C 256.640625 148.550781 251.671875 146.894531 247.480469 144.136719 L 243.289062 148.328125 C 248.527344 152.136719 254.984375 154.453125 261.992188 154.453125 C 279.644531 154.453125 293.988281 140.109375 293.988281 122.453125 C 293.878906 104.800781 279.535156 90.457031 261.933594 90.457031 Z M 261.933594 90.457031 " fill-opacity="1" fill-rule="nonzero"/><path fill="#d9d9d9" d="M 242.351562 246.753906 L 223.09375 232.242188 L 223.425781 226.449219 L 241.355469 240.023438 L 257.300781 218.5625 L 261.164062 221.429688 Z M 242.351562 246.753906 " fill-opacity="1" fill-rule="nonzero"/><path fill="#d9d9d9" d="M 248.03125 243.386719 C 248.03125 246.808594 245.273438 249.566406 241.851562 249.566406 C 238.433594 249.566406 235.675781 246.808594 235.675781 243.386719 C 235.675781 239.964844 238.433594 237.207031 241.851562 237.207031 C 245.273438 237.207031 248.03125 239.964844 248.03125 243.386719 Z M 248.03125 243.386719 " fill-opacity="1" fill-rule="nonzero"/><path fill="#d9d9d9" d="M 266.625 219.996094 C 266.625 223.414062 263.867188 226.175781 260.445312 226.175781 C 257.023438 226.175781 254.265625 223.414062 254.265625 219.996094 C 254.265625 216.574219 257.023438 213.816406 260.445312 213.816406 C 263.867188 213.761719 266.625 216.574219 266.625 219.996094 Z M 266.625 219.996094 " fill-opacity="1" fill-rule="nonzero"/><path fill="#d9d9d9" d="M 229.496094 229.375 C 229.496094 232.792969 226.738281 235.554688 223.316406 235.554688 C 219.894531 235.554688 217.136719 232.792969 217.136719 229.375 C 217.136719 225.953125 219.894531 223.195312 223.316406 223.195312 C 226.683594 223.140625 229.496094 225.953125 229.496094 229.375 Z M 229.496094 229.375 " fill-opacity="1" fill-rule="nonzero"/><path fill="#d9d9d9" d="M 217.027344 242.449219 L 229.496094 242.449219 L 229.496094 278.144531 L 217.027344 278.144531 Z M 217.027344 242.449219 " fill-opacity="1" fill-rule="nonzero"/><path fill="#d9d9d9" d="M 235.398438 254.972656 L 247.867188 254.972656 L 247.867188 277.757812 L 235.398438 277.757812 Z M 235.398438 254.972656 " fill-opacity="1" fill-rule="nonzero"/><path fill="#d9d9d9" d="M 254.210938 233.402344 L 266.679688 233.402344 L 266.679688 278.089844 L 254.210938 278.089844 Z M 254.210938 233.402344 " fill-opacity="1" fill-rule="nonzero"/><path fill="#d9d9d9" d="M 157.71875 224.242188 L 157.71875 217.679688 C 157.71875 215.96875 156.285156 214.535156 154.574219 214.535156 L 127.597656 214.535156 C 127.484375 214.535156 127.429688 214.589844 127.375 214.589844 C 127.101562 214.589844 126.824219 214.644531 126.546875 214.753906 C 126.4375 214.808594 126.328125 214.808594 126.21875 214.863281 C 125.941406 214.976562 125.722656 215.140625 125.5 215.359375 C 125.445312 215.414062 125.390625 215.472656 125.335938 215.527344 C 125.335938 215.527344 125.28125 215.527344 125.28125 215.582031 L 110.878906 230.863281 C 110.769531 230.972656 110.714844 231.140625 110.605469 231.25 C 110.492188 231.414062 110.328125 231.636719 110.21875 231.855469 C 110.109375 232.078125 110.109375 232.351562 110.050781 232.574219 C 110.050781 232.683594 109.941406 232.851562 109.941406 233.015625 L 109.941406 273.289062 C 109.941406 275.054688 111.375 276.433594 113.085938 276.433594 L 154.519531 276.433594 C 156.230469 276.433594 157.664062 275.054688 157.664062 273.289062 L 157.664062 266.28125 C 155.566406 266.558594 153.417969 266.449219 151.375 266.0625 L 151.375 270.144531 L 116.285156 270.144531 L 116.285156 236.160156 L 127.542969 236.160156 C 129.25 236.160156 130.6875 234.726562 130.6875 233.015625 L 130.6875 220.878906 L 151.375 220.878906 L 151.375 224.574219 C 153.527344 224.078125 155.621094 224.023438 157.71875 224.242188 Z M 157.71875 224.242188 " fill-opacity="1" fill-rule="nonzero"/><path fill="#d9d9d9" d="M 134.878906 240.40625 C 134.382812 242.449219 134.21875 244.601562 134.382812 246.699219 L 124.507812 246.699219 C 122.796875 246.699219 121.363281 245.261719 121.363281 243.550781 C 121.363281 241.84375 122.796875 240.40625 124.507812 240.40625 Z M 134.878906 240.40625 " fill-opacity="1" fill-rule="nonzero"/><path fill="#d9d9d9" d="M 137.304688 256.132812 L 124.507812 256.132812 C 122.796875 256.132812 121.363281 254.695312 121.363281 252.988281 C 121.363281 251.277344 122.796875 249.84375 124.507812 249.84375 L 134.824219 249.84375 C 135.320312 251.992188 136.148438 254.144531 137.304688 256.132812 Z M 137.304688 256.132812 " fill-opacity="1" fill-rule="nonzero"/><path fill="#d9d9d9" d="M 145.914062 264.132812 C 145.359375 264.957031 144.367188 265.566406 143.265625 265.566406 L 124.507812 265.566406 C 122.796875 265.566406 121.363281 264.132812 121.363281 262.421875 C 121.363281 260.710938 122.796875 259.277344 124.507812 259.277344 L 139.570312 259.277344 C 141.390625 261.316406 143.597656 262.972656 145.914062 264.132812 Z M 145.914062 264.132812 " fill-opacity="1" fill-rule="nonzero"/><path fill="#d9d9d9" d="M 174.492188 263.910156 L 166.546875 252.710938 C 165.664062 254.035156 164.558594 255.195312 163.179688 256.1875 C 161.800781 257.179688 160.3125 257.785156 158.824219 258.171875 L 166.765625 269.371094 C 167.703125 270.695312 169.140625 271.359375 170.628906 271.359375 C 171.566406 271.359375 172.503906 271.082031 173.332031 270.476562 C 175.484375 269.042969 175.980469 266.0625 174.492188 263.910156 Z M 174.492188 263.910156 " fill-opacity="1" fill-rule="nonzero"/><path fill="#d9d9d9" d="M 155.511719 261.867188 C 154.574219 261.867188 153.636719 261.8125 152.699219 261.648438 C 148.339844 260.875 144.535156 258.503906 141.941406 254.863281 C 139.402344 251.222656 138.355469 246.863281 139.128906 242.503906 C 139.898438 238.144531 142.273438 234.339844 145.914062 231.746094 C 153.359375 226.449219 163.734375 228.214844 169.027344 235.71875 C 171.566406 239.359375 172.613281 243.71875 171.84375 248.078125 C 171.070312 252.433594 168.699219 256.242188 165.058594 258.835938 C 162.242188 260.820312 158.933594 261.867188 155.511719 261.867188 Z M 155.457031 235 C 153.417969 235 151.320312 235.609375 149.554688 236.878906 C 147.292969 238.476562 145.800781 240.847656 145.359375 243.550781 C 144.917969 246.257812 145.527344 248.960938 147.125 251.222656 C 148.726562 253.484375 151.097656 254.972656 153.800781 255.414062 C 156.503906 255.910156 159.207031 255.25 161.472656 253.648438 C 163.734375 252.046875 165.222656 249.675781 165.664062 246.972656 C 166.105469 244.269531 165.5 241.566406 163.898438 239.304688 C 161.855469 236.492188 158.65625 235 155.457031 235 Z M 155.457031 235 " fill-opacity="1" fill-rule="nonzero"/><path fill="#d9d9d9" d="M 113.417969 113.515625 C 112.8125 114.125 111.761719 114.125 111.15625 113.515625 L 106.246094 108.605469 C 105.640625 108 105.640625 106.953125 106.246094 106.34375 C 106.851562 105.738281 107.902344 105.738281 108.507812 106.34375 L 113.417969 111.253906 C 114.078125 111.917969 114.078125 112.910156 113.417969 113.515625 Z M 113.417969 113.515625 " fill-opacity="1" fill-rule="nonzero"/><path fill="#d9d9d9" d="M 104.257812 131.171875 C 103.929688 131.503906 103.433594 131.722656 102.878906 131.613281 L 95.929688 130.621094 C 95.046875 130.507812 94.4375 129.683594 94.550781 128.800781 C 94.660156 127.917969 95.488281 127.308594 96.371094 127.421875 L 103.320312 128.414062 C 104.203125 128.523438 104.8125 129.351562 104.699219 130.234375 C 104.699219 130.621094 104.535156 130.949219 104.257812 131.171875 Z M 104.257812 131.171875 " fill-opacity="1" fill-rule="nonzero"/><path fill="#d9d9d9" d="M 107.128906 150.535156 C 107.019531 150.644531 106.90625 150.757812 106.742188 150.8125 L 100.453125 154.066406 C 99.679688 154.453125 98.6875 154.175781 98.300781 153.40625 C 97.914062 152.632812 98.191406 151.640625 98.964844 151.253906 L 105.253906 148 C 106.023438 147.613281 107.019531 147.886719 107.40625 148.660156 C 107.734375 149.324219 107.625 150.039062 107.128906 150.535156 Z M 107.128906 150.535156 " fill-opacity="1" fill-rule="nonzero"/><path fill="#d9d9d9" d="M 170.464844 117.820312 C 170.351562 117.929688 170.1875 118.042969 170.023438 118.097656 L 163.675781 121.242188 C 162.90625 121.628906 161.914062 121.296875 161.527344 120.523438 C 161.140625 119.75 161.472656 118.757812 162.242188 118.371094 L 168.585938 115.226562 C 169.359375 114.839844 170.351562 115.171875 170.738281 115.945312 C 171.125 116.550781 170.960938 117.324219 170.464844 117.820312 Z M 170.464844 117.820312 " fill-opacity="1" fill-rule="nonzero"/><path fill="#d9d9d9" d="M 150.4375 107.226562 C 149.941406 107.722656 149.167969 107.835938 148.5625 107.503906 C 147.789062 107.117188 147.457031 106.125 147.898438 105.351562 L 151.265625 98.84375 C 151.652344 98.070312 152.644531 97.738281 153.417969 98.179688 C 154.1875 98.566406 154.519531 99.558594 154.078125 100.332031 L 150.710938 106.839844 C 150.65625 107.007812 150.546875 107.117188 150.4375 107.226562 Z M 150.4375 107.226562 " fill-opacity="1" fill-rule="nonzero"/><path fill="#d9d9d9" d="M 117.722656 170.617188 C 117.222656 171.113281 116.507812 171.226562 115.84375 170.949219 C 115.074219 170.5625 114.6875 169.570312 115.128906 168.796875 L 118.21875 162.453125 C 118.605469 161.625 119.597656 161.292969 120.371094 161.734375 C 121.140625 162.121094 121.527344 163.113281 121.085938 163.886719 L 117.996094 170.230469 C 117.941406 170.34375 117.832031 170.507812 117.722656 170.617188 Z M 117.722656 170.617188 " fill-opacity="1" fill-rule="nonzero"/><path fill="#d9d9d9" d="M 131.070312 104.414062 C 130.851562 104.632812 130.519531 104.800781 130.191406 104.855469 C 129.308594 104.964844 128.480469 104.359375 128.367188 103.476562 L 127.375 96.523438 C 127.265625 95.640625 127.871094 94.816406 128.753906 94.703125 C 129.636719 94.59375 130.464844 95.199219 130.574219 96.082031 L 131.570312 103.035156 C 131.570312 103.53125 131.402344 104.027344 131.070312 104.414062 Z M 131.070312 104.414062 " fill-opacity="1" fill-rule="nonzero"/><path fill="#d9d9d9" d="M 115.402344 115.945312 C 109.996094 121.351562 106.742188 127.972656 106.191406 134.648438 C 105.582031 141.929688 108.175781 148.660156 113.636719 154.121094 C 119.816406 160.300781 129.363281 164.4375 138.628906 164.933594 L 139.789062 164.992188 C 140.890625 164.992188 141.996094 164.933594 143.15625 164.878906 C 144.421875 164.878906 145.359375 165.101562 146.242188 165.488281 L 146.242188 165.652344 L 147.734375 166.425781 C 148.78125 167.363281 150.105469 167.859375 151.429688 167.75 C 152.753906 167.695312 154.023438 167.085938 154.90625 166.148438 L 165.773438 155.28125 C 167.152344 153.625 167.375 151.363281 166.382812 149.324219 C 166.269531 149.101562 166.160156 148.882812 165.996094 148.714844 L 165.609375 148.164062 C 164.617188 146.675781 164.339844 145.460938 164.339844 144.082031 C 165.386719 133.652344 161.140625 121.683594 153.800781 114.234375 C 142.988281 103.421875 127.265625 104.082031 115.402344 115.945312 Z M 148.890625 119.035156 C 154.851562 125.046875 158.382812 135.089844 157.5 143.53125 L 157.5 143.914062 C 157.554688 145.957031 157.828125 148.660156 159.761719 151.640625 L 150.988281 160.355469 C 147.953125 158.371094 145.140625 158.09375 142.988281 158.09375 L 142.714844 158.09375 C 142.105469 158.148438 141.5 158.203125 140.890625 158.203125 L 139.789062 158.203125 C 132.011719 158.039062 123.625 154.5625 118.4375 149.378906 C 114.464844 145.351562 112.535156 140.496094 112.976562 135.253906 C 113.363281 130.179688 115.957031 125.046875 120.257812 120.746094 C 129.195312 111.75 141.003906 111.089844 148.890625 119.035156 Z M 148.890625 119.035156 " fill-opacity="1" fill-rule="nonzero"/><path fill="#d9d9d9" d="M 157.996094 171.554688 L 170.90625 158.703125 C 171.734375 157.875 171.675781 156.496094 170.792969 155.613281 L 170.410156 155.226562 C 169.527344 154.34375 168.144531 154.289062 167.320312 155.117188 L 154.410156 167.96875 C 153.582031 168.796875 153.636719 170.175781 154.519531 171.058594 L 154.90625 171.445312 C 155.789062 172.328125 157.167969 172.382812 157.996094 171.554688 Z M 157.996094 171.554688 " fill-opacity="1" fill-rule="nonzero"/><path fill="#d9d9d9" d="M 167.980469 163.171875 L 168.644531 163.832031 C 169.691406 164.878906 169.691406 166.480469 168.753906 167.417969 L 166.765625 169.402344 C 165.828125 170.34375 164.175781 170.285156 163.179688 169.292969 L 162.519531 168.632812 Z M 167.980469 163.171875 " fill-opacity="1" fill-rule="nonzero"/><path fill="#d9d9d9" d="M 143.597656 126.703125 C 141.554688 127.585938 140.890625 129.957031 141.222656 131.890625 C 141.5 133.597656 142.105469 135.253906 142.769531 136.796875 C 141.941406 137.902344 141.113281 138.949219 140.230469 139.832031 L 140.066406 140 C 139.953125 140.109375 139.898438 140.164062 139.789062 140.273438 C 139.679688 140.386719 139.511719 140.550781 139.402344 140.660156 C 138.464844 141.542969 137.472656 142.371094 136.367188 143.199219 C 135.265625 142.757812 134.160156 142.425781 133.113281 142.09375 C 130.574219 141.269531 128.589844 141.488281 127.210938 142.8125 C 125.722656 144.191406 125.554688 146.398438 126.878906 148 C 128.480469 149.929688 130.851562 150.261719 133.886719 148.9375 C 134.050781 148.882812 134.273438 148.824219 134.492188 148.714844 C 134.660156 148.605469 134.878906 148.496094 135.042969 148.382812 L 135.265625 148.273438 C 135.816406 148 136.367188 147.667969 136.976562 147.226562 C 139.238281 148.21875 141.609375 149.488281 144.3125 151.085938 C 148.394531 153.570312 152.257812 156.605469 155.734375 160.082031 C 155.789062 160.136719 155.898438 160.191406 155.953125 160.300781 L 156.230469 160.523438 L 160.203125 156.550781 L 159.980469 156.273438 C 159.925781 156.21875 159.871094 156.109375 159.761719 156.054688 C 156.230469 152.632812 153.195312 148.769531 150.710938 144.6875 C 149.113281 142.039062 147.84375 139.667969 146.851562 137.460938 C 149.386719 133.652344 149.941406 130.730469 148.507812 128.46875 C 147.511719 126.921875 145.527344 125.820312 143.597656 126.703125 Z M 145.582031 131.558594 C 145.527344 132 145.359375 132.441406 145.140625 132.992188 C 145.03125 132.605469 144.917969 132.21875 144.808594 131.832031 C 144.644531 131.28125 144.644531 130.289062 144.863281 130.011719 C 144.863281 130.011719 144.917969 129.957031 145.085938 129.957031 C 145.636719 130.125 145.691406 131.0625 145.582031 131.558594 Z M 144.421875 140.605469 C 145.140625 142.148438 145.96875 143.695312 146.796875 145.183594 C 148.007812 147.226562 149.332031 149.265625 150.769531 151.199219 C 147.402344 148.714844 143.871094 146.617188 140.175781 144.910156 C 140.5625 144.578125 140.949219 144.191406 141.390625 143.804688 C 141.664062 143.585938 141.886719 143.308594 142.160156 143.089844 L 142.492188 142.757812 C 143.15625 142.039062 143.816406 141.324219 144.421875 140.605469 Z M 132.5625 145.679688 C 132.011719 145.902344 131.570312 146.066406 131.128906 146.121094 C 130.632812 146.234375 129.691406 146.175781 129.582031 145.679688 C 129.527344 145.515625 129.582031 145.460938 129.636719 145.460938 C 129.914062 145.183594 130.851562 145.238281 131.457031 145.40625 C 131.789062 145.460938 132.175781 145.570312 132.5625 145.679688 Z M 132.5625 145.679688 " fill-opacity="1" fill-rule="nonzero"/><g clip-path="url(#7aa431ad2d)"><g clip-path="url(#000a06245a)"><path fill="#d9d9d9" d="M 213.847656 86.882812 L 303.933594 86.882812 L 303.933594 176.96875 L 213.847656 176.96875 Z M 213.847656 86.882812 " fill-opacity="1" fill-rule="nonzero"/></g></g><g clip-path="url(#6668ef06d8)"><g clip-path="url(#42dcd288d6)"><path fill="#d9d9d9" d="M 89.617188 86.882812 L 186.46875 86.882812 L 186.46875 183.734375 L 89.617188 183.734375 Z M 89.617188 86.882812 " fill-opacity="1" fill-rule="nonzero"/></g></g><g clip-path="url(#71bdb4b4ca)"><g clip-path="url(#983f8f1620)"><path fill="#d9d9d9" d="M 203.367188 210.164062 L 293.453125 210.164062 L 293.453125 300.25 L 203.367188 300.25 Z M 203.367188 210.164062 " fill-opacity="1" fill-rule="nonzero"/></g></g><g clip-path="url(#0d5bbb6225)"><g clip-path="url(#96febc5137)"><path fill="#d9d9d9" d="M 96.382812 210.164062 L 186.46875 210.164062 L 186.46875 300.25 L 96.382812 300.25 Z M 96.382812 210.164062 " fill-opacity="1" fill-rule="nonzero"/></g></g><g clip-path="url(#e08a823d37)"><g clip-path="url(#ff75ce081b)"><g clip-path="url(#67a199765c)"><g clip-path="url(#a70b549613)"><path fill="#000000" d="M 169.722656 118.15625 L 168.554688 117.296875 L 137.878906 135.917969 C 137.597656 134.386719 137.03125 133.027344 136.335938 131.882812 C 136.277344 131.785156 136.21875 131.691406 136.160156 131.59375 L 143.007812 126.652344 L 142.660156 126.078125 L 135.367188 130.503906 C 132.730469 127.65625 128.824219 127.410156 125.148438 129.25 L 121.285156 123.742188 C 121.285156 123.742188 120.726562 123.035156 120.234375 123.074219 L 120.175781 122.976562 C 120.175781 122.976562 120.078125 123.035156 120.078125 123.035156 C 120.078125 123.035156 119.984375 123.09375 119.984375 123.09375 L 120.042969 123.1875 C 119.78125 123.609375 120.152344 124.429688 120.152344 124.429688 L 123.253906 130.398438 C 119.925781 132.8125 118.339844 136.390625 119.652344 140.046875 L 112.359375 144.46875 L 112.710938 145.042969 L 120.253906 141.25 C 120.3125 141.347656 120.371094 141.441406 120.425781 141.539062 C 121.125 142.683594 122.164062 143.753906 123.296875 144.769531 L 92.617188 163.390625 L 92.84375 164.824219 L 99.914062 161.316406 C 99.859375 161.875 100.054688 162.410156 100.347656 162.886719 C 101.160156 164.226562 102.992188 164.683594 104.316406 163.878906 C 105.644531 163.074219 106.082031 161.238281 105.269531 159.898438 C 105.039062 159.515625 104.769531 159.285156 104.5 159.058594 L 110.1875 156.257812 C 110.195312 156.910156 110.351562 157.597656 110.699219 158.171875 C 111.746094 159.894531 114.035156 160.464844 115.742188 159.429688 C 117.445312 158.398438 117.898438 156.15625 116.855469 154.4375 C 116.625 154.054688 116.296875 153.730469 115.96875 153.402344 L 128.347656 147.328125 C 130.542969 147.957031 132.828125 147.878906 134.628906 146.789062 C 136.425781 145.695312 137.550781 143.707031 138.007812 141.464844 L 149.109375 133.289062 C 149.152344 133.785156 149.382812 134.167969 149.617188 134.550781 C 150.660156 136.273438 152.953125 136.84375 154.65625 135.808594 C 156.359375 134.773438 156.910156 132.476562 155.863281 130.757812 C 155.515625 130.183594 154.980469 129.722656 154.40625 129.417969 L 159.511719 125.664062 C 159.589844 126.007812 159.726562 126.449219 159.902344 126.734375 C 160.714844 128.074219 162.546875 128.53125 163.875 127.726562 C 165.199219 126.921875 165.636719 125.085938 164.824219 123.746094 C 164.535156 123.269531 164.054688 122.90625 163.632812 122.636719 Z M 169.722656 118.15625 " fill-opacity="1" fill-rule="nonzero"/></g></g></g></g><g clip-path="url(#d2681e6d2a)"><path fill="#000000" d="M 270.984375 101.988281 C 267.226562 99.972656 263.21875 99.03125 258.960938 99.160156 C 256.808594 99.09375 254.6875 99.316406 252.597656 99.824219 C 250.503906 100.332031 248.519531 101.109375 246.636719 102.15625 C 245.730469 102.695312 244.863281 103.285156 244.035156 103.9375 C 243.203125 104.589844 242.421875 105.289062 241.683594 106.042969 C 240.949219 106.800781 240.265625 107.597656 239.632812 108.445312 C 239 109.289062 238.425781 110.171875 237.910156 111.09375 C 237.394531 112.011719 236.941406 112.964844 236.550781 113.945312 C 236.160156 114.925781 235.835938 115.929688 235.574219 116.953125 C 235.316406 117.976562 235.125 119.011719 235 120.0625 C 234.875 121.113281 234.820312 122.164062 234.835938 123.222656 C 235.121094 132.820312 241.207031 141.679688 246.625 149.386719 C 250.453125 154.863281 254.5625 160.113281 258.960938 165.140625 C 266.597656 156.445312 273.925781 146.914062 279.199219 136.574219 C 281.414062 132.234375 283.089844 127.867188 283.089844 123.027344 C 283.09375 121.964844 283.023438 120.90625 282.886719 119.851562 C 282.75 118.800781 282.546875 117.757812 282.273438 116.734375 C 282 115.707031 281.660156 114.703125 281.253906 113.722656 C 280.851562 112.738281 280.382812 111.789062 279.855469 110.871094 C 279.324219 109.949219 278.738281 109.070312 278.09375 108.226562 C 277.449219 107.386719 276.753906 106.589844 276.003906 105.839844 C 275.253906 105.089844 274.460938 104.390625 273.621094 103.746094 C 272.777344 103.101562 271.902344 102.515625 270.984375 101.988281 Z M 258.960938 143.34375 C 258.316406 143.34375 257.675781 143.3125 257.035156 143.25 C 256.394531 143.183594 255.757812 143.089844 255.128906 142.964844 C 254.496094 142.839844 253.875 142.679688 253.257812 142.492188 C 252.640625 142.304688 252.039062 142.089844 251.441406 141.839844 C 250.847656 141.59375 250.269531 141.316406 249.699219 141.011719 C 249.132812 140.707031 248.582031 140.375 248.046875 140.015625 C 247.511719 139.65625 246.996094 139.273438 246.5 138.863281 C 246.003906 138.453125 245.527344 138.019531 245.070312 137.5625 C 244.617188 137.105469 244.183594 136.628906 243.777344 136.128906 C 243.367188 135.628906 242.984375 135.109375 242.628906 134.574219 C 242.269531 134.035156 241.941406 133.480469 241.636719 132.910156 C 241.335938 132.339844 241.058594 131.757812 240.8125 131.160156 C 240.566406 130.5625 240.351562 129.957031 240.164062 129.335938 C 239.976562 128.71875 239.820312 128.09375 239.695312 127.457031 C 239.570312 126.824219 239.476562 126.1875 239.414062 125.542969 C 239.351562 124.898438 239.320312 124.253906 239.320312 123.609375 C 239.320312 122.960938 239.351562 122.316406 239.414062 121.675781 C 239.476562 121.03125 239.570312 120.390625 239.695312 119.757812 C 239.820312 119.125 239.976562 118.496094 240.164062 117.878906 C 240.351562 117.261719 240.566406 116.652344 240.8125 116.054688 C 241.058594 115.457031 241.335938 114.875 241.636719 114.304688 C 241.941406 113.734375 242.269531 113.179688 242.628906 112.644531 C 242.984375 112.105469 243.367188 111.589844 243.777344 111.089844 C 244.183594 110.589844 244.617188 110.109375 245.070312 109.652344 C 245.527344 109.195312 246.003906 108.761719 246.5 108.351562 C 246.996094 107.941406 247.511719 107.558594 248.046875 107.199219 C 248.582031 106.839844 249.132812 106.507812 249.699219 106.203125 C 250.269531 105.898438 250.847656 105.621094 251.441406 105.375 C 252.039062 105.128906 252.640625 104.910156 253.257812 104.722656 C 253.875 104.535156 254.496094 104.378906 255.128906 104.253906 C 255.757812 104.125 256.394531 104.03125 257.035156 103.96875 C 257.675781 103.90625 258.316406 103.875 258.960938 103.875 C 259.601562 103.875 260.246094 103.90625 260.882812 103.96875 C 261.523438 104.03125 262.160156 104.125 262.792969 104.253906 C 263.421875 104.378906 264.046875 104.535156 264.660156 104.722656 C 265.277344 104.910156 265.882812 105.128906 266.476562 105.375 C 267.070312 105.621094 267.652344 105.898438 268.21875 106.203125 C 268.785156 106.507812 269.335938 106.839844 269.871094 107.199219 C 270.40625 107.558594 270.921875 107.941406 271.417969 108.351562 C 271.917969 108.761719 272.394531 109.195312 272.847656 109.652344 C 273.300781 110.109375 273.734375 110.589844 274.140625 111.089844 C 274.550781 111.589844 274.933594 112.105469 275.289062 112.644531 C 275.648438 113.179688 275.976562 113.734375 276.28125 114.304688 C 276.585938 114.875 276.859375 115.457031 277.105469 116.054688 C 277.351562 116.652344 277.566406 117.261719 277.753906 117.878906 C 277.941406 118.496094 278.097656 119.125 278.222656 119.757812 C 278.347656 120.390625 278.441406 121.03125 278.503906 121.675781 C 278.570312 122.316406 278.601562 122.960938 278.601562 123.609375 C 278.601562 124.253906 278.570312 124.898438 278.503906 125.542969 C 278.441406 126.1875 278.347656 126.824219 278.222656 127.457031 C 278.097656 128.09375 277.941406 128.71875 277.753906 129.335938 C 277.566406 129.957031 277.351562 130.5625 277.105469 131.160156 C 276.859375 131.757812 276.585938 132.339844 276.28125 132.910156 C 275.976562 133.480469 275.648438 134.035156 275.289062 134.574219 C 274.933594 135.109375 274.550781 135.628906 274.140625 136.128906 C 273.734375 136.628906 273.300781 137.105469 272.847656 137.5625 C 272.394531 138.019531 271.917969 138.453125 271.417969 138.863281 C 270.921875 139.273438 270.40625 139.65625 269.871094 140.015625 C 269.335938 140.375 268.785156 140.707031 268.21875 141.011719 C 267.652344 141.316406 267.070312 141.59375 266.476562 141.839844 C 265.882812 142.089844 265.277344 142.304688 264.660156 142.492188 C 264.046875 142.679688 263.421875 142.839844 262.792969 142.964844 C 262.160156 143.089844 261.523438 143.183594 260.882812 143.25 C 260.246094 143.3125 259.601562 143.34375 258.960938 143.34375 Z M 258.960938 143.34375 " fill-opacity="1" fill-rule="nonzero"/></g><path fill="#000000" d="M 255.441406 126.257812 L 255.441406 120.484375 C 255.441406 120.484375 267.519531 119.136719 270.640625 125.578125 C 270.671875 125.65625 270.683594 125.738281 270.675781 125.820312 C 270.667969 125.90625 270.640625 125.980469 270.59375 126.050781 C 270.546875 126.117188 270.484375 126.171875 270.410156 126.210938 C 270.332031 126.246094 270.253906 126.261719 270.171875 126.257812 Z M 255.441406 126.257812 " fill-opacity="1" fill-rule="nonzero"/><path fill="#000000" d="M 254.269531 122.753906 C 254.269531 123.066406 254.210938 123.367188 254.089844 123.65625 C 253.972656 123.945312 253.800781 124.199219 253.582031 124.421875 C 253.363281 124.640625 253.109375 124.8125 252.820312 124.929688 C 252.535156 125.050781 252.234375 125.109375 251.925781 125.109375 C 251.613281 125.109375 251.3125 125.050781 251.027344 124.929688 C 250.738281 124.8125 250.484375 124.640625 250.265625 124.421875 C 250.046875 124.199219 249.875 123.945312 249.757812 123.65625 C 249.636719 123.367188 249.578125 123.066406 249.578125 122.753906 C 249.578125 122.441406 249.636719 122.140625 249.757812 121.851562 C 249.875 121.5625 250.046875 121.308594 250.265625 121.085938 C 250.484375 120.867188 250.738281 120.695312 251.027344 120.578125 C 251.3125 120.457031 251.613281 120.398438 251.925781 120.398438 C 252.234375 120.398438 252.535156 120.457031 252.820312 120.578125 C 253.109375 120.695312 253.363281 120.867188 253.582031 121.085938 C 253.800781 121.308594 253.972656 121.5625 254.089844 121.851562 C 254.210938 122.140625 254.269531 122.441406 254.269531 122.753906 Z M 254.269531 122.753906 " fill-opacity="1" fill-rule="nonzero"/><path fill="#000000" d="M 246.648438 114.476562 C 246.878906 114.476562 247.105469 114.523438 247.320312 114.613281 C 247.535156 114.703125 247.726562 114.828125 247.890625 114.996094 C 248.054688 115.160156 248.183594 115.351562 248.273438 115.566406 C 248.363281 115.785156 248.40625 116.011719 248.40625 116.246094 L 248.40625 132.09375 L 244.886719 132.09375 L 244.886719 116.246094 C 244.886719 116.011719 244.933594 115.785156 245.023438 115.566406 C 245.113281 115.351562 245.238281 115.160156 245.402344 114.996094 C 245.570312 114.828125 245.757812 114.703125 245.972656 114.613281 C 246.191406 114.523438 246.414062 114.476562 246.648438 114.476562 Z M 246.648438 114.476562 " fill-opacity="1" fill-rule="nonzero"/><path fill="#000000" d="M 271.273438 121.546875 C 271.503906 121.546875 271.730469 121.589844 271.945312 121.679688 C 272.160156 121.769531 272.351562 121.898438 272.515625 122.0625 C 272.679688 122.230469 272.808594 122.421875 272.898438 122.636719 C 272.984375 122.855469 273.03125 123.078125 273.03125 123.3125 L 273.03125 132.148438 L 269.511719 132.148438 L 269.511719 123.3125 C 269.511719 123.078125 269.558594 122.855469 269.648438 122.636719 C 269.734375 122.421875 269.863281 122.230469 270.027344 122.0625 C 270.191406 121.898438 270.382812 121.769531 270.597656 121.679688 C 270.8125 121.589844 271.039062 121.546875 271.273438 121.546875 Z M 271.273438 121.546875 " fill-opacity="1" fill-rule="nonzero"/><path fill="#000000" d="M 248.40625 129.773438 L 248.40625 126.257812 L 269.511719 126.257812 L 269.511719 129.773438 Z M 248.40625 129.773438 " fill-opacity="1" fill-rule="nonzero"/><g clip-path="url(#654f2f5efb)"><path fill="#000000" d="M 270.371094 232.335938 L 268.828125 232.335938 C 268.753906 232.335938 268.609375 232.410156 268.535156 232.410156 L 268.535156 229.269531 C 268.535156 226.570312 266.328125 224.304688 263.535156 224.304688 L 233.691406 224.304688 C 230.972656 224.304688 228.691406 226.496094 228.691406 229.269531 L 228.691406 232.410156 C 228.621094 232.410156 228.472656 232.335938 228.398438 232.335938 L 226.855469 232.335938 C 225.972656 232.335938 225.164062 233.066406 225.164062 234.015625 L 225.164062 243 C 225.164062 243.875 225.898438 244.679688 226.855469 244.679688 L 228.398438 244.679688 C 228.472656 244.679688 228.621094 244.605469 228.691406 244.605469 L 228.691406 264.320312 C 228.691406 266.65625 230.308594 268.554688 232.515625 269.140625 L 232.515625 275.054688 C 232.515625 275.929688 233.25 276.734375 234.207031 276.734375 L 239.792969 276.734375 C 240.675781 276.734375 241.484375 276.003906 241.484375 275.054688 L 241.484375 269.285156 L 255.890625 269.285156 L 255.890625 275.054688 C 255.890625 275.929688 256.625 276.734375 257.582031 276.734375 L 263.167969 276.734375 C 264.050781 276.734375 264.859375 276.003906 264.859375 275.054688 L 264.859375 269.140625 C 266.992188 268.628906 268.679688 266.65625 268.679688 264.320312 L 268.679688 244.605469 C 268.753906 244.605469 268.902344 244.679688 268.976562 244.679688 L 270.519531 244.679688 C 271.402344 244.679688 272.210938 243.949219 272.210938 243 L 272.210938 233.945312 C 272.0625 233.066406 271.253906 232.335938 270.371094 232.335938 Z M 235.308594 226.789062 L 261.992188 226.789062 L 261.992188 228.320312 L 235.308594 228.320312 Z M 235.601562 266.21875 C 233.914062 266.21875 232.589844 264.902344 232.589844 263.226562 C 232.589844 261.546875 233.914062 260.230469 235.601562 260.230469 C 237.292969 260.230469 238.617188 261.546875 238.617188 263.226562 C 238.617188 264.832031 237.21875 266.21875 235.601562 266.21875 Z M 261.625 266.21875 C 259.933594 266.21875 258.609375 264.902344 258.609375 263.226562 C 258.609375 261.546875 259.933594 260.230469 261.625 260.230469 C 263.316406 260.230469 264.636719 261.546875 264.636719 263.226562 C 264.636719 264.832031 263.316406 266.21875 261.625 266.21875 Z M 266.476562 254.828125 L 230.75 254.828125 L 230.75 231.753906 L 266.476562 231.753906 Z M 266.476562 254.828125 " fill-opacity="1" fill-rule="nonzero"/></g><g clip-path="url(#cc485c9d71)"><path fill="#000000" d="M 158.511719 243.378906 L 117.394531 243.378906 C 114.234375 243.378906 111.671875 245.960938 111.671875 249.148438 L 111.671875 263.714844 L 164.230469 263.714844 L 164.230469 249.148438 C 164.230469 245.960938 161.671875 243.378906 158.511719 243.378906 Z M 125.800781 253.601562 C 125.800781 255.792969 124.039062 257.570312 121.867188 257.570312 L 121.660156 257.570312 C 119.484375 257.570312 117.722656 255.792969 117.722656 253.601562 L 117.722656 253.390625 C 117.722656 251.199219 119.484375 249.421875 121.660156 249.421875 L 121.867188 249.421875 C 124.039062 249.421875 125.800781 251.199219 125.800781 253.390625 Z M 158.222656 253.601562 C 158.222656 255.792969 156.460938 257.570312 154.289062 257.570312 L 154.082031 257.570312 C 151.90625 257.570312 150.144531 255.792969 150.144531 253.601562 L 150.144531 253.390625 C 150.144531 251.199219 151.90625 249.421875 154.082031 249.421875 L 154.289062 249.421875 C 156.460938 249.421875 158.222656 251.199219 158.222656 253.390625 Z M 158.222656 253.601562 " fill-opacity="1" fill-rule="nonzero"/></g><g clip-path="url(#31fdbfd20f)"><path fill="#000000" d="M 151.429688 231.425781 C 152.753906 231.425781 153.9375 232.597656 154.246094 234.214844 L 155.894531 242.859375 L 120.058594 242.859375 L 121.859375 234.148438 C 122.191406 232.546875 123.34375 231.425781 124.664062 231.425781 L 151.429688 231.425781 M 151.429688 229.035156 L 124.664062 229.035156 C 122.222656 229.035156 120.097656 230.949219 119.539062 233.660156 L 117.140625 245.25 L 158.765625 245.25 L 156.574219 233.761719 C 156.050781 231.003906 153.90625 229.035156 151.429688 229.035156 Z M 151.429688 229.035156 " fill-opacity="1" fill-rule="nonzero"/></g><g clip-path="url(#665ceb2612)"><path fill="#000000" d="M 156.511719 271.875 L 155.925781 271.875 C 153.300781 271.875 151.167969 269.730469 151.167969 267.078125 L 151.167969 261.691406 L 161.269531 261.691406 L 161.269531 267.078125 C 161.269531 269.726562 159.136719 271.875 156.511719 271.875 Z M 156.511719 271.875 " fill-opacity="1" fill-rule="nonzero"/></g><g clip-path="url(#abce0517a6)"><path fill="#000000" d="M 119.980469 271.875 L 119.394531 271.875 C 116.769531 271.875 114.636719 269.730469 114.636719 267.078125 L 114.636719 261.691406 L 124.734375 261.691406 L 124.734375 267.078125 C 124.734375 269.726562 122.605469 271.875 119.980469 271.875 Z M 119.980469 271.875 " fill-opacity="1" fill-rule="nonzero"/></g><g clip-path="url(#e861a79f23)"><path fill="#000000" d="M 214.324219 178.175781 L 326.871094 178.175781 C 331.613281 178.175781 335.367188 174.09375 334.871094 169.402344 C 328.304688 106.289062 278.210938 56.195312 215.097656 49.628906 C 210.40625 49.132812 206.324219 52.886719 206.324219 57.628906 L 206.324219 170.175781 C 206.324219 174.589844 209.910156 178.175781 214.324219 178.175781 Z M 214.324219 178.175781 " fill-opacity="1" fill-rule="nonzero"/></g><path fill="#000000" d="M 187.675781 178.175781 L 187.675781 65.574219 C 187.675781 60.828125 183.59375 57.078125 178.90625 57.574219 C 115.789062 64.195312 65.695312 114.289062 59.128906 177.402344 C 58.632812 182.09375 62.386719 186.175781 67.128906 186.175781 L 179.675781 186.175781 C 184.089844 186.175781 187.675781 182.589844 187.675781 178.175781 Z M 187.675781 178.175781 " fill-opacity="1" fill-rule="nonzero"/><g clip-path="url(#d136c00fc0)"><path fill="#000000" d="M 198.324219 204.824219 L 198.324219 317.371094 C 198.324219 322.113281 202.40625 325.867188 207.097656 325.371094 C 270.210938 318.804688 320.304688 268.710938 326.871094 205.597656 C 327.367188 200.90625 323.617188 196.824219 318.871094 196.824219 L 206.324219 196.824219 C 201.910156 196.824219 198.324219 200.410156 198.324219 204.824219 Z M 198.324219 204.824219 " fill-opacity="1" fill-rule="nonzero"/></g><g clip-path="url(#10250752f9)"><path fill="#000000" d="M 179.675781 196.824219 L 67.128906 196.824219 C 62.386719 196.824219 58.632812 200.90625 59.128906 205.597656 C 65.695312 268.710938 115.789062 318.804688 178.90625 325.371094 C 183.59375 325.867188 187.675781 322.113281 187.675781 317.371094 L 187.675781 204.824219 C 187.675781 200.410156 184.089844 196.824219 179.675781 196.824219 Z M 179.675781 196.824219 " fill-opacity="1" fill-rule="nonzero"/></g><path fill="#ffffff" d="M 261.933594 113.957031 C 257.410156 113.957031 253.769531 117.542969 253.550781 122.011719 L 262.542969 119.585938 C 263.257812 119.421875 263.976562 119.585938 264.472656 120.082031 C 264.96875 120.578125 265.191406 121.296875 264.96875 122.011719 L 262.652344 130.730469 C 267.011719 130.398438 270.488281 126.8125 270.488281 122.398438 C 270.375 117.765625 266.625 113.957031 261.933594 113.957031 Z M 261.933594 113.957031 " fill-opacity="1" fill-rule="nonzero"/><path fill="#ffffff" d="M 259.507812 134.648438 L 263.039062 121.570312 L 249.910156 125.046875 L 252.613281 127.75 L 237.660156 142.703125 L 233.355469 141.488281 L 222.984375 151.96875 L 229.441406 153.847656 L 230.378906 154.785156 L 232.308594 161.238281 L 242.734375 150.757812 L 241.632812 147.117188 L 256.804688 131.945312 Z M 259.507812 134.648438 " fill-opacity="1" fill-rule="nonzero"/><path fill="#ffffff" d="M 261.933594 101.65625 C 250.460938 101.65625 241.191406 110.980469 241.191406 122.453125 C 241.191406 126.425781 242.351562 130.125 244.335938 133.324219 L 248.695312 128.964844 C 247.703125 126.980469 247.148438 124.773438 247.148438 122.453125 C 247.148438 114.289062 253.824219 107.613281 261.992188 107.613281 C 270.15625 107.613281 276.832031 114.289062 276.832031 122.453125 C 276.832031 130.621094 270.15625 137.296875 261.992188 137.296875 C 259.730469 137.296875 257.632812 136.742188 255.757812 135.859375 L 251.398438 140.21875 C 254.488281 142.09375 258.128906 143.199219 261.992188 143.199219 C 273.464844 143.199219 282.734375 133.875 282.734375 122.453125 C 282.679688 110.980469 273.355469 101.65625 261.933594 101.65625 Z M 261.933594 101.65625 " fill-opacity="1" fill-rule="nonzero"/><path fill="#ffffff" d="M 261.933594 90.457031 C 244.28125 90.457031 229.9375 104.800781 229.9375 122.453125 C 229.9375 129.570312 232.308594 136.027344 236.28125 141.378906 L 240.472656 137.183594 C 237.605469 132.992188 235.894531 127.917969 235.894531 122.453125 C 235.894531 108.054688 247.589844 96.359375 261.992188 96.359375 C 276.390625 96.359375 288.085938 108.054688 288.085938 122.453125 C 288.085938 136.855469 276.390625 148.550781 261.992188 148.550781 C 256.640625 148.550781 251.671875 146.894531 247.480469 144.136719 L 243.289062 148.328125 C 248.527344 152.136719 254.984375 154.453125 261.992188 154.453125 C 279.644531 154.453125 293.988281 140.109375 293.988281 122.453125 C 293.878906 104.800781 279.535156 90.457031 261.933594 90.457031 Z M 261.933594 90.457031 " fill-opacity="1" fill-rule="nonzero"/><path fill="#ffffff" d="M 242.351562 246.753906 L 223.09375 232.242188 L 223.425781 226.449219 L 241.355469 240.023438 L 257.300781 218.5625 L 261.164062 221.429688 Z M 242.351562 246.753906 " fill-opacity="1" fill-rule="nonzero"/><path fill="#ffffff" d="M 248.03125 243.386719 C 248.03125 246.808594 245.273438 249.566406 241.851562 249.566406 C 238.433594 249.566406 235.675781 246.808594 235.675781 243.386719 C 235.675781 239.964844 238.433594 237.207031 241.851562 237.207031 C 245.273438 237.207031 248.03125 239.964844 248.03125 243.386719 Z M 248.03125 243.386719 " fill-opacity="1" fill-rule="nonzero"/><path fill="#ffffff" d="M 266.625 219.996094 C 266.625 223.414062 263.867188 226.175781 260.445312 226.175781 C 257.023438 226.175781 254.265625 223.414062 254.265625 219.996094 C 254.265625 216.574219 257.023438 213.816406 260.445312 213.816406 C 263.867188 213.761719 266.625 216.574219 266.625 219.996094 Z M 266.625 219.996094 " fill-opacity="1" fill-rule="nonzero"/><path fill="#ffffff" d="M 229.496094 229.375 C 229.496094 232.792969 226.738281 235.554688 223.316406 235.554688 C 219.894531 235.554688 217.136719 232.792969 217.136719 229.375 C 217.136719 225.953125 219.894531 223.195312 223.316406 223.195312 C 226.683594 223.140625 229.496094 225.953125 229.496094 229.375 Z M 229.496094 229.375 " fill-opacity="1" fill-rule="nonzero"/><path fill="#ffffff" d="M 217.027344 242.449219 L 229.496094 242.449219 L 229.496094 278.144531 L 217.027344 278.144531 Z M 217.027344 242.449219 " fill-opacity="1" fill-rule="nonzero"/><path fill="#ffffff" d="M 235.398438 254.972656 L 247.867188 254.972656 L 247.867188 277.757812 L 235.398438 277.757812 Z M 235.398438 254.972656 " fill-opacity="1" fill-rule="nonzero"/><path fill="#ffffff" d="M 254.210938 233.402344 L 266.679688 233.402344 L 266.679688 278.089844 L 254.210938 278.089844 Z M 254.210938 233.402344 " fill-opacity="1" fill-rule="nonzero"/><path fill="#ffffff" d="M 157.71875 224.242188 L 157.71875 217.679688 C 157.71875 215.96875 156.285156 214.535156 154.574219 214.535156 L 127.597656 214.535156 C 127.484375 214.535156 127.429688 214.589844 127.375 214.589844 C 127.101562 214.589844 126.824219 214.644531 126.546875 214.753906 C 126.4375 214.808594 126.328125 214.808594 126.21875 214.863281 C 125.941406 214.976562 125.722656 215.140625 125.5 215.359375 C 125.445312 215.414062 125.390625 215.472656 125.335938 215.527344 C 125.335938 215.527344 125.28125 215.527344 125.28125 215.582031 L 110.878906 230.863281 C 110.769531 230.972656 110.714844 231.140625 110.605469 231.25 C 110.492188 231.414062 110.328125 231.636719 110.21875 231.855469 C 110.109375 232.078125 110.109375 232.351562 110.050781 232.574219 C 110.050781 232.683594 109.941406 232.851562 109.941406 233.015625 L 109.941406 273.289062 C 109.941406 275.054688 111.375 276.433594 113.085938 276.433594 L 154.519531 276.433594 C 156.230469 276.433594 157.664062 275.054688 157.664062 273.289062 L 157.664062 266.28125 C 155.566406 266.558594 153.417969 266.449219 151.375 266.0625 L 151.375 270.144531 L 116.285156 270.144531 L 116.285156 236.160156 L 127.542969 236.160156 C 129.25 236.160156 130.6875 234.726562 130.6875 233.015625 L 130.6875 220.878906 L 151.375 220.878906 L 151.375 224.574219 C 153.527344 224.078125 155.621094 224.023438 157.71875 224.242188 Z M 157.71875 224.242188 " fill-opacity="1" fill-rule="nonzero"/><path fill="#ffffff" d="M 134.878906 240.40625 C 134.382812 242.449219 134.21875 244.601562 134.382812 246.699219 L 124.507812 246.699219 C 122.796875 246.699219 121.363281 245.261719 121.363281 243.550781 C 121.363281 241.84375 122.796875 240.40625 124.507812 240.40625 Z M 134.878906 240.40625 " fill-opacity="1" fill-rule="nonzero"/><path fill="#ffffff" d="M 137.304688 256.132812 L 124.507812 256.132812 C 122.796875 256.132812 121.363281 254.695312 121.363281 252.988281 C 121.363281 251.277344 122.796875 249.84375 124.507812 249.84375 L 134.824219 249.84375 C 135.320312 251.992188 136.148438 254.144531 137.304688 256.132812 Z M 137.304688 256.132812 " fill-opacity="1" fill-rule="nonzero"/><path fill="#ffffff" d="M 145.914062 264.132812 C 145.359375 264.957031 144.367188 265.566406 143.265625 265.566406 L 124.507812 265.566406 C 122.796875 265.566406 121.363281 264.132812 121.363281 262.421875 C 121.363281 260.710938 122.796875 259.277344 124.507812 259.277344 L 139.570312 259.277344 C 141.390625 261.316406 143.597656 262.972656 145.914062 264.132812 Z M 145.914062 264.132812 " fill-opacity="1" fill-rule="nonzero"/><path fill="#ffffff" d="M 174.492188 263.910156 L 166.546875 252.710938 C 165.664062 254.035156 164.558594 255.195312 163.179688 256.1875 C 161.800781 257.179688 160.3125 257.785156 158.824219 258.171875 L 166.765625 269.371094 C 167.703125 270.695312 169.140625 271.359375 170.628906 271.359375 C 171.566406 271.359375 172.503906 271.082031 173.332031 270.476562 C 175.484375 269.042969 175.980469 266.0625 174.492188 263.910156 Z M 174.492188 263.910156 " fill-opacity="1" fill-rule="nonzero"/><path fill="#ffffff" d="M 155.511719 261.867188 C 154.574219 261.867188 153.636719 261.8125 152.699219 261.648438 C 148.339844 260.875 144.535156 258.503906 141.941406 254.863281 C 139.402344 251.222656 138.355469 246.863281 139.128906 242.503906 C 139.898438 238.144531 142.273438 234.339844 145.914062 231.746094 C 153.359375 226.449219 163.734375 228.214844 169.027344 235.71875 C 171.566406 239.359375 172.613281 243.71875 171.84375 248.078125 C 171.070312 252.433594 168.699219 256.242188 165.058594 258.835938 C 162.242188 260.820312 158.933594 261.867188 155.511719 261.867188 Z M 155.457031 235 C 153.417969 235 151.320312 235.609375 149.554688 236.878906 C 147.292969 238.476562 145.800781 240.847656 145.359375 243.550781 C 144.917969 246.257812 145.527344 248.960938 147.125 251.222656 C 148.726562 253.484375 151.097656 254.972656 153.800781 255.414062 C 156.503906 255.910156 159.207031 255.25 161.472656 253.648438 C 163.734375 252.046875 165.222656 249.675781 165.664062 246.972656 C 166.105469 244.269531 165.5 241.566406 163.898438 239.304688 C 161.855469 236.492188 158.65625 235 155.457031 235 Z M 155.457031 235 " fill-opacity="1" fill-rule="nonzero"/><path fill="#ffffff" d="M 113.417969 113.515625 C 112.8125 114.125 111.761719 114.125 111.15625 113.515625 L 106.246094 108.605469 C 105.640625 108 105.640625 106.953125 106.246094 106.34375 C 106.851562 105.738281 107.902344 105.738281 108.507812 106.34375 L 113.417969 111.253906 C 114.078125 111.917969 114.078125 112.910156 113.417969 113.515625 Z M 113.417969 113.515625 " fill-opacity="1" fill-rule="nonzero"/><path fill="#ffffff" d="M 104.257812 131.171875 C 103.929688 131.503906 103.433594 131.722656 102.878906 131.613281 L 95.929688 130.621094 C 95.046875 130.507812 94.4375 129.683594 94.550781 128.800781 C 94.660156 127.917969 95.488281 127.308594 96.371094 127.421875 L 103.320312 128.414062 C 104.203125 128.523438 104.8125 129.351562 104.699219 130.234375 C 104.699219 130.621094 104.535156 130.949219 104.257812 131.171875 Z M 104.257812 131.171875 " fill-opacity="1" fill-rule="nonzero"/><path fill="#ffffff" d="M 107.128906 150.535156 C 107.019531 150.644531 106.90625 150.757812 106.742188 150.8125 L 100.453125 154.066406 C 99.679688 154.453125 98.6875 154.175781 98.300781 153.40625 C 97.914062 152.632812 98.191406 151.640625 98.964844 151.253906 L 105.253906 148 C 106.023438 147.613281 107.019531 147.886719 107.40625 148.660156 C 107.734375 149.324219 107.625 150.039062 107.128906 150.535156 Z M 107.128906 150.535156 " fill-opacity="1" fill-rule="nonzero"/><path fill="#ffffff" d="M 170.464844 117.820312 C 170.351562 117.929688 170.1875 118.042969 170.023438 118.097656 L 163.675781 121.242188 C 162.90625 121.628906 161.914062 121.296875 161.527344 120.523438 C 161.140625 119.75 161.472656 118.757812 162.242188 118.371094 L 168.585938 115.226562 C 169.359375 114.839844 170.351562 115.171875 170.738281 115.945312 C 171.125 116.550781 170.960938 117.324219 170.464844 117.820312 Z M 170.464844 117.820312 " fill-opacity="1" fill-rule="nonzero"/><path fill="#ffffff" d="M 150.4375 107.226562 C 149.941406 107.722656 149.167969 107.835938 148.5625 107.503906 C 147.789062 107.117188 147.457031 106.125 147.898438 105.351562 L 151.265625 98.84375 C 151.652344 98.070312 152.644531 97.738281 153.417969 98.179688 C 154.1875 98.566406 154.519531 99.558594 154.078125 100.332031 L 150.710938 106.839844 C 150.65625 107.007812 150.546875 107.117188 150.4375 107.226562 Z M 150.4375 107.226562 " fill-opacity="1" fill-rule="nonzero"/><path fill="#ffffff" d="M 117.722656 170.617188 C 117.222656 171.113281 116.507812 171.226562 115.84375 170.949219 C 115.074219 170.5625 114.6875 169.570312 115.128906 168.796875 L 118.21875 162.453125 C 118.605469 161.625 119.597656 161.292969 120.371094 161.734375 C 121.140625 162.121094 121.527344 163.113281 121.085938 163.886719 L 117.996094 170.230469 C 117.941406 170.34375 117.832031 170.507812 117.722656 170.617188 Z M 117.722656 170.617188 " fill-opacity="1" fill-rule="nonzero"/><path fill="#ffffff" d="M 131.070312 104.414062 C 130.851562 104.632812 130.519531 104.800781 130.191406 104.855469 C 129.308594 104.964844 128.480469 104.359375 128.367188 103.476562 L 127.375 96.523438 C 127.265625 95.640625 127.871094 94.816406 128.753906 94.703125 C 129.636719 94.59375 130.464844 95.199219 130.574219 96.082031 L 131.570312 103.035156 C 131.570312 103.53125 131.402344 104.027344 131.070312 104.414062 Z M 131.070312 104.414062 " fill-opacity="1" fill-rule="nonzero"/><path fill="#ffffff" d="M 115.402344 115.945312 C 109.996094 121.351562 106.742188 127.972656 106.191406 134.648438 C 105.582031 141.929688 108.175781 148.660156 113.636719 154.121094 C 119.816406 160.300781 129.363281 164.4375 138.628906 164.933594 L 139.789062 164.992188 C 140.890625 164.992188 141.996094 164.933594 143.15625 164.878906 C 144.421875 164.878906 145.359375 165.101562 146.242188 165.488281 L 146.242188 165.652344 L 147.734375 166.425781 C 148.78125 167.363281 150.105469 167.859375 151.429688 167.75 C 152.753906 167.695312 154.023438 167.085938 154.90625 166.148438 L 165.773438 155.28125 C 167.152344 153.625 167.375 151.363281 166.382812 149.324219 C 166.269531 149.101562 166.160156 148.882812 165.996094 148.714844 L 165.609375 148.164062 C 164.617188 146.675781 164.339844 145.460938 164.339844 144.082031 C 165.386719 133.652344 161.140625 121.683594 153.800781 114.234375 C 142.988281 103.421875 127.265625 104.082031 115.402344 115.945312 Z M 148.890625 119.035156 C 154.851562 125.046875 158.382812 135.089844 157.5 143.53125 L 157.5 143.914062 C 157.554688 145.957031 157.828125 148.660156 159.761719 151.640625 L 150.988281 160.355469 C 147.953125 158.371094 145.140625 158.09375 142.988281 158.09375 L 142.714844 158.09375 C 142.105469 158.148438 141.5 158.203125 140.890625 158.203125 L 139.789062 158.203125 C 132.011719 158.039062 123.625 154.5625 118.4375 149.378906 C 114.464844 145.351562 112.535156 140.496094 112.976562 135.253906 C 113.363281 130.179688 115.957031 125.046875 120.257812 120.746094 C 129.195312 111.75 141.003906 111.089844 148.890625 119.035156 Z M 148.890625 119.035156 " fill-opacity="1" fill-rule="nonzero"/><path fill="#ffffff" d="M 157.996094 171.554688 L 170.90625 158.703125 C 171.734375 157.875 171.675781 156.496094 170.792969 155.613281 L 170.410156 155.226562 C 169.527344 154.34375 168.144531 154.289062 167.320312 155.117188 L 154.410156 167.96875 C 153.582031 168.796875 153.636719 170.175781 154.519531 171.058594 L 154.90625 171.445312 C 155.789062 172.328125 157.167969 172.382812 157.996094 171.554688 Z M 157.996094 171.554688 " fill-opacity="1" fill-rule="nonzero"/><path fill="#ffffff" d="M 167.980469 163.171875 L 168.644531 163.832031 C 169.691406 164.878906 169.691406 166.480469 168.753906 167.417969 L 166.765625 169.402344 C 165.828125 170.34375 164.175781 170.285156 163.179688 169.292969 L 162.519531 168.632812 Z M 167.980469 163.171875 " fill-opacity="1" fill-rule="nonzero"/><path fill="#ffffff" d="M 143.597656 126.703125 C 141.554688 127.585938 140.890625 129.957031 141.222656 131.890625 C 141.5 133.597656 142.105469 135.253906 142.769531 136.796875 C 141.941406 137.902344 141.113281 138.949219 140.230469 139.832031 L 140.066406 140 C 139.953125 140.109375 139.898438 140.164062 139.789062 140.273438 C 139.679688 140.386719 139.511719 140.550781 139.402344 140.660156 C 138.464844 141.542969 137.472656 142.371094 136.367188 143.199219 C 135.265625 142.757812 134.160156 142.425781 133.113281 142.09375 C 130.574219 141.269531 128.589844 141.488281 127.210938 142.8125 C 125.722656 144.191406 125.554688 146.398438 126.878906 148 C 128.480469 149.929688 130.851562 150.261719 133.886719 148.9375 C 134.050781 148.882812 134.273438 148.824219 134.492188 148.714844 C 134.660156 148.605469 134.878906 148.496094 135.042969 148.382812 L 135.265625 148.273438 C 135.816406 148 136.367188 147.667969 136.976562 147.226562 C 139.238281 148.21875 141.609375 149.488281 144.3125 151.085938 C 148.394531 153.570312 152.257812 156.605469 155.734375 160.082031 C 155.789062 160.136719 155.898438 160.191406 155.953125 160.300781 L 156.230469 160.523438 L 160.203125 156.550781 L 159.980469 156.273438 C 159.925781 156.21875 159.871094 156.109375 159.761719 156.054688 C 156.230469 152.632812 153.195312 148.769531 150.710938 144.6875 C 149.113281 142.039062 147.84375 139.667969 146.851562 137.460938 C 149.386719 133.652344 149.941406 130.730469 148.507812 128.46875 C 147.511719 126.921875 145.527344 125.820312 143.597656 126.703125 Z M 145.582031 131.558594 C 145.527344 132 145.359375 132.441406 145.140625 132.992188 C 145.03125 132.605469 144.917969 132.21875 144.808594 131.832031 C 144.644531 131.28125 144.644531 130.289062 144.863281 130.011719 C 144.863281 130.011719 144.917969 129.957031 145.085938 129.957031 C 145.636719 130.125 145.691406 131.0625 145.582031 131.558594 Z M 144.421875 140.605469 C 145.140625 142.148438 145.96875 143.695312 146.796875 145.183594 C 148.007812 147.226562 149.332031 149.265625 150.769531 151.199219 C 147.402344 148.714844 143.871094 146.617188 140.175781 144.910156 C 140.5625 144.578125 140.949219 144.191406 141.390625 143.804688 C 141.664062 143.585938 141.886719 143.308594 142.160156 143.089844 L 142.492188 142.757812 C 143.15625 142.039062 143.816406 141.324219 144.421875 140.605469 Z M 132.5625 145.679688 C 132.011719 145.902344 131.570312 146.066406 131.128906 146.121094 C 130.632812 146.234375 129.691406 146.175781 129.582031 145.679688 C 129.527344 145.515625 129.582031 145.460938 129.636719 145.460938 C 129.914062 145.183594 130.851562 145.238281 131.457031 145.40625 C 131.789062 145.460938 132.175781 145.570312 132.5625 145.679688 Z M 132.5625 145.679688 " fill-opacity="1" fill-rule="nonzero"/><g clip-path="url(#44e3ebcdba)"><g clip-path="url(#460e48cd7f)"><path fill="#000000" d="M 213.847656 86.882812 L 303.933594 86.882812 L 303.933594 176.96875 L 213.847656 176.96875 Z M 213.847656 86.882812 " fill-opacity="1" fill-rule="nonzero"/></g></g><g clip-path="url(#8d46c30ad1)"><g clip-path="url(#b755fca873)"><path fill="#000000" d="M 89.617188 86.882812 L 186.46875 86.882812 L 186.46875 183.734375 L 89.617188 183.734375 Z M 89.617188 86.882812 " fill-opacity="1" fill-rule="nonzero"/></g></g><g clip-path="url(#5a970658cb)"><g clip-path="url(#a499488994)"><path fill="#000000" d="M 203.367188 210.164062 L 293.453125 210.164062 L 293.453125 300.25 L 203.367188 300.25 Z M 203.367188 210.164062 " fill-opacity="1" fill-rule="nonzero"/></g></g><g clip-path="url(#b2d698f4ad)"><g clip-path="url(#722eafcf48)"><path fill="#000000" d="M 96.382812 210.164062 L 186.46875 210.164062 L 186.46875 300.25 L 96.382812 300.25 Z M 96.382812 210.164062 " fill-opacity="1" fill-rule="nonzero"/></g></g><g clip-path="url(#c6cf20bc98)"><g clip-path="url(#e076437bbc)"><g clip-path="url(#7a4a597f73)"><path fill="#ffffff" d="M 169.167969 118.117188 L 168.011719 117.273438 L 137.488281 135.800781 C 137.21875 134.289062 136.660156 132.949219 135.976562 131.820312 C 135.917969 131.726562 135.859375 131.628906 135.804688 131.535156 L 142.621094 126.625 L 142.277344 126.058594 L 135.023438 130.464844 C 132.421875 127.660156 128.542969 127.433594 124.886719 129.269531 L 121.078125 123.84375 C 121.078125 123.84375 120.527344 123.148438 120.035156 123.1875 L 119.980469 123.09375 C 119.980469 123.09375 119.886719 123.152344 119.886719 123.152344 C 119.886719 123.152344 119.792969 123.207031 119.792969 123.207031 L 119.847656 123.300781 C 119.585938 123.71875 119.949219 124.53125 119.949219 124.53125 L 123.003906 130.410156 C 119.6875 132.808594 118.101562 136.351562 119.386719 139.957031 L 112.132812 144.359375 L 112.476562 144.925781 L 119.976562 141.144531 C 120.035156 141.238281 120.09375 141.332031 120.148438 141.425781 C 120.835938 142.554688 121.863281 143.609375 122.980469 144.605469 L 92.460938 163.132812 L 92.675781 164.550781 L 99.707031 161.054688 C 99.652344 161.601562 99.84375 162.132812 100.128906 162.601562 C 100.929688 163.921875 102.746094 164.363281 104.066406 163.566406 C 105.386719 162.765625 105.828125 160.945312 105.027344 159.628906 C 104.800781 159.25 104.535156 159.027344 104.269531 158.800781 L 109.925781 156.011719 C 109.925781 156.65625 110.082031 157.335938 110.425781 157.898438 C 111.453125 159.59375 113.726562 160.152344 115.421875 159.121094 C 117.117188 158.09375 117.578125 155.878906 116.546875 154.183594 C 116.320312 153.804688 115.996094 153.484375 115.671875 153.167969 L 127.984375 147.113281 C 130.160156 147.726562 132.429688 147.636719 134.21875 146.550781 C 136.007812 145.464844 137.132812 143.492188 137.59375 141.28125 L 148.644531 133.152344 C 148.6875 133.644531 148.914062 134.019531 149.144531 134.398438 C 150.171875 136.09375 152.441406 136.648438 154.140625 135.617188 C 155.835938 134.589844 156.390625 132.320312 155.359375 130.625 C 155.015625 130.058594 154.484375 129.605469 153.917969 129.308594 L 159 125.578125 C 159.078125 125.917969 159.214844 126.351562 159.382812 126.632812 C 160.183594 127.953125 162 128.398438 163.320312 127.597656 C 164.640625 126.796875 165.082031 124.980469 164.285156 123.660156 C 163.996094 123.1875 163.523438 122.832031 163.105469 122.570312 Z M 169.167969 118.117188 " fill-opacity="1" fill-rule="nonzero"/></g></g></g><g clip-path="url(#cc98183347)"><path fill="#ffffff" d="M 270.96875 101.972656 C 267.210938 99.964844 263.203125 99.027344 258.949219 99.160156 C 256.800781 99.09375 254.679688 99.3125 252.589844 99.820312 C 250.5 100.324219 248.511719 101.097656 246.632812 102.140625 C 245.726562 102.671875 244.859375 103.265625 244.03125 103.910156 C 243.199219 104.558594 242.417969 105.257812 241.683594 106.007812 C 240.945312 106.757812 240.261719 107.554688 239.628906 108.394531 C 239 109.234375 238.425781 110.113281 237.910156 111.027344 C 237.394531 111.945312 236.941406 112.890625 236.550781 113.867188 C 236.160156 114.84375 235.832031 115.839844 235.574219 116.859375 C 235.316406 117.878906 235.121094 118.910156 235 119.953125 C 234.875 120.996094 234.820312 122.042969 234.835938 123.09375 C 235.121094 132.644531 241.207031 141.457031 246.617188 149.125 C 250.445312 154.570312 254.554688 159.792969 258.949219 164.796875 C 266.582031 156.148438 273.90625 146.664062 279.179688 136.378906 C 281.394531 132.058594 283.070312 127.714844 283.070312 122.902344 C 283.070312 121.84375 283.003906 120.792969 282.867188 119.742188 C 282.730469 118.695312 282.523438 117.660156 282.25 116.640625 C 281.976562 115.621094 281.640625 114.621094 281.234375 113.644531 C 280.832031 112.667969 280.363281 111.722656 279.835938 110.808594 C 279.304688 109.890625 278.71875 109.015625 278.074219 108.179688 C 277.429688 107.339844 276.734375 106.550781 275.984375 105.804688 C 275.238281 105.058594 274.441406 104.363281 273.601562 103.722656 C 272.761719 103.082031 271.882812 102.496094 270.96875 101.972656 Z M 258.949219 143.113281 C 258.304688 143.113281 257.664062 143.082031 257.023438 143.015625 C 256.382812 142.953125 255.75 142.859375 255.117188 142.734375 C 254.488281 142.609375 253.863281 142.453125 253.25 142.265625 C 252.632812 142.078125 252.03125 141.863281 251.4375 141.617188 C 250.839844 141.371094 250.261719 141.097656 249.695312 140.792969 C 249.128906 140.492188 248.574219 140.160156 248.042969 139.804688 C 247.507812 139.445312 246.992188 139.0625 246.492188 138.65625 C 245.996094 138.246094 245.519531 137.816406 245.066406 137.363281 C 244.613281 136.90625 244.179688 136.429688 243.773438 135.933594 C 243.363281 135.4375 242.980469 134.921875 242.625 134.386719 C 242.269531 133.851562 241.9375 133.300781 241.632812 132.734375 C 241.332031 132.167969 241.058594 131.585938 240.8125 130.992188 C 240.566406 130.398438 240.347656 129.792969 240.160156 129.179688 C 239.976562 128.5625 239.820312 127.941406 239.695312 127.308594 C 239.566406 126.679688 239.472656 126.042969 239.410156 125.402344 C 239.347656 124.765625 239.316406 124.121094 239.316406 123.480469 C 239.316406 122.835938 239.347656 122.195312 239.410156 121.554688 C 239.472656 120.914062 239.566406 120.28125 239.695312 119.648438 C 239.820312 119.019531 239.976562 118.394531 240.160156 117.78125 C 240.347656 117.164062 240.566406 116.5625 240.8125 115.964844 C 241.058594 115.371094 241.332031 114.792969 241.632812 114.226562 C 241.9375 113.65625 242.269531 113.105469 242.625 112.574219 C 242.980469 112.039062 243.363281 111.523438 243.773438 111.023438 C 244.179688 110.527344 244.613281 110.050781 245.066406 109.597656 C 245.519531 109.144531 245.996094 108.710938 246.492188 108.304688 C 246.992188 107.894531 247.507812 107.511719 248.042969 107.15625 C 248.574219 106.796875 249.128906 106.46875 249.695312 106.164062 C 250.261719 105.863281 250.839844 105.585938 251.4375 105.339844 C 252.03125 105.09375 252.632812 104.878906 253.25 104.691406 C 253.863281 104.507812 254.488281 104.351562 255.117188 104.222656 C 255.75 104.097656 256.382812 104.003906 257.023438 103.941406 C 257.664062 103.878906 258.304688 103.847656 258.949219 103.847656 C 259.589844 103.847656 260.234375 103.878906 260.871094 103.941406 C 261.511719 104.003906 262.148438 104.097656 262.777344 104.222656 C 263.410156 104.351562 264.03125 104.507812 264.648438 104.691406 C 265.261719 104.878906 265.867188 105.09375 266.460938 105.339844 C 267.054688 105.585938 267.636719 105.863281 268.203125 106.164062 C 268.769531 106.46875 269.320312 106.796875 269.855469 107.15625 C 270.390625 107.511719 270.90625 107.894531 271.402344 108.304688 C 271.898438 108.710938 272.375 109.144531 272.832031 109.597656 C 273.285156 110.050781 273.714844 110.527344 274.125 111.023438 C 274.53125 111.523438 274.914062 112.039062 275.273438 112.574219 C 275.628906 113.105469 275.960938 113.65625 276.261719 114.226562 C 276.566406 114.792969 276.839844 115.371094 277.085938 115.964844 C 277.332031 116.5625 277.546875 117.164062 277.734375 117.78125 C 277.921875 118.394531 278.078125 119.019531 278.203125 119.648438 C 278.328125 120.28125 278.421875 120.914062 278.484375 121.554688 C 278.550781 122.195312 278.582031 122.835938 278.582031 123.480469 C 278.582031 124.121094 278.550781 124.765625 278.484375 125.402344 C 278.421875 126.042969 278.328125 126.679688 278.203125 127.308594 C 278.078125 127.941406 277.921875 128.5625 277.734375 129.179688 C 277.546875 129.792969 277.332031 130.398438 277.085938 130.992188 C 276.839844 131.585938 276.566406 132.167969 276.261719 132.734375 C 275.960938 133.300781 275.628906 133.851562 275.273438 134.386719 C 274.914062 134.921875 274.53125 135.4375 274.125 135.933594 C 273.714844 136.429688 273.285156 136.90625 272.832031 137.363281 C 272.375 137.816406 271.898438 138.246094 271.402344 138.65625 C 270.90625 139.0625 270.390625 139.445312 269.855469 139.804688 C 269.320312 140.160156 268.769531 140.492188 268.203125 140.792969 C 267.636719 141.097656 267.054688 141.371094 266.460938 141.617188 C 265.867188 141.863281 265.261719 142.078125 264.648438 142.265625 C 264.03125 142.453125 263.410156 142.609375 262.777344 142.734375 C 262.148438 142.859375 261.511719 142.953125 260.871094 143.015625 C 260.234375 143.082031 259.589844 143.113281 258.949219 143.113281 Z M 258.949219 143.113281 " fill-opacity="1" fill-rule="nonzero"/></g><path fill="#ffffff" d="M 255.433594 126.117188 L 255.433594 120.375 C 255.433594 120.375 267.503906 119.03125 270.625 125.441406 C 270.65625 125.515625 270.667969 125.597656 270.660156 125.679688 C 270.652344 125.761719 270.625 125.839844 270.578125 125.910156 C 270.527344 125.976562 270.46875 126.03125 270.394531 126.066406 C 270.316406 126.105469 270.238281 126.121094 270.15625 126.117188 Z M 255.433594 126.117188 " fill-opacity="1" fill-rule="nonzero"/><path fill="#ffffff" d="M 254.261719 122.628906 C 254.261719 122.941406 254.199219 123.238281 254.082031 123.527344 C 253.964844 123.8125 253.792969 124.066406 253.574219 124.289062 C 253.355469 124.507812 253.101562 124.675781 252.8125 124.796875 C 252.527344 124.914062 252.226562 124.972656 251.917969 124.972656 C 251.605469 124.972656 251.304688 124.914062 251.019531 124.796875 C 250.730469 124.675781 250.476562 124.507812 250.257812 124.289062 C 250.039062 124.066406 249.871094 123.8125 249.75 123.527344 C 249.632812 123.238281 249.570312 122.941406 249.570312 122.628906 C 249.570312 122.320312 249.632812 122.019531 249.75 121.734375 C 249.871094 121.445312 250.039062 121.191406 250.257812 120.972656 C 250.476562 120.753906 250.730469 120.582031 251.019531 120.464844 C 251.304688 120.34375 251.605469 120.285156 251.917969 120.285156 C 252.226562 120.285156 252.527344 120.34375 252.8125 120.464844 C 253.101562 120.582031 253.355469 120.753906 253.574219 120.972656 C 253.792969 121.191406 253.964844 121.445312 254.082031 121.734375 C 254.199219 122.019531 254.261719 122.320312 254.261719 122.628906 Z M 254.261719 122.628906 " fill-opacity="1" fill-rule="nonzero"/><path fill="#ffffff" d="M 246.640625 114.394531 C 246.875 114.394531 247.097656 114.441406 247.316406 114.53125 C 247.53125 114.617188 247.71875 114.746094 247.886719 114.910156 C 248.050781 115.074219 248.175781 115.265625 248.265625 115.480469 C 248.355469 115.695312 248.398438 115.921875 248.398438 116.152344 L 248.398438 131.917969 L 244.882812 131.917969 L 244.882812 116.152344 C 244.882812 115.921875 244.929688 115.695312 245.019531 115.480469 C 245.105469 115.265625 245.234375 115.074219 245.398438 114.910156 C 245.5625 114.746094 245.753906 114.617188 245.96875 114.53125 C 246.183594 114.441406 246.410156 114.394531 246.640625 114.394531 Z M 246.640625 114.394531 " fill-opacity="1" fill-rule="nonzero"/><path fill="#ffffff" d="M 271.253906 121.429688 C 271.488281 121.429688 271.710938 121.472656 271.929688 121.5625 C 272.144531 121.652344 272.332031 121.777344 272.5 121.941406 C 272.664062 122.109375 272.789062 122.296875 272.878906 122.511719 C 272.96875 122.730469 273.011719 122.953125 273.011719 123.1875 L 273.011719 131.976562 L 269.496094 131.976562 L 269.496094 123.1875 C 269.496094 122.953125 269.542969 122.730469 269.632812 122.511719 C 269.71875 122.296875 269.847656 122.109375 270.011719 121.941406 C 270.175781 121.777344 270.367188 121.652344 270.582031 121.5625 C 270.796875 121.472656 271.023438 121.429688 271.253906 121.429688 Z M 271.253906 121.429688 " fill-opacity="1" fill-rule="nonzero"/><path fill="#ffffff" d="M 248.398438 129.613281 L 248.398438 126.117188 L 269.496094 126.117188 L 269.496094 129.613281 Z M 248.398438 129.613281 " fill-opacity="1" fill-rule="nonzero"/><g clip-path="url(#a1f0d01ecc)"><path fill="#ffffff" d="M 269.832031 232.292969 L 268.304688 232.292969 C 268.234375 232.292969 268.089844 232.367188 268.015625 232.367188 L 268.015625 229.242188 C 268.015625 226.558594 265.835938 224.304688 263.078125 224.304688 L 233.589844 224.304688 C 230.902344 224.304688 228.652344 226.484375 228.652344 229.242188 L 228.652344 232.367188 C 228.578125 232.367188 228.433594 232.292969 228.359375 232.292969 L 226.835938 232.292969 C 225.964844 232.292969 225.164062 233.019531 225.164062 233.964844 L 225.164062 242.898438 C 225.164062 243.769531 225.890625 244.570312 226.835938 244.570312 L 228.359375 244.570312 C 228.433594 244.570312 228.578125 244.496094 228.652344 244.496094 L 228.652344 264.105469 C 228.652344 266.429688 230.25 268.316406 232.429688 268.898438 L 232.429688 274.78125 C 232.429688 275.652344 233.152344 276.453125 234.097656 276.453125 L 239.617188 276.453125 C 240.488281 276.453125 241.289062 275.726562 241.289062 274.78125 L 241.289062 269.042969 L 255.523438 269.042969 L 255.523438 274.78125 C 255.523438 275.652344 256.25 276.453125 257.195312 276.453125 L 262.714844 276.453125 C 263.585938 276.453125 264.382812 275.726562 264.382812 274.78125 L 264.382812 268.898438 C 266.492188 268.390625 268.160156 266.429688 268.160156 264.105469 L 268.160156 244.496094 C 268.234375 244.496094 268.378906 244.570312 268.453125 244.570312 L 269.976562 244.570312 C 270.847656 244.570312 271.648438 243.84375 271.648438 242.898438 L 271.648438 233.890625 C 271.503906 233.019531 270.703125 232.292969 269.832031 232.292969 Z M 235.1875 226.773438 L 261.550781 226.773438 L 261.550781 228.300781 L 235.1875 228.300781 Z M 235.476562 265.992188 C 233.808594 265.992188 232.5 264.6875 232.5 263.015625 C 232.5 261.347656 233.808594 260.039062 235.476562 260.039062 C 237.148438 260.039062 238.457031 261.347656 238.457031 263.015625 C 238.457031 264.613281 237.074219 265.992188 235.476562 265.992188 Z M 261.1875 265.992188 C 259.519531 265.992188 258.210938 264.6875 258.210938 263.015625 C 258.210938 261.347656 259.519531 260.039062 261.1875 260.039062 C 262.859375 260.039062 264.167969 261.347656 264.167969 263.015625 C 264.167969 264.613281 262.859375 265.992188 261.1875 265.992188 Z M 265.980469 254.664062 L 230.683594 254.664062 L 230.683594 231.714844 L 265.980469 231.714844 Z M 265.980469 254.664062 " fill-opacity="1" fill-rule="nonzero"/></g><g clip-path="url(#2a683b00cf)"><path fill="#ffffff" d="M 147.867188 243.296875 L 106.632812 243.296875 C 103.464844 243.296875 100.894531 245.867188 100.894531 249.035156 L 100.894531 263.523438 L 153.605469 263.523438 L 153.605469 249.035156 C 153.605469 245.867188 151.035156 243.296875 147.867188 243.296875 Z M 115.0625 253.464844 C 115.0625 255.644531 113.296875 257.410156 111.117188 257.410156 L 110.910156 257.410156 C 108.730469 257.410156 106.960938 255.644531 106.960938 253.464844 L 106.960938 253.257812 C 106.960938 251.078125 108.730469 249.308594 110.910156 249.308594 L 111.117188 249.308594 C 113.296875 249.308594 115.0625 251.078125 115.0625 253.257812 Z M 147.578125 253.464844 C 147.578125 255.644531 145.8125 257.410156 143.632812 257.410156 L 143.425781 257.410156 C 141.246094 257.410156 139.476562 255.644531 139.476562 253.464844 L 139.476562 253.257812 C 139.476562 251.078125 141.246094 249.308594 143.425781 249.308594 L 143.632812 249.308594 C 145.8125 249.308594 147.578125 251.078125 147.578125 253.257812 Z M 147.578125 253.464844 " fill-opacity="1" fill-rule="nonzero"/></g><g clip-path="url(#607a001369)"><path fill="#ffffff" d="M 140.765625 231.414062 C 142.09375 231.414062 143.28125 232.578125 143.589844 234.183594 L 145.242188 242.78125 L 109.304688 242.78125 L 111.113281 234.121094 C 111.445312 232.527344 112.601562 231.414062 113.925781 231.414062 L 140.765625 231.414062 M 140.765625 229.035156 L 113.925781 229.035156 C 111.472656 229.035156 109.347656 230.9375 108.785156 233.632812 L 106.378906 245.160156 L 148.121094 245.160156 L 145.925781 233.734375 C 145.398438 230.992188 143.25 229.035156 140.765625 229.035156 Z M 140.765625 229.035156 " fill-opacity="1" fill-rule="nonzero"/></g><g clip-path="url(#db024c7e7b)"><path fill="#ffffff" d="M 145.863281 271.640625 L 145.277344 271.640625 C 142.640625 271.640625 140.503906 269.503906 140.503906 266.867188 L 140.503906 261.511719 L 150.632812 261.511719 L 150.632812 266.867188 C 150.632812 269.503906 148.496094 271.640625 145.863281 271.640625 Z M 145.863281 271.640625 " fill-opacity="1" fill-rule="nonzero"/></g><g clip-path="url(#a8422eafa5)"><path fill="#ffffff" d="M 109.226562 271.640625 L 108.640625 271.640625 C 106.003906 271.640625 103.867188 269.503906 103.867188 266.867188 L 103.867188 261.511719 L 113.996094 261.511719 L 113.996094 266.867188 C 113.996094 269.503906 111.859375 271.640625 109.226562 271.640625 Z M 109.226562 271.640625 " fill-opacity="1" fill-rule="nonzero"/></g></svg>