<svg xmlns="http://www.w3.org/2000/svg" xmlns:xlink="http://www.w3.org/1999/xlink" width="526" zoomAndPan="magnify" viewBox="0 0 394.5 374.999991" height="500" preserveAspectRatio="xMidYMid meet" version="1.0"><defs><clipPath id="2756256215"><path d="M 166 156 L 327.679688 156 L 327.679688 312.402344 L 166 312.402344 Z M 166 156 " clip-rule="nonzero"/></clipPath><clipPath id="f48b3dadec"><path d="M 66.257812 62.96875 L 253 62.96875 L 253 238 L 66.257812 238 Z M 66.257812 62.96875 " clip-rule="nonzero"/></clipPath></defs><g clip-path="url(#2756256215)"><path fill="#000000" d="M 246.523438 312.230469 C 244.0625 312.234375 241.695312 311.765625 239.421875 310.824219 C 237.152344 309.878906 235.144531 308.539062 233.410156 306.792969 L 222.816406 296.183594 C 221.652344 295.023438 220.316406 294.128906 218.800781 293.5 C 217.285156 292.871094 215.707031 292.554688 214.066406 292.546875 L 190.773438 292.546875 C 189.964844 292.546875 189.152344 292.507812 188.347656 292.429688 C 187.539062 292.347656 186.738281 292.230469 185.941406 292.070312 C 185.144531 291.914062 184.359375 291.714844 183.582031 291.480469 C 182.804688 291.242188 182.042969 290.96875 181.292969 290.660156 C 180.542969 290.347656 179.8125 290 179.09375 289.617188 C 178.378906 289.234375 177.683594 288.816406 177.007812 288.363281 C 176.335938 287.914062 175.683594 287.429688 175.054688 286.914062 C 174.429688 286.398438 173.828125 285.851562 173.253906 285.277344 C 172.679688 284.703125 172.136719 284.101562 171.621094 283.472656 C 171.105469 282.84375 170.625 282.191406 170.171875 281.515625 C 169.722656 280.839844 169.304688 280.144531 168.921875 279.429688 C 168.542969 278.710938 168.195312 277.976562 167.882812 277.226562 C 167.574219 276.476562 167.300781 275.710938 167.066406 274.933594 C 166.828125 274.15625 166.632812 273.367188 166.472656 272.570312 C 166.316406 271.773438 166.195312 270.96875 166.117188 270.160156 C 166.039062 269.351562 166 268.542969 166 267.726562 L 166 224.417969 C 166 224.011719 166.039062 223.609375 166.117188 223.207031 C 166.195312 222.808594 166.3125 222.421875 166.46875 222.042969 C 166.625 221.667969 166.816406 221.308594 167.042969 220.972656 C 167.269531 220.632812 167.523438 220.320312 167.8125 220.03125 C 168.101562 219.742188 168.414062 219.484375 168.75 219.257812 C 169.089844 219.035156 169.445312 218.84375 169.820312 218.6875 C 170.199219 218.53125 170.585938 218.414062 170.984375 218.332031 C 171.382812 218.253906 171.785156 218.214844 172.191406 218.214844 C 172.597656 218.214844 173 218.253906 173.402344 218.332031 C 173.800781 218.414062 174.1875 218.53125 174.5625 218.6875 C 174.9375 218.84375 175.296875 219.035156 175.632812 219.257812 C 175.972656 219.484375 176.285156 219.742188 176.570312 220.03125 C 176.859375 220.320312 177.117188 220.632812 177.34375 220.972656 C 177.570312 221.308594 177.757812 221.667969 177.914062 222.042969 C 178.070312 222.421875 178.1875 222.808594 178.265625 223.207031 C 178.347656 223.609375 178.386719 224.011719 178.386719 224.417969 L 178.386719 267.726562 C 178.386719 268.542969 178.464844 269.351562 178.625 270.148438 C 178.78125 270.949219 179.019531 271.722656 179.328125 272.476562 C 179.640625 273.230469 180.023438 273.945312 180.472656 274.621094 C 180.925781 275.300781 181.441406 275.925781 182.015625 276.503906 C 182.589844 277.078125 183.214844 277.59375 183.890625 278.046875 C 184.570312 278.5 185.28125 278.882812 186.035156 279.195312 C 186.785156 279.503906 187.558594 279.742188 188.359375 279.898438 C 189.15625 280.058594 189.960938 280.136719 190.773438 280.136719 L 214.066406 280.136719 C 215.691406 280.144531 217.300781 280.304688 218.894531 280.625 C 220.488281 280.945312 222.035156 281.417969 223.535156 282.042969 C 225.039062 282.664062 226.464844 283.429688 227.816406 284.332031 C 229.171875 285.234375 230.421875 286.261719 231.574219 287.410156 L 242.167969 298.019531 C 242.453125 298.304688 242.765625 298.558594 243.101562 298.78125 C 243.4375 299.003906 243.792969 299.191406 244.167969 299.347656 C 244.542969 299.5 244.925781 299.617188 245.320312 299.695312 C 245.71875 299.773438 246.117188 299.8125 246.523438 299.8125 C 246.925781 299.8125 247.324219 299.773438 247.722656 299.695312 C 248.117188 299.617188 248.503906 299.5 248.875 299.347656 C 249.25 299.191406 249.605469 299.003906 249.941406 298.78125 C 250.277344 298.558594 250.589844 298.304688 250.875 298.019531 L 261.46875 287.410156 C 262.621094 286.261719 263.871094 285.234375 265.226562 284.332031 C 266.578125 283.429688 268.003906 282.664062 269.507812 282.042969 C 271.007812 281.417969 272.554688 280.945312 274.148438 280.625 C 275.742188 280.304688 277.351562 280.144531 278.980469 280.136719 L 302.269531 280.136719 C 303.082031 280.136719 303.886719 280.058594 304.683594 279.898438 C 305.484375 279.742188 306.257812 279.503906 307.007812 279.195312 C 307.761719 278.882812 308.476562 278.5 309.152344 278.046875 C 309.828125 277.59375 310.453125 277.078125 311.027344 276.503906 C 311.605469 275.925781 312.117188 275.300781 312.570312 274.621094 C 313.019531 273.945312 313.402344 273.230469 313.714844 272.476562 C 314.023438 271.722656 314.261719 270.949219 314.417969 270.148438 C 314.578125 269.351562 314.65625 268.542969 314.65625 267.726562 L 314.65625 180.859375 C 314.65625 180.046875 314.578125 179.238281 314.417969 178.441406 C 314.261719 177.640625 314.023438 176.863281 313.714844 176.113281 C 313.402344 175.359375 313.019531 174.644531 312.570312 173.964844 C 312.117188 173.289062 311.605469 172.660156 311.027344 172.085938 C 310.453125 171.507812 309.828125 170.996094 309.152344 170.542969 C 308.476562 170.089844 307.761719 169.707031 307.007812 169.394531 C 306.257812 169.085938 305.484375 168.847656 304.683594 168.691406 C 303.886719 168.53125 303.082031 168.453125 302.269531 168.453125 L 246.523438 168.453125 C 246.113281 168.453125 245.710938 168.410156 245.3125 168.332031 C 244.914062 168.253906 244.527344 168.136719 244.152344 167.980469 C 243.777344 167.824219 243.417969 167.632812 243.082031 167.40625 C 242.742188 167.179688 242.429688 166.921875 242.140625 166.632812 C 241.855469 166.347656 241.597656 166.03125 241.371094 165.695312 C 241.144531 165.355469 240.953125 164.996094 240.800781 164.621094 C 240.644531 164.246094 240.527344 163.855469 240.445312 163.457031 C 240.367188 163.058594 240.328125 162.652344 240.328125 162.246094 C 240.328125 161.839844 240.367188 161.433594 240.445312 161.035156 C 240.527344 160.636719 240.644531 160.25 240.800781 159.871094 C 240.953125 159.496094 241.144531 159.136719 241.371094 158.800781 C 241.597656 158.460938 241.855469 158.148438 242.140625 157.859375 C 242.429688 157.570312 242.742188 157.3125 243.082031 157.085938 C 243.417969 156.859375 243.777344 156.667969 244.152344 156.515625 C 244.527344 156.359375 244.914062 156.242188 245.3125 156.160156 C 245.710938 156.082031 246.113281 156.042969 246.523438 156.042969 L 302.269531 156.042969 C 303.082031 156.042969 303.890625 156.082031 304.695312 156.160156 C 305.503906 156.242188 306.304688 156.359375 307.101562 156.519531 C 307.898438 156.675781 308.683594 156.875 309.460938 157.109375 C 310.238281 157.347656 311 157.621094 311.75 157.929688 C 312.5 158.242188 313.234375 158.589844 313.949219 158.972656 C 314.664062 159.355469 315.359375 159.773438 316.035156 160.222656 C 316.707031 160.675781 317.359375 161.160156 317.988281 161.675781 C 318.613281 162.191406 319.214844 162.734375 319.789062 163.3125 C 320.363281 163.886719 320.90625 164.488281 321.421875 165.117188 C 321.9375 165.742188 322.417969 166.394531 322.871094 167.070312 C 323.320312 167.746094 323.738281 168.445312 324.121094 169.160156 C 324.503906 169.878906 324.847656 170.613281 325.160156 171.363281 C 325.46875 172.113281 325.742188 172.878906 325.976562 173.65625 C 326.214844 174.433594 326.410156 175.222656 326.570312 176.019531 C 326.726562 176.816406 326.847656 177.621094 326.925781 178.429688 C 327.003906 179.238281 327.046875 180.046875 327.046875 180.859375 L 327.046875 267.726562 C 327.046875 268.542969 327.003906 269.351562 326.925781 270.160156 C 326.847656 270.96875 326.726562 271.773438 326.570312 272.570312 C 326.410156 273.367188 326.214844 274.15625 325.976562 274.933594 C 325.742188 275.710938 325.46875 276.476562 325.160156 277.226562 C 324.847656 277.976562 324.503906 278.710938 324.121094 279.429688 C 323.738281 280.144531 323.320312 280.839844 322.871094 281.515625 C 322.417969 282.191406 321.9375 282.84375 321.421875 283.472656 C 320.90625 284.101562 320.363281 284.703125 319.789062 285.277344 C 319.214844 285.851562 318.613281 286.398438 317.988281 286.914062 C 317.359375 287.429688 316.707031 287.914062 316.035156 288.363281 C 315.359375 288.816406 314.664062 289.234375 313.949219 289.617188 C 313.234375 290 312.5 290.347656 311.75 290.660156 C 311 290.96875 310.238281 291.242188 309.460938 291.480469 C 308.683594 291.714844 307.898438 291.914062 307.101562 292.070312 C 306.304688 292.230469 305.503906 292.347656 304.695312 292.429688 C 303.890625 292.507812 303.082031 292.546875 302.269531 292.546875 L 278.980469 292.546875 C 277.339844 292.554688 275.761719 292.871094 274.246094 293.5 C 272.730469 294.128906 271.390625 295.023438 270.226562 296.183594 L 259.632812 306.792969 C 257.898438 308.539062 255.890625 309.878906 253.621094 310.824219 C 251.347656 311.765625 248.980469 312.234375 246.523438 312.230469 Z M 246.523438 312.230469 " fill-opacity="1" fill-rule="nonzero"/></g><g clip-path="url(#f48b3dadec)"><path fill="#000000" d="M 159.804688 237.851562 C 157.363281 237.855469 155.015625 237.398438 152.753906 236.476562 C 150.496094 235.550781 148.496094 234.234375 146.753906 232.523438 L 134.199219 220.113281 C 133.042969 218.96875 131.714844 218.085938 130.214844 217.464844 C 128.710938 216.847656 127.148438 216.539062 125.527344 216.539062 L 91.667969 216.539062 C 90.855469 216.539062 90.046875 216.5 89.238281 216.417969 C 88.433594 216.339844 87.632812 216.21875 86.835938 216.0625 C 86.039062 215.902344 85.253906 215.707031 84.476562 215.46875 C 83.699219 215.234375 82.9375 214.960938 82.1875 214.648438 C 81.4375 214.339844 80.703125 213.992188 79.988281 213.609375 C 79.273438 213.226562 78.578125 212.808594 77.902344 212.355469 C 77.230469 211.902344 76.578125 211.421875 75.949219 210.90625 C 75.324219 210.390625 74.722656 209.84375 74.148438 209.269531 C 73.574219 208.695312 73.03125 208.09375 72.515625 207.464844 C 72 206.835938 71.519531 206.183594 71.066406 205.507812 C 70.617188 204.832031 70.199219 204.136719 69.816406 203.417969 C 69.433594 202.703125 69.089844 201.96875 68.777344 201.21875 C 68.46875 200.464844 68.195312 199.703125 67.960938 198.925781 C 67.722656 198.144531 67.527344 197.359375 67.367188 196.5625 C 67.210938 195.765625 67.089844 194.960938 67.011719 194.152344 C 66.933594 193.34375 66.890625 192.53125 66.890625 191.71875 L 66.890625 87.789062 C 66.890625 86.976562 66.933594 86.164062 67.011719 85.355469 C 67.089844 84.546875 67.210938 83.742188 67.367188 82.945312 C 67.527344 82.148438 67.722656 81.363281 67.960938 80.582031 C 68.195312 79.804688 68.46875 79.042969 68.777344 78.289062 C 69.089844 77.539062 69.433594 76.804688 69.816406 76.089844 C 70.199219 75.371094 70.617188 74.675781 71.066406 74 C 71.519531 73.324219 72 72.671875 72.515625 72.042969 C 73.03125 71.414062 73.574219 70.8125 74.148438 70.238281 C 74.722656 69.664062 75.324219 69.117188 75.949219 68.601562 C 76.578125 68.085938 77.230469 67.605469 77.902344 67.152344 C 78.578125 66.699219 79.273438 66.28125 79.988281 65.898438 C 80.703125 65.515625 81.4375 65.167969 82.1875 64.859375 C 82.9375 64.546875 83.699219 64.273438 84.476562 64.039062 C 85.253906 63.800781 86.039062 63.605469 86.835938 63.445312 C 87.632812 63.289062 88.433594 63.167969 89.238281 63.089844 C 90.046875 63.007812 90.855469 62.96875 91.667969 62.96875 L 227.9375 62.96875 C 228.75 62.96875 229.558594 63.007812 230.367188 63.089844 C 231.175781 63.167969 231.976562 63.289062 232.773438 63.445312 C 233.570312 63.605469 234.355469 63.800781 235.132812 64.039062 C 235.90625 64.273438 236.671875 64.546875 237.421875 64.859375 C 238.171875 65.167969 238.902344 65.515625 239.617188 65.898438 C 240.335938 66.28125 241.03125 66.699219 241.703125 67.152344 C 242.378906 67.605469 243.03125 68.085938 243.65625 68.601562 C 244.285156 69.117188 244.886719 69.664062 245.457031 70.238281 C 246.03125 70.8125 246.578125 71.414062 247.089844 72.042969 C 247.605469 72.671875 248.089844 73.324219 248.539062 74 C 248.992188 74.675781 249.40625 75.371094 249.789062 76.089844 C 250.171875 76.804688 250.519531 77.539062 250.828125 78.289062 C 251.140625 79.042969 251.414062 79.804688 251.648438 80.582031 C 251.882812 81.363281 252.082031 82.148438 252.238281 82.945312 C 252.398438 83.742188 252.515625 84.546875 252.597656 85.355469 C 252.675781 86.164062 252.714844 86.976562 252.714844 87.789062 L 252.714844 191.71875 C 252.714844 192.53125 252.675781 193.34375 252.597656 194.152344 C 252.515625 194.960938 252.398438 195.765625 252.238281 196.5625 C 252.082031 197.359375 251.882812 198.144531 251.648438 198.925781 C 251.414062 199.703125 251.140625 200.464844 250.828125 201.21875 C 250.519531 201.96875 250.171875 202.703125 249.789062 203.417969 C 249.40625 204.136719 248.992188 204.832031 248.539062 205.507812 C 248.089844 206.183594 247.605469 206.835938 247.089844 207.464844 C 246.578125 208.09375 246.03125 208.695312 245.457031 209.269531 C 244.886719 209.84375 244.285156 210.390625 243.65625 210.90625 C 243.03125 211.421875 242.378906 211.902344 241.703125 212.355469 C 241.03125 212.808594 240.335938 213.226562 239.617188 213.609375 C 238.902344 213.992188 238.171875 214.339844 237.421875 214.648438 C 236.671875 214.960938 235.90625 215.234375 235.132812 215.46875 C 234.355469 215.707031 233.570312 215.902344 232.773438 216.0625 C 231.976562 216.21875 231.175781 216.339844 230.367188 216.417969 C 229.558594 216.5 228.75 216.539062 227.9375 216.539062 L 194.113281 216.539062 C 192.484375 216.535156 190.914062 216.839844 189.40625 217.460938 C 187.898438 218.078125 186.566406 218.964844 185.410156 220.113281 L 172.855469 232.523438 C 171.113281 234.234375 169.113281 235.550781 166.851562 236.476562 C 164.59375 237.398438 162.242188 237.855469 159.804688 237.851562 Z M 91.667969 75.378906 C 90.855469 75.378906 90.050781 75.457031 89.25 75.617188 C 88.453125 75.777344 87.679688 76.011719 86.929688 76.324219 C 86.175781 76.636719 85.460938 77.019531 84.785156 77.46875 C 84.109375 77.921875 83.484375 78.4375 82.910156 79.011719 C 82.332031 79.589844 81.820312 80.214844 81.367188 80.894531 C 80.917969 81.570312 80.535156 82.285156 80.222656 83.039062 C 79.914062 83.792969 79.675781 84.570312 79.519531 85.367188 C 79.359375 86.167969 79.28125 86.972656 79.28125 87.789062 L 79.28125 191.71875 C 79.28125 192.535156 79.359375 193.339844 79.519531 194.140625 C 79.675781 194.941406 79.914062 195.714844 80.222656 196.46875 C 80.535156 197.222656 80.917969 197.9375 81.367188 198.613281 C 81.820312 199.292969 82.332031 199.917969 82.910156 200.496094 C 83.484375 201.070312 84.109375 201.585938 84.785156 202.039062 C 85.460938 202.492188 86.175781 202.871094 86.929688 203.183594 C 87.679688 203.496094 88.453125 203.730469 89.25 203.890625 C 90.050781 204.050781 90.855469 204.128906 91.667969 204.128906 L 125.496094 204.128906 C 127.109375 204.125 128.707031 204.277344 130.289062 204.589844 C 131.875 204.898438 133.414062 205.359375 134.90625 205.972656 C 136.398438 206.585938 137.816406 207.339844 139.164062 208.230469 C 140.507812 209.125 141.753906 210.140625 142.898438 211.277344 L 155.449219 223.6875 C 155.738281 223.96875 156.050781 224.21875 156.386719 224.441406 C 156.726562 224.664062 157.078125 224.851562 157.453125 225.003906 C 157.828125 225.15625 158.210938 225.269531 158.605469 225.347656 C 159 225.425781 159.402344 225.464844 159.804688 225.464844 C 160.207031 225.464844 160.605469 225.425781 161 225.347656 C 161.398438 225.269531 161.78125 225.15625 162.15625 225.003906 C 162.527344 224.851562 162.882812 224.664062 163.21875 224.441406 C 163.558594 224.21875 163.871094 223.96875 164.160156 223.6875 L 176.707031 211.277344 C 177.855469 210.140625 179.101562 209.125 180.445312 208.230469 C 181.789062 207.339844 183.210938 206.585938 184.703125 205.972656 C 186.195312 205.359375 187.734375 204.898438 189.316406 204.589844 C 190.902344 204.277344 192.5 204.125 194.113281 204.128906 L 227.9375 204.128906 C 228.753906 204.128906 229.558594 204.050781 230.355469 203.890625 C 231.152344 203.730469 231.929688 203.496094 232.679688 203.183594 C 233.429688 202.871094 234.144531 202.492188 234.820312 202.039062 C 235.5 201.585938 236.125 201.070312 236.699219 200.496094 C 237.273438 199.917969 237.789062 199.292969 238.238281 198.613281 C 238.691406 197.9375 239.074219 197.222656 239.382812 196.46875 C 239.695312 195.714844 239.929688 194.941406 240.089844 194.140625 C 240.25 193.339844 240.328125 192.535156 240.328125 191.71875 L 240.328125 87.789062 C 240.328125 86.972656 240.25 86.167969 240.089844 85.367188 C 239.929688 84.570312 239.695312 83.792969 239.382812 83.039062 C 239.074219 82.285156 238.691406 81.570312 238.238281 80.894531 C 237.789062 80.214844 237.273438 79.589844 236.699219 79.011719 C 236.125 78.4375 235.5 77.921875 234.820312 77.46875 C 234.144531 77.019531 233.429688 76.636719 232.679688 76.324219 C 231.929688 76.011719 231.152344 75.777344 230.355469 75.617188 C 229.558594 75.457031 228.753906 75.378906 227.9375 75.378906 Z M 91.667969 75.378906 " fill-opacity="1" fill-rule="nonzero"/></g><path fill="#000000" d="M 159.804688 156.042969 L 110.25 156.042969 C 109.84375 156.042969 109.441406 156 109.042969 155.921875 C 108.644531 155.84375 108.257812 155.726562 107.878906 155.570312 C 107.503906 155.414062 107.148438 155.222656 106.808594 154.996094 C 106.472656 154.769531 106.160156 154.511719 105.871094 154.222656 C 105.582031 153.9375 105.328125 153.621094 105.101562 153.285156 C 104.875 152.945312 104.683594 152.585938 104.527344 152.210938 C 104.371094 151.835938 104.253906 151.445312 104.175781 151.046875 C 104.097656 150.648438 104.058594 150.246094 104.058594 149.835938 C 104.058594 149.429688 104.097656 149.027344 104.175781 148.625 C 104.253906 148.226562 104.371094 147.839844 104.527344 147.460938 C 104.683594 147.085938 104.875 146.726562 105.101562 146.390625 C 105.328125 146.050781 105.582031 145.738281 105.871094 145.449219 C 106.160156 145.160156 106.472656 144.902344 106.808594 144.675781 C 107.148438 144.453125 107.503906 144.261719 107.878906 144.105469 C 108.257812 143.949219 108.644531 143.832031 109.042969 143.75 C 109.441406 143.671875 109.84375 143.632812 110.25 143.632812 L 159.804688 143.632812 C 160.210938 143.632812 160.613281 143.671875 161.011719 143.75 C 161.410156 143.832031 161.796875 143.949219 162.175781 144.105469 C 162.550781 144.261719 162.90625 144.453125 163.246094 144.675781 C 163.582031 144.902344 163.894531 145.160156 164.183594 145.449219 C 164.472656 145.738281 164.726562 146.050781 164.953125 146.390625 C 165.179688 146.726562 165.371094 147.085938 165.527344 147.460938 C 165.683594 147.839844 165.800781 148.226562 165.878906 148.625 C 165.957031 149.027344 166 149.429688 166 149.835938 C 166 150.246094 165.957031 150.648438 165.878906 151.046875 C 165.800781 151.445312 165.683594 151.835938 165.527344 152.210938 C 165.371094 152.585938 165.179688 152.945312 164.953125 153.285156 C 164.726562 153.621094 164.472656 153.9375 164.183594 154.222656 C 163.894531 154.511719 163.582031 154.769531 163.246094 154.996094 C 162.90625 155.222656 162.550781 155.414062 162.175781 155.570312 C 161.796875 155.726562 161.410156 155.84375 161.011719 155.921875 C 160.613281 156 160.210938 156.042969 159.804688 156.042969 Z M 159.804688 156.042969 " fill-opacity="1" fill-rule="nonzero"/><path fill="#000000" d="M 184.582031 118.8125 L 110.25 118.8125 C 109.84375 118.8125 109.441406 118.773438 109.042969 118.695312 C 108.644531 118.613281 108.257812 118.496094 107.878906 118.339844 C 107.503906 118.183594 107.148438 117.992188 106.808594 117.765625 C 106.472656 117.539062 106.160156 117.285156 105.871094 116.996094 C 105.582031 116.707031 105.328125 116.394531 105.101562 116.054688 C 104.875 115.714844 104.683594 115.359375 104.527344 114.980469 C 104.371094 114.605469 104.253906 114.21875 104.175781 113.816406 C 104.097656 113.417969 104.058594 113.015625 104.058594 112.609375 C 104.058594 112.199219 104.097656 111.796875 104.175781 111.398438 C 104.253906 110.996094 104.371094 110.609375 104.527344 110.234375 C 104.683594 109.855469 104.875 109.5 105.101562 109.160156 C 105.328125 108.820312 105.582031 108.507812 105.871094 108.21875 C 106.160156 107.933594 106.472656 107.675781 106.808594 107.449219 C 107.148438 107.222656 107.503906 107.03125 107.878906 106.875 C 108.257812 106.71875 108.644531 106.601562 109.042969 106.523438 C 109.441406 106.441406 109.84375 106.402344 110.25 106.402344 L 184.582031 106.402344 C 184.988281 106.402344 185.390625 106.441406 185.789062 106.523438 C 186.1875 106.601562 186.574219 106.71875 186.949219 106.875 C 187.328125 107.03125 187.683594 107.222656 188.023438 107.449219 C 188.359375 107.675781 188.671875 107.933594 188.960938 108.21875 C 189.246094 108.507812 189.503906 108.820312 189.730469 109.160156 C 189.957031 109.5 190.148438 109.855469 190.304688 110.234375 C 190.457031 110.609375 190.578125 110.996094 190.65625 111.398438 C 190.734375 111.796875 190.773438 112.199219 190.773438 112.609375 C 190.773438 113.015625 190.734375 113.417969 190.65625 113.816406 C 190.578125 114.21875 190.457031 114.605469 190.304688 114.980469 C 190.148438 115.359375 189.957031 115.714844 189.730469 116.054688 C 189.503906 116.394531 189.246094 116.707031 188.960938 116.996094 C 188.671875 117.285156 188.359375 117.539062 188.023438 117.765625 C 187.683594 117.992188 187.328125 118.183594 186.949219 118.339844 C 186.574219 118.496094 186.1875 118.613281 185.789062 118.695312 C 185.390625 118.773438 184.988281 118.8125 184.582031 118.8125 Z M 184.582031 118.8125 " fill-opacity="1" fill-rule="nonzero"/><path fill="#000000" d="M 252.714844 249.113281 L 215.550781 249.113281 C 215.144531 249.113281 214.742188 249.074219 214.34375 248.996094 C 213.945312 248.914062 213.554688 248.796875 213.179688 248.640625 C 212.804688 248.484375 212.449219 248.292969 212.109375 248.066406 C 211.773438 247.84375 211.457031 247.585938 211.171875 247.296875 C 210.882812 247.007812 210.625 246.695312 210.402344 246.355469 C 210.175781 246.015625 209.984375 245.660156 209.828125 245.285156 C 209.671875 244.90625 209.554688 244.519531 209.476562 244.121094 C 209.398438 243.71875 209.355469 243.316406 209.355469 242.910156 C 209.355469 242.5 209.398438 242.097656 209.476562 241.699219 C 209.554688 241.300781 209.671875 240.910156 209.828125 240.535156 C 209.984375 240.160156 210.175781 239.800781 210.402344 239.460938 C 210.625 239.125 210.882812 238.808594 211.171875 238.523438 C 211.457031 238.234375 211.773438 237.976562 212.109375 237.75 C 212.449219 237.523438 212.804688 237.332031 213.179688 237.175781 C 213.554688 237.019531 213.945312 236.902344 214.34375 236.824219 C 214.742188 236.742188 215.144531 236.703125 215.550781 236.703125 L 252.714844 236.703125 C 253.121094 236.703125 253.523438 236.742188 253.925781 236.824219 C 254.324219 236.902344 254.710938 237.019531 255.085938 237.175781 C 255.460938 237.332031 255.820312 237.523438 256.15625 237.75 C 256.496094 237.976562 256.808594 238.234375 257.09375 238.523438 C 257.382812 238.808594 257.640625 239.125 257.867188 239.460938 C 258.09375 239.800781 258.28125 240.160156 258.4375 240.535156 C 258.59375 240.910156 258.710938 241.300781 258.789062 241.699219 C 258.871094 242.097656 258.910156 242.5 258.910156 242.910156 C 258.910156 243.316406 258.871094 243.71875 258.789062 244.121094 C 258.710938 244.519531 258.59375 244.90625 258.4375 245.285156 C 258.28125 245.660156 258.09375 246.015625 257.867188 246.355469 C 257.640625 246.695312 257.382812 247.007812 257.09375 247.296875 C 256.808594 247.585938 256.496094 247.84375 256.15625 248.066406 C 255.820312 248.292969 255.460938 248.484375 255.085938 248.640625 C 254.710938 248.796875 254.324219 248.914062 253.925781 248.996094 C 253.523438 249.074219 253.121094 249.113281 252.714844 249.113281 Z M 252.714844 249.113281 " fill-opacity="1" fill-rule="nonzero"/><path fill="#000000" d="M 277.492188 211.886719 L 240.328125 211.886719 C 239.921875 211.886719 239.519531 211.84375 239.117188 211.765625 C 238.71875 211.6875 238.332031 211.570312 237.957031 211.414062 C 237.582031 211.257812 237.222656 211.066406 236.886719 210.839844 C 236.546875 210.613281 236.234375 210.355469 235.949219 210.066406 C 235.660156 209.78125 235.402344 209.464844 235.175781 209.128906 C 234.953125 208.789062 234.761719 208.429688 234.605469 208.054688 C 234.449219 207.679688 234.332031 207.289062 234.253906 206.890625 C 234.171875 206.492188 234.132812 206.085938 234.132812 205.679688 C 234.132812 205.273438 234.171875 204.871094 234.253906 204.46875 C 234.332031 204.070312 234.449219 203.683594 234.605469 203.304688 C 234.761719 202.929688 234.953125 202.570312 235.175781 202.234375 C 235.402344 201.894531 235.660156 201.582031 235.949219 201.292969 C 236.234375 201.003906 236.546875 200.746094 236.886719 200.519531 C 237.222656 200.292969 237.582031 200.105469 237.957031 199.949219 C 238.332031 199.792969 238.71875 199.675781 239.117188 199.59375 C 239.519531 199.515625 239.921875 199.476562 240.328125 199.476562 L 277.492188 199.476562 C 277.898438 199.476562 278.300781 199.515625 278.699219 199.59375 C 279.097656 199.675781 279.488281 199.792969 279.863281 199.949219 C 280.238281 200.105469 280.59375 200.292969 280.933594 200.519531 C 281.273438 200.746094 281.585938 201.003906 281.871094 201.292969 C 282.160156 201.582031 282.417969 201.894531 282.640625 202.234375 C 282.867188 202.570312 283.058594 202.929688 283.214844 203.304688 C 283.371094 203.683594 283.488281 204.070312 283.566406 204.46875 C 283.648438 204.871094 283.6875 205.273438 283.6875 205.679688 C 283.6875 206.085938 283.648438 206.492188 283.566406 206.890625 C 283.488281 207.289062 283.371094 207.679688 283.214844 208.054688 C 283.058594 208.429688 282.867188 208.789062 282.640625 209.128906 C 282.417969 209.464844 282.160156 209.78125 281.871094 210.066406 C 281.585938 210.355469 281.273438 210.613281 280.933594 210.839844 C 280.59375 211.066406 280.238281 211.257812 279.863281 211.414062 C 279.488281 211.570312 279.097656 211.6875 278.699219 211.765625 C 278.300781 211.84375 277.898438 211.886719 277.492188 211.886719 Z M 277.492188 211.886719 " fill-opacity="1" fill-rule="nonzero"/></svg>