<svg xmlns="http://www.w3.org/2000/svg" xmlns:xlink="http://www.w3.org/1999/xlink" width="526" zoomAndPan="magnify" viewBox="0 0 394.5 374.999991" height="500" preserveAspectRatio="xMidYMid meet" version="1.0"><defs><clipPath id="0abdb92ab3"><path d="M 70.578125 61.078125 L 245 61.078125 L 245 236 L 70.578125 236 Z M 70.578125 61.078125 " clip-rule="nonzero"/></clipPath><clipPath id="828bb0acf3"><path d="M 149 140 L 323.757812 140 L 323.757812 314.257812 L 149 314.257812 Z M 149 140 " clip-rule="nonzero"/></clipPath></defs><g clip-path="url(#0abdb92ab3)"><path fill="#000000" d="M 220.902344 61.078125 L 94.3125 61.078125 C 93.539062 61.082031 92.761719 61.121094 91.988281 61.199219 C 91.21875 61.277344 90.449219 61.394531 89.6875 61.546875 C 88.925781 61.699219 88.175781 61.890625 87.433594 62.117188 C 86.6875 62.34375 85.960938 62.605469 85.242188 62.902344 C 84.523438 63.203125 83.824219 63.535156 83.140625 63.902344 C 82.453125 64.269531 81.789062 64.667969 81.144531 65.101562 C 80.5 65.53125 79.875 65.996094 79.273438 66.488281 C 78.675781 66.980469 78.101562 67.5 77.550781 68.050781 C 77 68.601562 76.480469 69.175781 75.988281 69.773438 C 75.496094 70.375 75.03125 71 74.601562 71.644531 C 74.167969 72.289062 73.769531 72.953125 73.402344 73.640625 C 73.035156 74.324219 72.703125 75.023438 72.402344 75.742188 C 72.105469 76.457031 71.84375 77.1875 71.617188 77.933594 C 71.390625 78.675781 71.199219 79.425781 71.046875 80.1875 C 70.894531 80.949219 70.777344 81.71875 70.699219 82.488281 C 70.621094 83.261719 70.582031 84.039062 70.578125 84.8125 L 70.578125 179.757812 C 70.582031 180.976562 70.679688 182.1875 70.867188 183.390625 C 71.058594 184.597656 71.335938 185.78125 71.707031 186.941406 C 72.078125 188.105469 72.535156 189.230469 73.078125 190.320312 C 73.621094 191.414062 74.246094 192.457031 74.949219 193.453125 C 75.652344 194.449219 76.429688 195.386719 77.277344 196.261719 C 78.125 197.140625 79.035156 197.945312 80.003906 198.683594 C 80.976562 199.421875 82 200.078125 83.070312 200.660156 C 84.144531 201.242188 85.253906 201.738281 86.402344 202.148438 L 86.402344 227.226562 C 86.398438 228.011719 86.511719 228.777344 86.738281 229.523438 C 86.964844 230.273438 87.296875 230.972656 87.734375 231.621094 C 88.171875 232.269531 88.695312 232.839844 89.304688 233.332031 C 89.914062 233.824219 90.582031 234.214844 91.308594 234.507812 C 92.261719 234.957031 93.261719 235.167969 94.3125 235.140625 C 95.367188 235.140625 96.378906 234.945312 97.351562 234.546875 C 98.324219 234.148438 99.183594 233.582031 99.933594 232.84375 L 129.207031 203.492188 L 220.902344 203.492188 C 221.679688 203.488281 222.457031 203.449219 223.226562 203.371094 C 224 203.292969 224.769531 203.175781 225.53125 203.023438 C 226.292969 202.871094 227.042969 202.679688 227.785156 202.453125 C 228.527344 202.226562 229.257812 201.964844 229.976562 201.667969 C 230.695312 201.367188 231.394531 201.035156 232.078125 200.667969 C 232.761719 200.300781 233.429688 199.902344 234.074219 199.46875 C 234.71875 199.039062 235.34375 198.574219 235.941406 198.082031 C 236.542969 197.589844 237.117188 197.070312 237.667969 196.519531 C 238.214844 195.96875 238.738281 195.394531 239.230469 194.796875 C 239.722656 194.195312 240.1875 193.570312 240.617188 192.925781 C 241.050781 192.28125 241.449219 191.617188 241.816406 190.929688 C 242.183594 190.246094 242.515625 189.546875 242.8125 188.828125 C 243.113281 188.113281 243.375 187.382812 243.601562 186.636719 C 243.828125 185.894531 244.019531 185.144531 244.171875 184.382812 C 244.324219 183.621094 244.441406 182.851562 244.519531 182.082031 C 244.597656 181.308594 244.636719 180.53125 244.640625 179.757812 L 244.640625 84.8125 C 244.636719 84.039062 244.597656 83.261719 244.519531 82.488281 C 244.441406 81.71875 244.324219 80.949219 244.171875 80.1875 C 244.019531 79.425781 243.828125 78.675781 243.601562 77.933594 C 243.375 77.1875 243.113281 76.457031 242.8125 75.742188 C 242.515625 75.023438 242.183594 74.324219 241.816406 73.640625 C 241.449219 72.953125 241.050781 72.289062 240.617188 71.644531 C 240.1875 71 239.722656 70.375 239.230469 69.773438 C 238.738281 69.175781 238.214844 68.601562 237.667969 68.050781 C 237.117188 67.5 236.542969 66.980469 235.941406 66.488281 C 235.34375 65.996094 234.71875 65.53125 234.074219 65.101562 C 233.429688 64.667969 232.761719 64.269531 232.078125 63.902344 C 231.394531 63.535156 230.695312 63.203125 229.976562 62.902344 C 229.257812 62.605469 228.527344 62.34375 227.785156 62.117188 C 227.042969 61.890625 226.292969 61.699219 225.53125 61.546875 C 224.769531 61.394531 224 61.277344 223.226562 61.199219 C 222.457031 61.121094 221.679688 61.082031 220.902344 61.078125 Z M 197.167969 171.84375 L 118.050781 171.84375 C 117.53125 171.84375 117.015625 171.792969 116.507812 171.691406 C 115.996094 171.589844 115.503906 171.441406 115.023438 171.242188 C 114.542969 171.042969 114.085938 170.800781 113.652344 170.511719 C 113.222656 170.222656 112.824219 169.894531 112.457031 169.527344 C 112.089844 169.160156 111.761719 168.761719 111.472656 168.328125 C 111.183594 167.894531 110.9375 167.441406 110.742188 166.960938 C 110.542969 166.480469 110.390625 165.984375 110.289062 165.476562 C 110.1875 164.964844 110.136719 164.453125 110.136719 163.933594 C 110.136719 163.414062 110.1875 162.898438 110.289062 162.390625 C 110.390625 161.878906 110.542969 161.382812 110.742188 160.90625 C 110.9375 160.425781 111.183594 159.96875 111.472656 159.535156 C 111.761719 159.105469 112.089844 158.707031 112.457031 158.339844 C 112.824219 157.96875 113.222656 157.644531 113.652344 157.355469 C 114.085938 157.066406 114.542969 156.820312 115.023438 156.621094 C 115.503906 156.425781 115.996094 156.273438 116.507812 156.171875 C 117.015625 156.070312 117.53125 156.019531 118.050781 156.019531 L 197.167969 156.019531 C 197.6875 156.019531 198.203125 156.070312 198.710938 156.171875 C 199.222656 156.273438 199.714844 156.425781 200.195312 156.621094 C 200.675781 156.820312 201.132812 157.066406 201.5625 157.355469 C 201.996094 157.644531 202.394531 157.96875 202.761719 158.339844 C 203.128906 158.707031 203.457031 159.105469 203.746094 159.535156 C 204.035156 159.96875 204.277344 160.425781 204.476562 160.90625 C 204.675781 161.382812 204.828125 161.878906 204.929688 162.390625 C 205.03125 162.898438 205.082031 163.414062 205.082031 163.933594 C 205.082031 164.453125 205.03125 164.964844 204.929688 165.476562 C 204.828125 165.984375 204.675781 166.480469 204.476562 166.960938 C 204.277344 167.441406 204.035156 167.894531 203.746094 168.328125 C 203.457031 168.761719 203.128906 169.160156 202.761719 169.527344 C 202.394531 169.894531 201.996094 170.222656 201.5625 170.511719 C 201.132812 170.800781 200.675781 171.042969 200.195312 171.242188 C 199.714844 171.441406 199.222656 171.589844 198.710938 171.691406 C 198.203125 171.792969 197.6875 171.84375 197.167969 171.84375 Z M 197.167969 140.195312 L 118.050781 140.195312 C 117.53125 140.195312 117.015625 140.144531 116.507812 140.042969 C 115.996094 139.945312 115.503906 139.792969 115.023438 139.59375 C 114.542969 139.394531 114.085938 139.152344 113.652344 138.863281 C 113.222656 138.574219 112.824219 138.246094 112.457031 137.878906 C 112.089844 137.511719 111.761719 137.113281 111.472656 136.679688 C 111.183594 136.25 110.9375 135.792969 110.742188 135.3125 C 110.542969 134.832031 110.390625 134.339844 110.289062 133.828125 C 110.1875 133.320312 110.136719 132.804688 110.136719 132.285156 C 110.136719 131.765625 110.1875 131.25 110.289062 130.742188 C 110.390625 130.230469 110.542969 129.738281 110.742188 129.257812 C 110.9375 128.777344 111.183594 128.320312 111.472656 127.890625 C 111.761719 127.457031 112.089844 127.058594 112.457031 126.691406 C 112.824219 126.324219 113.222656 125.996094 113.652344 125.707031 C 114.085938 125.417969 114.542969 125.175781 115.023438 124.976562 C 115.503906 124.777344 115.996094 124.625 116.507812 124.523438 C 117.015625 124.425781 117.53125 124.375 118.050781 124.375 L 197.167969 124.375 C 197.6875 124.375 198.203125 124.425781 198.710938 124.523438 C 199.222656 124.625 199.714844 124.777344 200.195312 124.976562 C 200.675781 125.175781 201.132812 125.417969 201.5625 125.707031 C 201.996094 125.996094 202.394531 126.324219 202.761719 126.691406 C 203.128906 127.058594 203.457031 127.457031 203.746094 127.890625 C 204.035156 128.320312 204.277344 128.777344 204.476562 129.257812 C 204.675781 129.738281 204.828125 130.230469 204.929688 130.742188 C 205.03125 131.25 205.082031 131.765625 205.082031 132.285156 C 205.082031 132.804688 205.03125 133.320312 204.929688 133.828125 C 204.828125 134.339844 204.675781 134.832031 204.476562 135.3125 C 204.277344 135.792969 204.035156 136.25 203.746094 136.679688 C 203.457031 137.113281 203.128906 137.511719 202.761719 137.878906 C 202.394531 138.246094 201.996094 138.574219 201.5625 138.863281 C 201.132812 139.152344 200.675781 139.394531 200.195312 139.59375 C 199.714844 139.792969 199.222656 139.945312 198.710938 140.042969 C 198.203125 140.144531 197.6875 140.195312 197.167969 140.195312 Z M 197.167969 108.550781 L 118.050781 108.550781 C 117.53125 108.550781 117.015625 108.5 116.507812 108.398438 C 115.996094 108.296875 115.503906 108.144531 115.023438 107.949219 C 114.542969 107.75 114.085938 107.503906 113.652344 107.214844 C 113.222656 106.925781 112.824219 106.597656 112.457031 106.230469 C 112.089844 105.863281 111.761719 105.464844 111.472656 105.035156 C 111.183594 104.601562 110.9375 104.144531 110.742188 103.664062 C 110.542969 103.183594 110.390625 102.691406 110.289062 102.179688 C 110.1875 101.671875 110.136719 101.15625 110.136719 100.636719 C 110.136719 100.117188 110.1875 99.605469 110.289062 99.09375 C 110.390625 98.585938 110.542969 98.089844 110.742188 97.609375 C 110.9375 97.128906 111.183594 96.675781 111.472656 96.242188 C 111.761719 95.808594 112.089844 95.410156 112.457031 95.042969 C 112.824219 94.675781 113.222656 94.347656 113.652344 94.058594 C 114.085938 93.769531 114.542969 93.527344 115.023438 93.328125 C 115.503906 93.128906 115.996094 92.980469 116.507812 92.878906 C 117.015625 92.777344 117.53125 92.726562 118.050781 92.726562 L 197.167969 92.726562 C 197.6875 92.726562 198.203125 92.777344 198.710938 92.878906 C 199.222656 92.980469 199.714844 93.128906 200.195312 93.328125 C 200.675781 93.527344 201.132812 93.769531 201.5625 94.058594 C 201.996094 94.347656 202.394531 94.675781 202.761719 95.042969 C 203.128906 95.410156 203.457031 95.808594 203.746094 96.242188 C 204.035156 96.675781 204.277344 97.128906 204.476562 97.609375 C 204.675781 98.089844 204.828125 98.585938 204.929688 99.09375 C 205.03125 99.605469 205.082031 100.117188 205.082031 100.636719 C 205.082031 101.15625 205.03125 101.671875 204.929688 102.179688 C 204.828125 102.691406 204.675781 103.183594 204.476562 103.664062 C 204.277344 104.144531 204.035156 104.601562 203.746094 105.035156 C 203.457031 105.464844 203.128906 105.863281 202.761719 106.230469 C 202.394531 106.597656 201.996094 106.925781 201.5625 107.214844 C 201.132812 107.503906 200.675781 107.75 200.195312 107.949219 C 199.714844 108.144531 199.222656 108.296875 198.710938 108.398438 C 198.203125 108.5 197.6875 108.550781 197.167969 108.550781 Z M 197.167969 108.550781 " fill-opacity="1" fill-rule="nonzero"/></g><g clip-path="url(#828bb0acf3)"><path fill="#000000" d="M 323.757812 163.933594 L 323.757812 258.875 C 323.753906 260.09375 323.660156 261.304688 323.46875 262.511719 C 323.28125 263.714844 323 264.898438 322.628906 266.0625 C 322.257812 267.222656 321.800781 268.347656 321.257812 269.441406 C 320.714844 270.53125 320.089844 271.574219 319.386719 272.570312 C 318.683594 273.566406 317.90625 274.503906 317.058594 275.382812 C 316.210938 276.257812 315.300781 277.066406 314.332031 277.800781 C 313.359375 278.539062 312.339844 279.199219 311.265625 279.777344 C 310.191406 280.359375 309.082031 280.855469 307.933594 281.265625 L 307.933594 306.347656 C 307.9375 307.128906 307.824219 307.894531 307.597656 308.644531 C 307.371094 309.390625 307.039062 310.089844 306.601562 310.738281 C 306.164062 311.386719 305.640625 311.957031 305.03125 312.449219 C 304.421875 312.941406 303.753906 313.332031 303.027344 313.625 C 302.078125 314.074219 301.074219 314.285156 300.023438 314.257812 C 298.972656 314.261719 297.960938 314.0625 296.988281 313.667969 C 296.011719 313.269531 295.152344 312.699219 294.40625 311.964844 L 265.132812 282.609375 L 173.433594 282.609375 C 172.65625 282.609375 171.882812 282.566406 171.109375 282.488281 C 170.335938 282.410156 169.570312 282.296875 168.808594 282.144531 C 168.046875 281.988281 167.292969 281.800781 166.550781 281.574219 C 165.808594 281.34375 165.078125 281.082031 164.359375 280.785156 C 163.644531 280.488281 162.941406 280.152344 162.257812 279.785156 C 161.574219 279.421875 160.90625 279.019531 160.261719 278.589844 C 159.617188 278.15625 158.992188 277.695312 158.394531 277.199219 C 157.792969 276.707031 157.21875 276.1875 156.667969 275.636719 C 156.121094 275.089844 155.597656 274.515625 155.105469 273.914062 C 154.613281 273.3125 154.152344 272.691406 153.71875 272.046875 C 153.285156 271.398438 152.886719 270.734375 152.519531 270.050781 C 152.152344 269.363281 151.820312 268.664062 151.523438 267.945312 C 151.222656 267.230469 150.960938 266.5 150.734375 265.757812 C 150.507812 265.015625 150.316406 264.261719 150.164062 263.5 C 150.011719 262.738281 149.894531 261.972656 149.816406 261.199219 C 149.738281 260.425781 149.699219 259.652344 149.695312 258.875 L 149.695312 219.316406 L 220.902344 219.316406 C 222.199219 219.316406 223.492188 219.25 224.78125 219.125 C 226.070312 218.996094 227.351562 218.804688 228.621094 218.554688 C 229.890625 218.300781 231.144531 217.984375 232.386719 217.609375 C 233.625 217.234375 234.84375 216.796875 236.039062 216.300781 C 237.238281 215.804688 238.40625 215.25 239.550781 214.640625 C 240.691406 214.027344 241.800781 213.363281 242.878906 212.644531 C 243.957031 211.925781 244.996094 211.152344 245.996094 210.332031 C 246.996094 209.507812 247.957031 208.640625 248.871094 207.722656 C 249.789062 206.808594 250.65625 205.851562 251.480469 204.847656 C 252.300781 203.847656 253.070312 202.808594 253.792969 201.730469 C 254.511719 200.652344 255.175781 199.542969 255.789062 198.402344 C 256.398438 197.257812 256.953125 196.089844 257.449219 194.894531 C 257.945312 193.695312 258.378906 192.476562 258.757812 191.238281 C 259.132812 190 259.449219 188.742188 259.699219 187.472656 C 259.953125 186.203125 260.144531 184.921875 260.269531 183.632812 C 260.398438 182.34375 260.460938 181.050781 260.464844 179.757812 L 260.464844 140.195312 L 300.023438 140.195312 C 300.800781 140.199219 301.574219 140.238281 302.347656 140.316406 C 303.121094 140.394531 303.886719 140.511719 304.648438 140.664062 C 305.410156 140.816406 306.160156 141.007812 306.90625 141.234375 C 307.648438 141.460938 308.378906 141.722656 309.09375 142.023438 C 309.8125 142.320312 310.511719 142.652344 311.199219 143.019531 C 311.882812 143.386719 312.546875 143.785156 313.191406 144.21875 C 313.839844 144.648438 314.460938 145.113281 315.0625 145.605469 C 315.660156 146.097656 316.238281 146.621094 316.785156 147.167969 C 317.335938 147.71875 317.855469 148.292969 318.347656 148.894531 C 318.84375 149.492188 319.304688 150.117188 319.738281 150.761719 C 320.167969 151.40625 320.566406 152.074219 320.933594 152.757812 C 321.300781 153.441406 321.632812 154.144531 321.933594 154.859375 C 322.230469 155.578125 322.492188 156.308594 322.71875 157.050781 C 322.945312 157.792969 323.136719 158.546875 323.289062 159.308594 C 323.445312 160.066406 323.558594 160.835938 323.636719 161.609375 C 323.714844 162.382812 323.753906 163.15625 323.757812 163.933594 Z M 323.757812 163.933594 " fill-opacity="1" fill-rule="nonzero"/></g></svg>