<svg xmlns="http://www.w3.org/2000/svg" xmlns:xlink="http://www.w3.org/1999/xlink" width="526" zoomAndPan="magnify" viewBox="0 0 394.5 374.999991" height="500" preserveAspectRatio="xMidYMid meet" version="1.0"><defs><clipPath id="0293fcc6ce"><path d="M 66.257812 75.554688 L 327.679688 75.554688 L 327.679688 299.519531 L 66.257812 299.519531 Z M 66.257812 75.554688 " clip-rule="nonzero"/></clipPath></defs><g clip-path="url(#0293fcc6ce)"><path fill="#000000" d="M 308.886719 112.878906 L 252.925781 112.878906 L 252.925781 84.886719 C 252.925781 79.734375 248.75 75.554688 243.601562 75.554688 L 150.335938 75.554688 C 145.1875 75.554688 141.011719 79.734375 141.011719 84.886719 L 141.011719 112.878906 L 85.050781 112.878906 C 74.753906 112.878906 66.398438 121.242188 66.398438 131.542969 L 66.398438 280.855469 C 66.398438 291.15625 74.753906 299.519531 85.050781 299.519531 L 308.886719 299.519531 C 319.183594 299.519531 327.539062 291.15625 327.539062 280.855469 L 327.539062 131.542969 C 327.539062 121.242188 319.183594 112.878906 308.886719 112.878906 Z M 159.664062 94.21875 L 234.273438 94.21875 L 234.273438 112.878906 L 159.664062 112.878906 Z M 159.664062 94.21875 " fill-opacity="1" fill-rule="nonzero"/></g></svg>