<svg xmlns="http://www.w3.org/2000/svg" xmlns:xlink="http://www.w3.org/1999/xlink" width="526" zoomAndPan="magnify" viewBox="0 0 394.5 374.999991" height="500" preserveAspectRatio="xMidYMid meet" version="1.0"><defs><clipPath id="6e83a3d14b"><path d="M 118.199219 120.027344 L 275.5 120.027344 L 275.5 254.855469 L 118.199219 254.855469 Z M 118.199219 120.027344 " clip-rule="nonzero"/></clipPath></defs><g clip-path="url(#6e83a3d14b)"><path fill="#000000" d="M 264.191406 142.5 L 230.519531 142.5 L 230.519531 125.644531 C 230.519531 122.542969 228.007812 120.027344 224.910156 120.027344 L 168.792969 120.027344 C 165.695312 120.027344 163.179688 122.542969 163.179688 125.644531 L 163.179688 142.5 L 129.507812 142.5 C 123.3125 142.5 118.285156 147.53125 118.285156 153.734375 L 118.285156 243.621094 C 118.285156 249.824219 123.3125 254.855469 129.507812 254.855469 L 264.191406 254.855469 C 270.386719 254.855469 275.417969 249.824219 275.417969 243.621094 L 275.417969 153.734375 C 275.417969 147.53125 270.386719 142.5 264.191406 142.5 Z M 174.402344 131.261719 L 219.296875 131.261719 L 219.296875 142.5 L 174.402344 142.5 Z M 174.402344 131.261719 " fill-opacity="1" fill-rule="nonzero"/></g></svg>