<svg xmlns="http://www.w3.org/2000/svg" xmlns:xlink="http://www.w3.org/1999/xlink" width="526" zoomAndPan="magnify" viewBox="0 0 394.5 374.999991" height="500" preserveAspectRatio="xMidYMid meet" version="1.0"><defs><clipPath id="32288c9df8"><path d="M 118.199219 142 L 275.5 142 L 275.5 254.855469 L 118.199219 254.855469 Z M 118.199219 142 " clip-rule="nonzero"/></clipPath><clipPath id="8440b64a9a"><path d="M 163 120.027344 L 231 120.027344 L 231 154 L 163 154 Z M 163 120.027344 " clip-rule="nonzero"/></clipPath></defs><g clip-path="url(#32288c9df8)"><path stroke-linecap="round" transform="matrix(11.223659, 0, 0, 11.235759, 107.061218, 97.555863)" fill="none" stroke-linejoin="round" d="M 13.999907 13.499971 L 1.999936 13.499971 C 1.723942 13.499971 1.500154 13.276076 1.500154 13.000032 L 1.500154 4.999975 C 1.500154 4.723931 1.723942 4.500036 1.999936 4.500036 L 13.999907 4.500036 C 14.275901 4.500036 14.500037 4.723931 14.500037 4.999975 L 14.500037 13.000032 C 14.500037 13.276076 14.275901 13.499971 13.999907 13.499971 Z M 13.999907 13.499971 " stroke="#000000" stroke-width="1" stroke-opacity="1" stroke-miterlimit="10"/></g><g clip-path="url(#8440b64a9a)"><path stroke-linecap="round" transform="matrix(11.223659, 0, 0, 11.235759, 107.061218, 97.555863)" fill="none" stroke-linejoin="round" d="M 5.500145 4.500036 L 5.500145 2.499935 L 10.500046 2.499935 L 10.500046 4.500036 " stroke="#000000" stroke-width="1" stroke-opacity="1" stroke-miterlimit="10"/></g></svg>