<svg xmlns="http://www.w3.org/2000/svg" xmlns:xlink="http://www.w3.org/1999/xlink" width="526" zoomAndPan="magnify" viewBox="0 0 394.5 374.999991" height="500" preserveAspectRatio="xMidYMid meet" version="1.0"><defs><clipPath id="f070c6dfe4"><path d="M 66.257812 112 L 327.679688 112 L 327.679688 299.519531 L 66.257812 299.519531 Z M 66.257812 112 " clip-rule="nonzero"/></clipPath><clipPath id="dc22ccc1d0"><path d="M 141 75.554688 L 253 75.554688 L 253 132 L 141 132 Z M 141 75.554688 " clip-rule="nonzero"/></clipPath></defs><g clip-path="url(#f070c6dfe4)"><path stroke-linecap="round" transform="matrix(18.652841, 0, 0, 18.663845, 47.745986, 38.225384)" fill="none" stroke-linejoin="round" d="M 14.000051 13.500011 L 1.999952 13.500011 C 1.723939 13.500011 1.50007 13.276066 1.50007 13.000006 L 1.50007 4.999912 C 1.50007 4.724061 1.723939 4.499906 1.999952 4.499906 L 14.000051 4.499906 C 14.276065 4.499906 14.499933 4.724061 14.499933 4.999912 L 14.499933 13.000006 C 14.499933 13.276066 14.276065 13.500011 14.000051 13.500011 Z M 14.000051 13.500011 " stroke="#000000" stroke-width="1" stroke-opacity="1" stroke-miterlimit="10"/></g><g clip-path="url(#dc22ccc1d0)"><path stroke-linecap="round" transform="matrix(18.652841, 0, 0, 18.663845, 47.745986, 38.225384)" fill="none" stroke-linejoin="round" d="M 5.499964 4.499906 L 5.499964 2.500092 L 10.50004 2.500092 L 10.50004 4.499906 " stroke="#000000" stroke-width="1" stroke-opacity="1" stroke-miterlimit="10"/></g></svg>