<svg xmlns="http://www.w3.org/2000/svg" xmlns:xlink="http://www.w3.org/1999/xlink" width="526" zoomAndPan="magnify" viewBox="0 0 394.5 374.999991" height="500" preserveAspectRatio="xMidYMid meet" version="1.0"><defs><clipPath id="4fe54cdbbd"><path d="M 80.769531 61.078125 L 312.976562 61.078125 L 312.976562 314.257812 L 80.769531 314.257812 Z M 80.769531 61.078125 " clip-rule="nonzero"/></clipPath></defs><g clip-path="url(#4fe54cdbbd)"><path fill="#000000" d="M 312.964844 291.394531 L 312.964844 288.835938 C 312.964844 273.132812 309.894531 257.894531 303.835938 243.539062 C 297.988281 229.679688 289.621094 217.234375 278.964844 206.554688 C 268.308594 195.871094 255.894531 187.480469 242.066406 181.621094 C 241.160156 181.234375 240.242188 180.863281 239.324219 180.5 C 241.0625 179.074219 242.738281 177.558594 244.34375 175.949219 C 250.503906 169.773438 255.339844 162.578125 258.722656 154.5625 C 262.226562 146.257812 264.003906 137.445312 264.003906 128.367188 C 264.003906 119.289062 262.226562 110.476562 258.722656 102.171875 C 255.34375 94.15625 250.503906 86.960938 244.34375 80.785156 C 238.183594 74.609375 231.003906 69.761719 223.007812 66.371094 C 214.726562 62.859375 205.933594 61.078125 196.875 61.078125 C 187.820312 61.078125 179.027344 62.859375 170.742188 66.371094 C 162.746094 69.761719 155.570312 74.609375 149.410156 80.785156 C 143.246094 86.960938 138.410156 94.15625 135.027344 102.171875 C 131.523438 110.476562 129.746094 119.289062 129.746094 128.367188 C 129.746094 137.445312 131.523438 146.257812 135.027344 154.5625 C 138.410156 162.578125 143.25 169.773438 149.410156 175.949219 C 151.015625 177.558594 152.6875 179.074219 154.429688 180.5 C 153.507812 180.863281 152.59375 181.234375 151.683594 181.621094 C 137.859375 187.484375 125.445312 195.871094 114.789062 206.554688 C 104.132812 217.234375 95.761719 229.679688 89.914062 243.539062 C 83.859375 257.894531 80.785156 273.132812 80.785156 288.835938 L 80.785156 291.394531 C 80.785156 303.339844 89.933594 313.179688 101.570312 314.257812 L 293.757812 314.058594 L 293.828125 314.050781 C 295.828125 313.84375 297.765625 313.25 299.539062 312.296875 C 307.453125 308.675781 312.964844 300.667969 312.964844 291.394531 Z M 147.398438 149.320312 C 144.597656 142.683594 143.179688 135.632812 143.179688 128.367188 C 143.179688 121.101562 144.597656 114.050781 147.398438 107.414062 C 150.101562 101.007812 153.976562 95.25 158.90625 90.308594 C 163.835938 85.363281 169.582031 81.484375 175.972656 78.773438 C 182.59375 75.964844 189.625 74.542969 196.875 74.542969 C 204.125 74.542969 211.15625 75.964844 217.777344 78.773438 C 224.171875 81.484375 229.914062 85.363281 234.84375 90.308594 C 239.777344 95.25 243.648438 101.007812 246.351562 107.417969 C 249.152344 114.050781 250.570312 121.101562 250.570312 128.367188 C 250.570312 135.632812 249.152344 142.683594 246.351562 149.320312 C 243.648438 155.726562 239.777344 161.484375 234.84375 166.425781 C 229.914062 171.371094 224.171875 175.25 217.777344 177.960938 C 211.15625 180.769531 204.125 182.191406 196.875 182.191406 C 189.625 182.191406 182.59375 180.769531 175.972656 177.960938 C 169.582031 175.25 163.835938 171.371094 158.90625 166.425781 C 153.976562 161.484375 150.101562 155.726562 147.398438 149.320312 Z M 299.53125 291.394531 C 299.53125 296.632812 295.28125 300.894531 290.054688 300.894531 L 103.695312 300.894531 C 98.46875 300.894531 94.21875 296.632812 94.21875 291.394531 L 94.21875 288.835938 C 94.21875 274.945312 96.933594 261.46875 102.285156 248.78125 C 107.457031 236.527344 114.859375 225.523438 124.285156 216.074219 C 133.710938 206.625 144.691406 199.203125 156.917969 194.019531 C 159.609375 192.878906 162.378906 191.84375 165.144531 190.941406 C 166.109375 190.625 167.089844 190.320312 168.0625 190.039062 C 168.425781 189.929688 168.769531 189.796875 169.097656 189.636719 C 169.640625 189.886719 170.1875 190.128906 170.742188 190.363281 C 179.027344 193.875 187.820312 195.65625 196.875 195.65625 C 205.929688 195.65625 214.722656 193.875 223.007812 190.363281 C 223.5625 190.128906 224.109375 189.886719 224.65625 189.636719 C 224.984375 189.796875 225.328125 189.929688 225.6875 190.039062 C 229.449219 191.140625 233.199219 192.480469 236.835938 194.019531 C 249.058594 199.203125 260.039062 206.625 269.464844 216.074219 C 278.890625 225.523438 286.292969 236.527344 291.464844 248.78125 C 296.816406 261.46875 299.53125 274.945312 299.53125 288.835938 Z M 299.53125 291.394531 " fill-opacity="1" fill-rule="nonzero"/></g></svg>