<svg xmlns="http://www.w3.org/2000/svg" xmlns:xlink="http://www.w3.org/1999/xlink" width="526" zoomAndPan="magnify" viewBox="0 0 394.5 374.999991" height="500" preserveAspectRatio="xMidYMid meet" version="1.0"><defs><clipPath id="969069e4eb"><path d="M 80.984375 121.054688 L 313.191406 121.054688 L 313.191406 253.636719 L 80.984375 253.636719 Z M 80.984375 121.054688 " clip-rule="nonzero"/></clipPath></defs><g clip-path="url(#969069e4eb)"><path stroke-linecap="butt" transform="matrix(1.196937, 0, 0, 1.193293, 76.795324, 68.075998)" fill="none" stroke-linejoin="miter" d="M 83.38147 108.698525 L 117.531148 108.698525 C 131.828715 108.698525 143.541559 120.401307 143.541559 134.709798 L 143.541559 151.781128 L 57.371059 151.781128 L 57.371059 134.709798 C 57.371059 120.411127 69.080639 108.698525 83.38147 108.698525 Z M 83.38147 108.698525 " stroke="#000000" stroke-width="7" stroke-opacity="1" stroke-miterlimit="22.926001"/><path stroke-linecap="butt" transform="matrix(1.196937, 0, 0, 1.193293, 76.795324, 68.075998)" fill="none" stroke-linejoin="miter" d="M 98.459023 98.331334 C 112.299694 98.331334 123.591541 87.041014 123.591541 73.200634 C 123.591541 59.360254 112.299694 48.069934 98.459023 48.069934 C 84.621615 48.069934 73.319977 59.360254 73.319977 73.200634 C 73.319977 87.041014 84.60856 98.331334 98.459023 98.331334 Z M 98.459023 98.331334 " stroke="#000000" stroke-width="7" stroke-opacity="1" stroke-miterlimit="22.926001"/><path stroke-linecap="butt" transform="matrix(1.196937, 0, 0, 1.193293, 76.795324, 68.075998)" fill="none" stroke-linejoin="miter" d="M 138.71152 108.269696 C 141.629124 106.541285 145.029733 105.539593 148.658789 105.539593 L 174.401589 105.539593 C 185.181061 105.539593 193.999145 114.358416 193.999145 125.141342 L 193.999145 138.009492 L 151.250039 138.009492 " stroke="#000000" stroke-width="7" stroke-opacity="1" stroke-miterlimit="22.926001"/><path stroke-linecap="butt" transform="matrix(1.196937, 0, 0, 1.193293, 76.795324, 68.075998)" fill="none" stroke-linejoin="miter" d="M 160.01917 97.729009 C 170.449443 97.729009 178.960754 89.221169 178.960754 78.788508 C 178.960754 68.35912 170.449443 59.85128 160.01917 59.85128 C 149.588898 59.85128 141.08085 68.35912 141.08085 78.788508 C 141.071059 89.221169 149.579107 97.729009 160.01917 97.729009 Z M 160.01917 97.729009 " stroke="#000000" stroke-width="7" stroke-opacity="1" stroke-miterlimit="22.926001"/><path stroke-linecap="butt" transform="matrix(1.196937, 0, 0, 1.193293, 76.795324, 68.075998)" fill="none" stroke-linejoin="miter" d="M 62.289213 109.271389 C 59.371609 107.539704 55.971 106.541285 52.338681 106.541285 L 26.599144 106.541285 C 15.819673 106.541285 7.001589 115.360109 7.001589 126.139761 L 7.001589 139.011184 L 49.750694 139.011184 " stroke="#000000" stroke-width="7" stroke-opacity="1" stroke-miterlimit="22.926001"/><path stroke-linecap="butt" transform="matrix(1.196937, 0, 0, 1.193293, 76.795324, 68.075998)" fill="none" stroke-linejoin="miter" d="M 40.981563 98.730702 C 51.408572 98.730702 59.919883 90.219588 59.919883 79.7902 C 59.919883 69.360812 51.408572 60.849699 40.981563 60.849699 C 30.55129 60.849699 22.039979 69.360812 22.039979 79.7902 C 22.039979 90.219588 30.55129 98.730702 40.981563 98.730702 Z M 40.981563 98.730702 " stroke="#000000" stroke-width="7" stroke-opacity="1" stroke-miterlimit="22.926001"/></g></svg>