<svg xmlns="http://www.w3.org/2000/svg" xmlns:xlink="http://www.w3.org/1999/xlink" width="526" zoomAndPan="magnify" viewBox="0 0 394.5 374.999991" height="500" preserveAspectRatio="xMidYMid meet" version="1.0"><defs><clipPath id="b436a58d09"><path d="M 135 61.078125 L 259 61.078125 L 259 193 L 135 193 Z M 135 61.078125 " clip-rule="nonzero"/></clipPath><clipPath id="e6c5d4de4d"><path d="M 82 193 L 312 193 L 312 314.257812 L 82 314.257812 Z M 82 193 " clip-rule="nonzero"/></clipPath></defs><g clip-path="url(#b436a58d09)"><path fill="#000000" d="M 197.152344 192.40625 C 231.046875 192.40625 258.613281 156.433594 258.613281 122.542969 C 258.613281 88.65625 231.046875 61.078125 197.152344 61.078125 C 163.257812 61.078125 135.6875 88.65625 135.6875 122.542969 C 135.691406 156.429688 163.261719 192.40625 197.152344 192.40625 Z M 197.152344 192.40625 " fill-opacity="1" fill-rule="nonzero"/></g><g clip-path="url(#e6c5d4de4d)"><path fill="#000000" d="M 243.292969 193.035156 C 231.371094 202.117188 216.5 207.523438 200.386719 207.523438 L 193.917969 207.523438 C 177.804688 207.523438 162.925781 202.117188 151.007812 193.035156 C 112.078125 199.328125 82.351562 233.070312 82.351562 273.769531 C 82.351562 296.128906 133.75 314.257812 197.152344 314.257812 C 260.554688 314.257812 311.953125 296.128906 311.953125 273.769531 C 311.953125 233.070312 282.222656 199.328125 243.292969 193.035156 Z M 243.292969 193.035156 " fill-opacity="1" fill-rule="nonzero"/></g></svg>